FiraSlav-Bold.ufo
<glyph name="exclam" format="2">
  <advance width="600"/>
  <unicode hex="0021"/>
  <outline>
    <contour>
      <point x="384" y="693" type="line"/>
      <point x="364" y="255" type="line"/>
      <point x="237" y="255" type="line"/>
      <point x="216" y="693" type="line"/>
    </contour>
    <contour>
      <point x="300" y="164" type="curve" smooth="yes"/>
      <point x="351" y="164"/>
      <point x="390" y="123"/>
      <point x="390" y="74" type="curve" smooth="yes"/>
      <point x="390" y="24"/>
      <point x="351" y="-17"/>
      <point x="300" y="-17" type="curve" smooth="yes"/>
      <point x="250" y="-17"/>
      <point x="210" y="24"/>
      <point x="210" y="74" type="curve" smooth="yes"/>
      <point x="210" y="123"/>
      <point x="250" y="164"/>
    </contour>
  </outline>
</glyph>
<glyph name="quotedbl" format="2">
  <advance width="600"/>
  <unicode hex="0022"/>
  <outline>
    <contour>
      <point x="148" y="462" type="line"/>
      <point x="129" y="742" type="line"/>
      <point x="279" y="742" type="line"/>
      <point x="260" y="462" type="line"/>
    </contour>
    <contour>
      <point x="339" y="462" type="line"/>
      <point x="320" y="742" type="line"/>
      <point x="471" y="742" type="line"/>
      <point x="452" y="462" type="line"/>
    </contour>
  </outline>
</glyph>
<glyph name="numbersign" format="2">
  <advance width="600"/>
  <unicode hex="0023"/>
  <outline>
    <contour>
      <point x="491" y="446" type="line"/>
      <point x="466" y="249" type="line"/>
      <point x="529" y="249" type="line"/>
      <point x="529" y="145" type="line"/>
      <point x="452" y="145" type="line"/>
      <point x="433" y="0" type="line"/>
      <point x="303" y="0" type="line"/>
      <point x="322" y="145" type="line"/>
      <point x="226" y="145" type="line"/>
      <point x="207" y="0" type="line"/>
      <point x="77" y="0" type="line"/>
      <point x="95" y="145" type="line"/>
      <point x="35" y="145" type="line"/>
      <point x="35" y="249" type="line"/>
      <point x="109" y="249" type="line"/>
      <point x="135" y="446" type="line"/>
      <point x="72" y="446" type="line"/>
      <point x="72" y="551" type="line"/>
      <point x="149" y="551" type="line"/>
      <point x="167" y="693" type="line"/>
      <point x="298" y="693" type="line"/>
      <point x="279" y="551" type="line"/>
      <point x="375" y="551" type="line"/>
      <point x="394" y="693" type="line"/>
      <point x="524" y="693" type="line"/>
      <point x="505" y="551" type="line"/>
      <point x="566" y="551" type="line"/>
      <point x="566" y="446" type="line"/>
    </contour>
    <contour>
      <point x="239" y="249" type="line"/>
      <point x="335" y="249" type="line"/>
      <point x="361" y="446" type="line"/>
      <point x="265" y="446" type="line"/>
    </contour>
  </outline>
</glyph>
<glyph name="dollar" format="2">
  <advance width="600"/>
  <unicode hex="0024"/>
  <outline>
    <contour>
      <point x="349" y="856" type="line"/>
      <point x="349" y="708" type="line"/>
      <point x="431" y="701"/>
      <point x="497" y="670"/>
      <point x="546" y="629" type="curve"/>
      <point x="469" y="548" type="line"/>
      <point x="432" y="579"/>
      <point x="390" y="594"/>
      <point x="349" y="597" type="curve"/>
      <point x="349" y="422" type="line"/>
      <point x="483" y="378"/>
      <point x="558" y="324"/>
      <point x="558" y="204" type="curve" smooth="yes"/>
      <point x="558" y="92"/>
      <point x="484" y="4"/>
      <point x="349" y="-13" type="curve"/>
      <point x="349" y="-162" type="line"/>
      <point x="268" y="-162" type="line"/>
      <point x="268" y="-16" type="line"/>
      <point x="169" y="-9"/>
      <point x="91" y="32"/>
      <point x="42" y="79" type="curve"/>
      <point x="118" y="167" type="line"/>
      <point x="163" y="128"/>
      <point x="209" y="104"/>
      <point x="268" y="100" type="curve"/>
      <point x="268" y="308" type="line"/>
      <point x="124" y="356"/>
      <point x="67" y="417"/>
      <point x="67" y="511" type="curve" smooth="yes"/>
      <point x="67" y="620"/>
      <point x="144" y="694"/>
      <point x="268" y="707" type="curve"/>
      <point x="268" y="856" type="line"/>
    </contour>
    <contour>
      <point x="268" y="596" type="line"/>
      <point x="228" y="589"/>
      <point x="208" y="562"/>
      <point x="208" y="530" type="curve" smooth="yes"/>
      <point x="208" y="497"/>
      <point x="216" y="477"/>
      <point x="268" y="453" type="curve"/>
    </contour>
    <contour>
      <point x="349" y="276" type="curve"/>
      <point x="349" y="103" type="line"/>
      <point x="390" y="112"/>
      <point x="411" y="140"/>
      <point x="411" y="185" type="curve" smooth="yes"/>
      <point x="411" y="224"/>
      <point x="399" y="251"/>
    </contour>
  </outline>
</glyph>
<glyph name="percent" format="2">
  <advance width="600"/>
  <unicode hex="0025"/>
  <outline>
    <contour>
      <point x="425" y="716" type="line"/>
      <point x="509" y="681" type="line"/>
      <point x="168" y="-29" type="line"/>
      <point x="85" y="6" type="line"/>
    </contour>
    <contour>
      <point x="147" y="711" type="curve" smooth="yes"/>
      <point x="236" y="711"/>
      <point x="289" y="648"/>
      <point x="289" y="554" type="curve" smooth="yes"/>
      <point x="289" y="459"/>
      <point x="236" y="397"/>
      <point x="147" y="397" type="curve" smooth="yes"/>
      <point x="56" y="397"/>
      <point x="3" y="459"/>
      <point x="3" y="554" type="curve" smooth="yes"/>
      <point x="3" y="645"/>
      <point x="56" y="711"/>
    </contour>
    <contour>
      <point x="147" y="633" type="curve" smooth="yes"/>
      <point x="113" y="633"/>
      <point x="107" y="603"/>
      <point x="107" y="554" type="curve" smooth="yes"/>
      <point x="107" y="506"/>
      <point x="115" y="475"/>
      <point x="147" y="475" type="curve" smooth="yes"/>
      <point x="180" y="475"/>
      <point x="186" y="504"/>
      <point x="186" y="554" type="curve" smooth="yes"/>
      <point x="186" y="607"/>
      <point x="180" y="633"/>
    </contour>
    <contour>
      <point x="454" y="307" type="curve" smooth="yes"/>
      <point x="543" y="307"/>
      <point x="596" y="245"/>
      <point x="596" y="150" type="curve" smooth="yes"/>
      <point x="596" y="55"/>
      <point x="543" y="-6"/>
      <point x="454" y="-6" type="curve" smooth="yes"/>
      <point x="363" y="-6"/>
      <point x="310" y="55"/>
      <point x="310" y="150" type="curve" smooth="yes"/>
      <point x="310" y="241"/>
      <point x="363" y="307"/>
    </contour>
    <contour>
      <point x="454" y="230" type="curve" smooth="yes"/>
      <point x="420" y="230"/>
      <point x="414" y="200"/>
      <point x="414" y="150" type="curve" smooth="yes"/>
      <point x="414" y="103"/>
      <point x="422" y="72"/>
      <point x="454" y="72" type="curve" smooth="yes"/>
      <point x="487" y="72"/>
      <point x="493" y="101"/>
      <point x="493" y="150" type="curve" smooth="yes"/>
      <point x="493" y="204"/>
      <point x="487" y="230"/>
    </contour>
  </outline>
</glyph>
<glyph name="ampersand" format="2">
  <advance width="600"/>
  <unicode hex="0026"/>
  <outline>
    <contour>
      <point x="279" y="710" type="curve" smooth="yes"/>
      <point x="360" y="710"/>
      <point x="419" y="689"/>
      <point x="473" y="631" type="curve"/>
      <point x="388" y="558" type="line"/>
      <point x="358" y="589"/>
      <point x="336" y="602"/>
      <point x="297" y="602" type="curve" smooth="yes"/>
      <point x="250" y="602"/>
      <point x="224" y="572"/>
      <point x="224" y="523" type="curve" smooth="yes"/>
      <point x="224" y="471"/>
      <point x="261" y="433"/>
      <point x="316" y="433" type="curve" smooth="yes"/>
      <point x="578" y="433" type="line"/>
      <point x="578" y="332" type="line"/>
      <point x="512" y="332" type="line"/>
      <point x="512" y="70" type="line"/>
      <point x="471" y="26"/>
      <point x="400" y="-17"/>
      <point x="281" y="-17" type="curve" smooth="yes"/>
      <point x="123" y="-17"/>
      <point x="37" y="75"/>
      <point x="37" y="198" type="curve" smooth="yes"/>
      <point x="37" y="309"/>
      <point x="95" y="366"/>
      <point x="190" y="389" type="curve"/>
      <point x="190" y="393" type="line"/>
      <point x="111" y="414"/>
      <point x="72" y="463"/>
      <point x="72" y="543" type="curve" smooth="yes"/>
      <point x="72" y="638"/>
      <point x="159" y="710"/>
    </contour>
    <contour>
      <point x="366" y="332" type="line"/>
      <point x="307" y="332" type="line" smooth="yes"/>
      <point x="228" y="332"/>
      <point x="192" y="272"/>
      <point x="192" y="210" type="curve" smooth="yes"/>
      <point x="192" y="144"/>
      <point x="226" y="98"/>
      <point x="290" y="98" type="curve" smooth="yes"/>
      <point x="323" y="98"/>
      <point x="350" y="109"/>
      <point x="366" y="126" type="curve"/>
    </contour>
  </outline>
</glyph>
<glyph name="quotesingle" format="2">
  <advance width="600"/>
  <unicode hex="0027"/>
  <outline>
    <contour>
      <point x="244" y="462" type="line"/>
      <point x="225" y="742" type="line"/>
      <point x="374" y="742" type="line"/>
      <point x="356" y="462" type="line"/>
    </contour>
  </outline>
</glyph>
<glyph name="parenleft" format="2">
  <advance width="600"/>
  <unicode hex="0028"/>
  <outline>
    <contour>
      <point x="261" y="350" type="curve" smooth="yes"/>
      <point x="261" y="185"/>
      <point x="306" y="82"/>
      <point x="450" y="-75" type="curve"/>
      <point x="359" y="-158" type="line"/>
      <point x="201" y="-22"/>
      <point x="101" y="131"/>
      <point x="101" y="350" type="curve" smooth="yes"/>
      <point x="101" y="569"/>
      <point x="201" y="722"/>
      <point x="359" y="858" type="curve"/>
      <point x="450" y="775" type="line"/>
      <point x="316" y="628"/>
      <point x="261" y="515"/>
    </contour>
  </outline>
</glyph>
<glyph name="parenright" format="2">
  <advance width="600"/>
  <unicode hex="0029"/>
  <outline>
    <contour>
      <point x="339" y="350" type="curve" smooth="yes"/>
      <point x="339" y="515"/>
      <point x="284" y="628"/>
      <point x="150" y="775" type="curve"/>
      <point x="241" y="858" type="line"/>
      <point x="399" y="722"/>
      <point x="499" y="569"/>
      <point x="499" y="350" type="curve" smooth="yes"/>
      <point x="499" y="131"/>
      <point x="399" y="-22"/>
      <point x="241" y="-158" type="curve"/>
      <point x="150" y="-75" type="line"/>
      <point x="294" y="82"/>
      <point x="339" y="185"/>
    </contour>
  </outline>
</glyph>
<glyph name="asterisk" format="2">
  <advance width="600"/>
  <unicode hex="002A"/>
  <outline>
    <contour>
      <point x="367" y="531" type="line"/>
      <point x="346" y="380" type="line"/>
      <point x="482" y="444" type="line"/>
      <point x="523" y="320" type="line"/>
      <point x="374" y="292" type="line"/>
      <point x="480" y="183" type="line"/>
      <point x="371" y="104" type="line"/>
      <point x="299" y="238" type="line"/>
      <point x="230" y="103" type="line"/>
      <point x="121" y="182" type="line"/>
      <point x="225" y="293" type="line"/>
      <point x="78" y="320" type="line"/>
      <point x="117" y="444" type="line"/>
      <point x="254" y="381" type="line"/>
      <point x="232" y="531" type="line"/>
    </contour>
  </outline>
</glyph>
<glyph name="plus" format="2">
  <advance width="600"/>
  <unicode hex="002B"/>
  <outline>
    <contour>
      <point x="365" y="529" type="line"/>
      <point x="365" y="373" type="line"/>
      <point x="517" y="373" type="line"/>
      <point x="517" y="252" type="line"/>
      <point x="365" y="252" type="line"/>
      <point x="365" y="96" type="line"/>
      <point x="234" y="96" type="line"/>
      <point x="234" y="252" type="line"/>
      <point x="83" y="252" type="line"/>
      <point x="83" y="373" type="line"/>
      <point x="234" y="373" type="line"/>
      <point x="234" y="529" type="line"/>
    </contour>
  </outline>
</glyph>
<glyph name="comma" format="2">
  <advance width="600"/>
  <unicode hex="002C"/>
  <outline>
    <contour>
      <point x="300" y="206" type="curve" smooth="yes"/>
      <point x="363" y="206"/>
      <point x="409" y="159"/>
      <point x="409" y="98" type="curve" smooth="yes"/>
      <point x="409" y="58"/>
      <point x="395" y="25"/>
      <point x="366" y="-40" type="curve" smooth="yes"/>
      <point x="294" y="-203" type="line"/>
      <point x="188" y="-203" type="line"/>
      <point x="239" y="9" type="line"/>
      <point x="209" y="28"/>
      <point x="192" y="61"/>
      <point x="192" y="99" type="curve" smooth="yes"/>
      <point x="192" y="159"/>
      <point x="238" y="206"/>
    </contour>
  </outline>
</glyph>
<glyph name="hyphen" format="2">
  <advance width="600"/>
  <unicode hex="002D"/>
  <outline>
    <contour>
      <point x="108" y="252" type="line"/>
      <point x="108" y="374" type="line"/>
      <point x="492" y="374" type="line"/>
      <point x="492" y="252" type="line"/>
    </contour>
  </outline>
</glyph>
<glyph name="period" format="2">
  <advance width="600"/>
  <unicode hex="002E"/>
  <outline>
    <contour>
      <point x="189" y="95" type="curve" smooth="yes"/>
      <point x="189" y="155"/>
      <point x="238" y="206"/>
      <point x="300" y="206" type="curve" smooth="yes"/>
      <point x="362" y="206"/>
      <point x="411" y="155"/>
      <point x="411" y="95" type="curve" smooth="yes"/>
      <point x="411" y="34"/>
      <point x="362" y="-17"/>
      <point x="300" y="-17" type="curve" smooth="yes"/>
      <point x="238" y="-17"/>
      <point x="189" y="34"/>
    </contour>
  </outline>
</glyph>
<glyph name="slash" format="2">
  <advance width="600"/>
  <unicode hex="002F"/>
  <outline>
    <contour>
      <point x="152" y="-112" type="line"/>
      <point x="29" y="-55" type="line"/>
      <point x="449" y="817" type="line"/>
      <point x="571" y="760" type="line"/>
    </contour>
  </outline>
</glyph>
<glyph name="zero" format="2">
  <advance width="600"/>
  <unicode hex="0030"/>
  <outline>
    <contour>
      <point x="300" y="711" type="curve" smooth="yes"/>
      <point x="466" y="711"/>
      <point x="550" y="576"/>
      <point x="550" y="348" type="curve" smooth="yes"/>
      <point x="550" y="119"/>
      <point x="466" y="-17"/>
      <point x="300" y="-17" type="curve" smooth="yes"/>
      <point x="134" y="-17"/>
      <point x="50" y="119"/>
      <point x="50" y="348" type="curve" smooth="yes"/>
      <point x="50" y="576"/>
      <point x="134" y="711"/>
    </contour>
    <contour>
      <point x="300" y="596" type="curve" smooth="yes"/>
      <point x="234" y="596"/>
      <point x="203" y="528"/>
      <point x="203" y="348" type="curve" smooth="yes"/>
      <point x="203" y="160"/>
      <point x="235" y="97"/>
      <point x="300" y="97" type="curve" smooth="yes"/>
      <point x="366" y="97"/>
      <point x="396" y="162"/>
      <point x="396" y="348" type="curve" smooth="yes"/>
      <point x="396" y="532"/>
      <point x="364" y="596"/>
    </contour>
    <contour>
      <point x="299" y="410" type="curve" smooth="yes"/>
      <point x="337" y="410"/>
      <point x="365" y="381"/>
      <point x="365" y="345" type="curve" smooth="yes"/>
      <point x="365" y="308"/>
      <point x="337" y="279"/>
      <point x="299" y="279" type="curve" smooth="yes"/>
      <point x="262" y="279"/>
      <point x="234" y="308"/>
      <point x="234" y="345" type="curve" smooth="yes"/>
      <point x="234" y="381"/>
      <point x="262" y="410"/>
    </contour>
  </outline>
</glyph>
<glyph name="one" format="2">
  <advance width="600"/>
  <unicode hex="0031"/>
  <outline>
    <contour>
      <point x="422" y="120" type="line"/>
      <point x="551" y="120" type="line"/>
      <point x="551" y="0" type="line"/>
      <point x="101" y="0" type="line"/>
      <point x="101" y="120" type="line"/>
      <point x="268" y="120" type="line"/>
      <point x="268" y="538" type="line"/>
      <point x="125" y="448" type="line"/>
      <point x="58" y="557" type="line"/>
      <point x="282" y="693" type="line"/>
      <point x="422" y="693" type="line"/>
    </contour>
  </outline>
</glyph>
<glyph name="two" format="2">
  <advance width="600"/>
  <unicode hex="0032"/>
  <outline>
    <contour>
      <point x="276" y="711" type="curve" smooth="yes"/>
      <point x="434" y="711"/>
      <point x="515" y="618"/>
      <point x="515" y="512" type="curve" smooth="yes"/>
      <point x="515" y="400"/>
      <point x="446" y="309"/>
      <point x="235" y="121" type="curve"/>
      <point x="531" y="121" type="line"/>
      <point x="514" y="0" type="line"/>
      <point x="54" y="0" type="line"/>
      <point x="54" y="112" type="line"/>
      <point x="281" y="333"/>
      <point x="354" y="415"/>
      <point x="354" y="498" type="curve" smooth="yes"/>
      <point x="354" y="554"/>
      <point x="321" y="589"/>
      <point x="261" y="589" type="curve" smooth="yes"/>
      <point x="209" y="589"/>
      <point x="173" y="568"/>
      <point x="136" y="519" type="curve"/>
      <point x="40" y="592" type="line"/>
      <point x="92" y="664"/>
      <point x="164" y="711"/>
    </contour>
  </outline>
</glyph>
<glyph name="three" format="2">
  <advance width="600"/>
  <unicode hex="0033"/>
  <outline>
    <contour>
      <point x="272" y="711" type="curve" smooth="yes"/>
      <point x="421" y="711"/>
      <point x="508" y="630"/>
      <point x="508" y="533" type="curve" smooth="yes"/>
      <point x="508" y="445"/>
      <point x="452" y="392"/>
      <point x="366" y="367" type="curve"/>
      <point x="462" y="354"/>
      <point x="530" y="307"/>
      <point x="530" y="195" type="curve" smooth="yes"/>
      <point x="530" y="78"/>
      <point x="428" y="-17"/>
      <point x="262" y="-17" type="curve" smooth="yes"/>
      <point x="159" y="-17"/>
      <point x="76" y="21"/>
      <point x="18" y="87" type="curve"/>
      <point x="107" y="170" type="line"/>
      <point x="147" y="124"/>
      <point x="197" y="104"/>
      <point x="251" y="104" type="curve" smooth="yes"/>
      <point x="320" y="104"/>
      <point x="368" y="140"/>
      <point x="368" y="206" type="curve" smooth="yes"/>
      <point x="368" y="279"/>
      <point x="325" y="310"/>
      <point x="251" y="310" type="curve" smooth="yes"/>
      <point x="188" y="310" type="line"/>
      <point x="206" y="418" type="line"/>
      <point x="250" y="418" type="line" smooth="yes"/>
      <point x="312" y="418"/>
      <point x="355" y="449"/>
      <point x="355" y="509" type="curve" smooth="yes"/>
      <point x="355" y="561"/>
      <point x="314" y="593"/>
      <point x="254" y="593" type="curve" smooth="yes"/>
      <point x="199" y="593"/>
      <point x="155" y="570"/>
      <point x="116" y="533" type="curve"/>
      <point x="35" y="617" type="line"/>
      <point x="98" y="678"/>
      <point x="177" y="711"/>
    </contour>
  </outline>
</glyph>
<glyph name="four" format="2">
  <advance width="600"/>
  <unicode hex="0034"/>
  <outline>
    <contour>
      <point x="553" y="264" type="line"/>
      <point x="553" y="146" type="line"/>
      <point x="484" y="146" type="line"/>
      <point x="484" y="0" type="line"/>
      <point x="333" y="0" type="line"/>
      <point x="332" y="146" type="line"/>
      <point x="45" y="146" type="line"/>
      <point x="45" y="250" type="line"/>
      <point x="237" y="711" type="line"/>
      <point x="371" y="661" type="line"/>
      <point x="208" y="264" type="line"/>
      <point x="332" y="264" type="line"/>
      <point x="350" y="431" type="line"/>
      <point x="484" y="431" type="line"/>
      <point x="484" y="264" type="line"/>
    </contour>
  </outline>
</glyph>
<glyph name="five" format="2">
  <advance width="600"/>
  <unicode hex="0035"/>
  <outline>
    <contour>
      <point x="515" y="693" type="line"/>
      <point x="497" y="580" type="line"/>
      <point x="244" y="580" type="line"/>
      <point x="244" y="430" type="line"/>
      <point x="278" y="446"/>
      <point x="316" y="453"/>
      <point x="346" y="453" type="curve" smooth="yes"/>
      <point x="453" y="453"/>
      <point x="541" y="368"/>
      <point x="541" y="228" type="curve" smooth="yes"/>
      <point x="541" y="87"/>
      <point x="432" y="-17"/>
      <point x="269" y="-17" type="curve" smooth="yes"/>
      <point x="169" y="-17"/>
      <point x="90" y="24"/>
      <point x="39" y="87" type="curve"/>
      <point x="130" y="170" type="line"/>
      <point x="163" y="127"/>
      <point x="208" y="104"/>
      <point x="257" y="104" type="curve" smooth="yes"/>
      <point x="330" y="104"/>
      <point x="378" y="153"/>
      <point x="378" y="225" type="curve" smooth="yes"/>
      <point x="378" y="311"/>
      <point x="341" y="344"/>
      <point x="284" y="344" type="curve" smooth="yes"/>
      <point x="259" y="344"/>
      <point x="230" y="338"/>
      <point x="200" y="321" type="curve"/>
      <point x="93" y="321" type="line"/>
      <point x="93" y="693" type="line"/>
    </contour>
  </outline>
</glyph>
<glyph name="six" format="2">
  <advance width="600"/>
  <unicode hex="0036"/>
  <outline>
    <contour>
      <point x="360" y="465" type="curve" smooth="yes"/>
      <point x="468" y="465"/>
      <point x="554" y="382"/>
      <point x="554" y="235" type="curve" smooth="yes"/>
      <point x="554" y="96"/>
      <point x="459" y="-17"/>
      <point x="308" y="-17" type="curve" smooth="yes"/>
      <point x="124" y="-17"/>
      <point x="50" y="135"/>
      <point x="50" y="313" type="curve" smooth="yes"/>
      <point x="50" y="547"/>
      <point x="163" y="711"/>
      <point x="351" y="711" type="curve" smooth="yes"/>
      <point x="411" y="711"/>
      <point x="462" y="693"/>
      <point x="501" y="666" type="curve"/>
      <point x="441" y="570" type="line"/>
      <point x="414" y="589"/>
      <point x="383" y="598"/>
      <point x="353" y="598" type="curve" smooth="yes"/>
      <point x="278" y="598"/>
      <point x="222" y="529"/>
      <point x="215" y="402" type="curve"/>
      <point x="256" y="444"/>
      <point x="311" y="465"/>
    </contour>
    <contour>
      <point x="310" y="96" type="curve" smooth="yes"/>
      <point x="370" y="96"/>
      <point x="396" y="154"/>
      <point x="396" y="226" type="curve" smooth="yes"/>
      <point x="396" y="321"/>
      <point x="368" y="356"/>
      <point x="319" y="356" type="curve" smooth="yes"/>
      <point x="282" y="356"/>
      <point x="244" y="336"/>
      <point x="215" y="303" type="curve"/>
      <point x="216" y="164"/>
      <point x="240" y="96"/>
    </contour>
  </outline>
</glyph>
<glyph name="seven" format="2">
  <advance width="600"/>
  <unicode hex="0037"/>
  <outline>
    <contour>
      <point x="264" y="-16" type="line"/>
      <point x="114" y="31" type="line"/>
      <point x="372" y="574" type="line"/>
      <point x="68" y="574" type="line"/>
      <point x="68" y="693" type="line"/>
      <point x="532" y="693" type="line"/>
      <point x="532" y="586" type="line"/>
    </contour>
  </outline>
</glyph>
<glyph name="eight" format="2">
  <advance width="600"/>
  <unicode hex="0038"/>
  <outline>
    <contour>
      <point x="530" y="527" type="curve" smooth="yes"/>
      <point x="530" y="462"/>
      <point x="497" y="419"/>
      <point x="423" y="377" type="curve"/>
      <point x="516" y="330"/>
      <point x="557" y="266"/>
      <point x="557" y="188" type="curve" smooth="yes"/>
      <point x="557" y="81"/>
      <point x="469" y="-17"/>
      <point x="297" y="-17" type="curve" smooth="yes"/>
      <point x="128" y="-17"/>
      <point x="43" y="77"/>
      <point x="43" y="184" type="curve" smooth="yes"/>
      <point x="43" y="263"/>
      <point x="92" y="323"/>
      <point x="170" y="357" type="curve"/>
      <point x="99" y="402"/>
      <point x="70" y="442"/>
      <point x="70" y="519" type="curve" smooth="yes"/>
      <point x="70" y="637"/>
      <point x="169" y="711"/>
      <point x="301" y="711" type="curve" smooth="yes"/>
      <point x="436" y="711"/>
      <point x="530" y="640"/>
    </contour>
    <contour>
      <point x="220" y="519" type="curve" smooth="yes"/>
      <point x="220" y="470"/>
      <point x="252" y="441"/>
      <point x="321" y="415" type="curve"/>
      <point x="367" y="448"/>
      <point x="380" y="479"/>
      <point x="380" y="518" type="curve" smooth="yes"/>
      <point x="380" y="568"/>
      <point x="354" y="603"/>
      <point x="301" y="603" type="curve" smooth="yes"/>
      <point x="249" y="603"/>
      <point x="220" y="574"/>
    </contour>
    <contour>
      <point x="399" y="189" type="curve" smooth="yes"/>
      <point x="399" y="258"/>
      <point x="360" y="282"/>
      <point x="267" y="315" type="curve"/>
      <point x="226" y="289"/>
      <point x="201" y="249"/>
      <point x="201" y="194" type="curve" smooth="yes"/>
      <point x="201" y="136"/>
      <point x="234" y="96"/>
      <point x="301" y="96" type="curve" smooth="yes"/>
      <point x="370" y="96"/>
      <point x="399" y="139"/>
    </contour>
  </outline>
</glyph>
<glyph name="nine" format="2">
  <advance width="600"/>
  <unicode hex="0039"/>
  <outline>
    <contour>
      <point x="296" y="711" type="curve" smooth="yes"/>
      <point x="465" y="711"/>
      <point x="551" y="598"/>
      <point x="551" y="434" type="curve" smooth="yes"/>
      <point x="551" y="168"/>
      <point x="420" y="31"/>
      <point x="129" y="-30" type="curve"/>
      <point x="96" y="81" type="line"/>
      <point x="260" y="122"/>
      <point x="350" y="187"/>
      <point x="381" y="296" type="curve"/>
      <point x="340" y="260"/>
      <point x="297" y="239"/>
      <point x="240" y="239" type="curve" smooth="yes"/>
      <point x="131" y="239"/>
      <point x="44" y="327"/>
      <point x="44" y="461" type="curve" smooth="yes"/>
      <point x="44" y="611"/>
      <point x="152" y="711"/>
    </contour>
    <contour>
      <point x="203" y="466" type="curve" smooth="yes"/>
      <point x="203" y="381"/>
      <point x="241" y="350"/>
      <point x="289" y="350" type="curve" smooth="yes"/>
      <point x="326" y="350"/>
      <point x="357" y="364"/>
      <point x="388" y="390" type="curve"/>
      <point x="388" y="394"/>
      <point x="388" y="398"/>
      <point x="388" y="402" type="curve" smooth="yes"/>
      <point x="388" y="534"/>
      <point x="372" y="598"/>
      <point x="295" y="598" type="curve" smooth="yes"/>
      <point x="238" y="598"/>
      <point x="203" y="557"/>
    </contour>
  </outline>
</glyph>
<glyph name="colon" format="2">
  <advance width="600"/>
  <unicode hex="003A"/>
  <outline>
    <contour>
      <point x="195" y="434" type="curve" smooth="yes"/>
      <point x="195" y="491"/>
      <point x="241" y="539"/>
      <point x="300" y="539" type="curve" smooth="yes"/>
      <point x="359" y="539"/>
      <point x="404" y="491"/>
      <point x="404" y="434" type="curve" smooth="yes"/>
      <point x="404" y="377"/>
      <point x="359" y="330"/>
      <point x="300" y="330" type="curve" smooth="yes"/>
      <point x="241" y="330"/>
      <point x="195" y="377"/>
    </contour>
    <contour>
      <point x="195" y="89" type="curve" smooth="yes"/>
      <point x="195" y="145"/>
      <point x="241" y="192"/>
      <point x="300" y="192" type="curve" smooth="yes"/>
      <point x="359" y="192"/>
      <point x="404" y="145"/>
      <point x="404" y="89" type="curve" smooth="yes"/>
      <point x="404" y="31"/>
      <point x="359" y="-17"/>
      <point x="300" y="-17" type="curve" smooth="yes"/>
      <point x="241" y="-17"/>
      <point x="195" y="31"/>
    </contour>
  </outline>
</glyph>
<glyph name="semicolon" format="2">
  <advance width="600"/>
  <unicode hex="003B"/>
  <outline>
    <contour>
      <point x="300" y="539" type="curve" smooth="yes"/>
      <point x="359" y="539"/>
      <point x="404" y="491"/>
      <point x="404" y="434" type="curve" smooth="yes"/>
      <point x="404" y="377"/>
      <point x="359" y="330"/>
      <point x="300" y="330" type="curve" smooth="yes"/>
      <point x="241" y="330"/>
      <point x="195" y="377"/>
      <point x="195" y="434" type="curve" smooth="yes"/>
      <point x="195" y="491"/>
      <point x="241" y="539"/>
    </contour>
    <contour>
      <point x="300" y="197" type="curve" smooth="yes"/>
      <point x="360" y="197"/>
      <point x="404" y="152"/>
      <point x="404" y="93" type="curve" smooth="yes"/>
      <point x="404" y="56"/>
      <point x="390" y="21"/>
      <point x="363" y="-40" type="curve" smooth="yes"/>
      <point x="294" y="-198" type="line"/>
      <point x="191" y="-198" type="line"/>
      <point x="240" y="7" type="line"/>
      <point x="212" y="26"/>
      <point x="195" y="57"/>
      <point x="195" y="94" type="curve" smooth="yes"/>
      <point x="195" y="152"/>
      <point x="240" y="197"/>
    </contour>
  </outline>
</glyph>
<glyph name="less" format="2">
  <advance width="600"/>
  <unicode hex="003C"/>
  <outline>
    <contour>
      <point x="461" y="613" type="line"/>
      <point x="531" y="504" type="line"/>
      <point x="206" y="314" type="line"/>
      <point x="531" y="128" type="line"/>
      <point x="459" y="15" type="line"/>
      <point x="70" y="257" type="line"/>
      <point x="70" y="370" type="line"/>
    </contour>
  </outline>
</glyph>
<glyph name="equal" format="2">
  <advance width="600"/>
  <unicode hex="003D"/>
  <outline>
    <contour>
      <point x="527" y="478" type="line"/>
      <point x="527" y="354" type="line"/>
      <point x="73" y="354" type="line"/>
      <point x="73" y="478" type="line"/>
    </contour>
    <contour>
      <point x="527" y="268" type="line"/>
      <point x="527" y="145" type="line"/>
      <point x="73" y="145" type="line"/>
      <point x="73" y="268" type="line"/>
    </contour>
  </outline>
</glyph>
<glyph name="question" format="2">
  <advance width="600"/>
  <unicode hex="003F"/>
  <outline>
    <contour>
      <point x="296" y="711" type="curve" smooth="yes"/>
      <point x="448" y="711"/>
      <point x="526" y="632"/>
      <point x="526" y="543" type="curve" smooth="yes"/>
      <point x="526" y="381"/>
      <point x="340" y="392"/>
      <point x="340" y="276" type="curve" smooth="yes"/>
      <point x="340" y="255" type="line"/>
      <point x="196" y="255" type="line"/>
      <point x="196" y="281" type="line" smooth="yes"/>
      <point x="196" y="452"/>
      <point x="361" y="446"/>
      <point x="361" y="529" type="curve" smooth="yes"/>
      <point x="361" y="566"/>
      <point x="328" y="586"/>
      <point x="281" y="586" type="curve" smooth="yes"/>
      <point x="236" y="586"/>
      <point x="192" y="566"/>
      <point x="156" y="525" type="curve"/>
      <point x="56" y="603" type="line"/>
      <point x="113" y="670"/>
      <point x="192" y="711"/>
    </contour>
    <contour>
      <point x="270" y="164" type="curve" smooth="yes"/>
      <point x="320" y="164"/>
      <point x="361" y="123"/>
      <point x="361" y="74" type="curve" smooth="yes"/>
      <point x="361" y="24"/>
      <point x="320" y="-17"/>
      <point x="270" y="-17" type="curve" smooth="yes"/>
      <point x="220" y="-17"/>
      <point x="180" y="24"/>
      <point x="180" y="74" type="curve" smooth="yes"/>
      <point x="180" y="123"/>
      <point x="220" y="164"/>
    </contour>
  </outline>
</glyph>
<glyph name="at" format="2">
  <advance width="600"/>
  <unicode hex="0040"/>
  <outline>
    <contour>
      <point x="287" y="711" type="curve" smooth="yes"/>
      <point x="524" y="711"/>
      <point x="599" y="545"/>
      <point x="599" y="296" type="curve" smooth="yes"/>
      <point x="599" y="44"/>
      <point x="569" y="-94"/>
      <point x="441" y="-94" type="curve" smooth="yes"/>
      <point x="365" y="-94"/>
      <point x="330" y="-31"/>
      <point x="321" y="44" type="curve"/>
      <point x="317" y="44" type="line"/>
      <point x="295" y="-7"/>
      <point x="248" y="-49"/>
      <point x="177" y="-49" type="curve" smooth="yes"/>
      <point x="58" y="-49"/>
      <point x="15" y="50"/>
      <point x="15" y="179" type="curve" smooth="yes"/>
      <point x="15" y="343"/>
      <point x="83" y="448"/>
      <point x="228" y="448" type="curve" smooth="yes"/>
      <point x="281" y="448"/>
      <point x="341" y="434"/>
      <point x="396" y="404" type="curve"/>
      <point x="396" y="104" type="line" smooth="yes"/>
      <point x="396" y="30"/>
      <point x="409" y="4"/>
      <point x="436" y="4" type="curve" smooth="yes"/>
      <point x="475" y="4"/>
      <point x="478" y="81"/>
      <point x="478" y="287" type="curve" smooth="yes"/>
      <point x="478" y="496"/>
      <point x="439" y="613"/>
      <point x="279" y="613" type="curve" smooth="yes"/>
      <point x="207" y="613"/>
      <point x="138" y="589"/>
      <point x="61" y="521" type="curve"/>
      <point x="-2" y="595" type="line"/>
      <point x="89" y="675"/>
      <point x="178" y="711"/>
    </contour>
    <contour>
      <point x="225" y="349" type="curve" smooth="yes"/>
      <point x="172" y="349"/>
      <point x="157" y="307"/>
      <point x="157" y="179" type="curve" smooth="yes"/>
      <point x="157" y="88"/>
      <point x="168" y="50"/>
      <point x="206" y="50" type="curve" smooth="yes"/>
      <point x="250" y="50"/>
      <point x="259" y="90"/>
      <point x="263" y="121" type="curve"/>
      <point x="263" y="340" type="line"/>
      <point x="251" y="346"/>
      <point x="240" y="349"/>
    </contour>
  </outline>
</glyph>
<glyph name="D" format="2">
  <advance width="600"/>
  <unicode hex="0044"/>
  <outline>
    <contour>
      <point x="574" y="350" type="curve" smooth="yes"/>
      <point x="574" y="68"/>
      <point x="411" y="0"/>
      <point x="239" y="0" type="curve" smooth="yes"/>
      <point x="52" y="0" type="line"/>
      <point x="52" y="693" type="line"/>
      <point x="227" y="693" type="line" smooth="yes"/>
      <point x="405" y="693"/>
      <point x="574" y="636"/>
    </contour>
    <contour>
      <point x="405" y="350" type="curve" smooth="yes"/>
      <point x="405" y="536"/>
      <point x="338" y="574"/>
      <point x="251" y="574" type="curve" smooth="yes"/>
      <point x="216" y="574" type="line"/>
      <point x="216" y="119" type="line"/>
      <point x="251" y="119" type="line" smooth="yes"/>
      <point x="342" y="119"/>
      <point x="405" y="168"/>
    </contour>
  </outline>
</glyph>
<glyph name="E" format="2">
  <advance width="600"/>
  <unicode hex="0045"/>
  <outline>
    <contour>
      <point x="257" y="576" type="line"/>
      <point x="257" y="409" type="line"/>
      <point x="497" y="409" type="line"/>
      <point x="497" y="295" type="line"/>
      <point x="257" y="295" type="line"/>
      <point x="257" y="118" type="line"/>
      <point x="546" y="118" type="line"/>
      <point x="546" y="0" type="line"/>
      <point x="93" y="0" type="line"/>
      <point x="93" y="693" type="line"/>
      <point x="546" y="693" type="line"/>
      <point x="529" y="576" type="line"/>
    </contour>
  </outline>
</glyph>
<glyph name="F" format="2">
  <advance width="600"/>
  <unicode hex="0046"/>
  <outline>
    <contour>
      <point x="273" y="576" type="line"/>
      <point x="273" y="393" type="line"/>
      <point x="515" y="393" type="line"/>
      <point x="515" y="275" type="line"/>
      <point x="273" y="275" type="line"/>
      <point x="273" y="0" type="line"/>
      <point x="108" y="0" type="line"/>
      <point x="108" y="693" type="line"/>
      <point x="563" y="693" type="line"/>
      <point x="547" y="576" type="line"/>
    </contour>
  </outline>
</glyph>
<glyph name="L" format="2">
  <advance width="600"/>
  <unicode hex="004C"/>
  <outline>
    <contour>
      <point x="93" y="0" type="line"/>
      <point x="93" y="693" type="line"/>
      <point x="257" y="693" type="line"/>
      <point x="257" y="130" type="line"/>
      <point x="557" y="130" type="line"/>
      <point x="541" y="0" type="line"/>
    </contour>
  </outline>
</glyph>
<glyph name="T" format="2">
  <advance width="600"/>
  <unicode hex="0054"/>
  <outline>
    <contour>
      <point x="381" y="567" type="line"/>
      <point x="381" y="0" type="line"/>
      <point x="217" y="0" type="line"/>
      <point x="217" y="567" type="line"/>
      <point x="22" y="567" type="line"/>
      <point x="22" y="693" type="line"/>
      <point x="583" y="693" type="line"/>
      <point x="567" y="567" type="line"/>
    </contour>
  </outline>
</glyph>
<glyph name="V" format="2">
  <advance width="600"/>
  <unicode hex="0056"/>
  <outline>
    <contour>
      <point x="303" y="128" type="line"/>
      <point x="433" y="693" type="line"/>
      <point x="601" y="693" type="line"/>
      <point x="401" y="0" type="line"/>
      <point x="199" y="0" type="line"/>
      <point x="0" y="693" type="line"/>
      <point x="174" y="693" type="line"/>
    </contour>
  </outline>
</glyph>
<glyph name="W" format="2">
  <advance width="600"/>
  <unicode hex="0057"/>
  <outline>
    <contour>
      <point x="603" y="693" type="line"/>
      <point x="522" y="0" type="line"/>
      <point x="352" y="0" type="line"/>
      <point x="301" y="496" type="line"/>
      <point x="245" y="0" type="line"/>
      <point x="72" y="0" type="line"/>
      <point x="-3" y="693" type="line"/>
      <point x="150" y="693" type="line"/>
      <point x="174" y="140" type="line"/>
      <point x="231" y="613" type="line"/>
      <point x="373" y="613" type="line"/>
      <point x="426" y="140" type="line"/>
      <point x="460" y="693" type="line"/>
    </contour>
  </outline>
</glyph>
<glyph name="bracketleft" format="2">
  <advance width="600"/>
  <unicode hex="005B"/>
  <outline>
    <contour>
      <point x="156" y="-123" type="line"/>
      <point x="156" y="823" type="line"/>
      <point x="464" y="823" type="line"/>
      <point x="464" y="705" type="line"/>
      <point x="305" y="705" type="line"/>
      <point x="305" y="-6" type="line"/>
      <point x="464" y="-6" type="line"/>
      <point x="464" y="-123" type="line"/>
    </contour>
  </outline>
</glyph>
<glyph name="bracketright" format="2">
  <advance width="600"/>
  <unicode hex="005D"/>
  <outline>
    <contour>
      <point x="444" y="823" type="line"/>
      <point x="444" y="-123" type="line"/>
      <point x="136" y="-123" type="line"/>
      <point x="136" y="-5" type="line"/>
      <point x="295" y="-5" type="line"/>
      <point x="295" y="705" type="line"/>
      <point x="136" y="705" type="line"/>
      <point x="136" y="823" type="line"/>
    </contour>
  </outline>
</glyph>
<glyph name="asciicircum" format="2">
  <advance width="600"/>
  <unicode hex="005E"/>
  <outline>
    <contour>
      <point x="372" y="844" type="line"/>
      <point x="561" y="527" type="line"/>
      <point x="407" y="527" type="line"/>
      <point x="299" y="726" type="line"/>
      <point x="195" y="527" type="line"/>
      <point x="39" y="527" type="line"/>
      <point x="228" y="844" type="line"/>
    </contour>
  </outline>
</glyph>
<glyph name="underscore" format="2">
  <advance width="600"/>
  <unicode hex="005F"/>
  <outline>
    <contour>
      <point x="50" y="-186" type="line"/>
      <point x="50" y="-62" type="line"/>
      <point x="550" y="-62" type="line"/>
      <point x="550" y="-186" type="line"/>
    </contour>
  </outline>
</glyph>
<glyph name="grave" format="2">
  <advance width="600"/>
  <unicode hex="0060"/>
  <outline>
    <contour>
      <point x="399" y="622" type="line"/>
      <point x="163" y="716" type="line"/>
      <point x="224" y="835" type="line"/>
      <point x="442" y="702" type="line"/>
    </contour>
  </outline>
</glyph>
<glyph name="b" format="2">
  <advance width="600"/>
  <unicode hex="0062"/>
  <outline>
    <contour>
      <point x="228" y="477" type="line"/>
      <point x="261" y="521"/>
      <point x="310" y="549"/>
      <point x="364" y="549" type="curve" smooth="yes"/>
      <point x="500" y="549"/>
      <point x="560" y="440"/>
      <point x="560" y="267" type="curve" smooth="yes"/>
      <point x="560" y="103"/>
      <point x="485" y="-17"/>
      <point x="347" y="-17" type="curve" smooth="yes"/>
      <point x="294" y="-17"/>
      <point x="247" y="6"/>
      <point x="216" y="48" type="curve"/>
      <point x="210" y="0" type="line"/>
      <point x="70" y="0" type="line"/>
      <point x="70" y="742" type="line"/>
      <point x="228" y="759" type="line"/>
    </contour>
    <contour>
      <point x="306" y="98" type="curve" smooth="yes"/>
      <point x="362" y="98"/>
      <point x="397" y="145"/>
      <point x="397" y="265" type="curve" smooth="yes"/>
      <point x="397" y="397"/>
      <point x="364" y="432"/>
      <point x="314" y="432" type="curve" smooth="yes"/>
      <point x="278" y="432"/>
      <point x="251" y="409"/>
      <point x="228" y="370" type="curve"/>
      <point x="228" y="146" type="line"/>
      <point x="248" y="115"/>
      <point x="272" y="98"/>
    </contour>
  </outline>
</glyph>
<glyph name="d" format="2">
  <advance width="600"/>
  <unicode hex="0064"/>
  <outline>
    <contour>
      <point x="372" y="759" type="line"/>
      <point x="530" y="742" type="line"/>
      <point x="530" y="0" type="line"/>
      <point x="390" y="0" type="line"/>
      <point x="382" y="58" type="line"/>
      <point x="353" y="17"/>
      <point x="305" y="-17"/>
      <point x="235" y="-17" type="curve" smooth="yes"/>
      <point x="103" y="-17"/>
      <point x="40" y="96"/>
      <point x="40" y="267" type="curve" smooth="yes"/>
      <point x="40" y="431"/>
      <point x="121" y="549"/>
      <point x="252" y="549" type="curve" smooth="yes"/>
      <point x="299" y="549"/>
      <point x="340" y="532"/>
      <point x="372" y="499" type="curve"/>
    </contour>
    <contour>
      <point x="294" y="433" type="curve" smooth="yes"/>
      <point x="239" y="433"/>
      <point x="203" y="385"/>
      <point x="203" y="266" type="curve" smooth="yes"/>
      <point x="203" y="135"/>
      <point x="237" y="99"/>
      <point x="285" y="99" type="curve" smooth="yes"/>
      <point x="321" y="99"/>
      <point x="349" y="122"/>
      <point x="372" y="160" type="curve"/>
      <point x="372" y="389" type="line"/>
      <point x="350" y="417"/>
      <point x="327" y="433"/>
    </contour>
  </outline>
</glyph>
<glyph name="f" format="2">
  <advance width="600"/>
  <unicode hex="0066"/>
  <outline>
    <contour>
      <point x="408" y="759" type="curve" smooth="yes"/>
      <point x="486" y="759"/>
      <point x="543" y="745"/>
      <point x="590" y="725" type="curve"/>
      <point x="546" y="622" type="line"/>
      <point x="510" y="636"/>
      <point x="471" y="642"/>
      <point x="433" y="642" type="curve" smooth="yes"/>
      <point x="370" y="642"/>
      <point x="345" y="621"/>
      <point x="345" y="569" type="curve" smooth="yes"/>
      <point x="345" y="498" type="line"/>
      <point x="518" y="498" type="line"/>
      <point x="500" y="388" type="line"/>
      <point x="345" y="388" type="line"/>
      <point x="345" y="0" type="line"/>
      <point x="188" y="0" type="line"/>
      <point x="188" y="388" type="line"/>
      <point x="76" y="388" type="line"/>
      <point x="76" y="498" type="line"/>
      <point x="188" y="498" type="line"/>
      <point x="188" y="574" type="line" smooth="yes"/>
      <point x="188" y="679"/>
      <point x="264" y="759"/>
    </contour>
  </outline>
</glyph>
<glyph name="h" format="2">
  <advance width="600"/>
  <unicode hex="0068"/>
  <outline>
    <contour>
      <point x="228" y="758" type="line"/>
      <point x="228" y="478" type="line"/>
      <point x="273" y="526"/>
      <point x="325" y="549"/>
      <point x="384" y="549" type="curve" smooth="yes"/>
      <point x="478" y="549"/>
      <point x="530" y="491"/>
      <point x="530" y="390" type="curve" smooth="yes"/>
      <point x="530" y="0" type="line"/>
      <point x="372" y="0" type="line"/>
      <point x="372" y="346" type="line" smooth="yes"/>
      <point x="372" y="410"/>
      <point x="360" y="432"/>
      <point x="321" y="432" type="curve" smooth="yes"/>
      <point x="287" y="432"/>
      <point x="258" y="407"/>
      <point x="228" y="367" type="curve"/>
      <point x="228" y="0" type="line"/>
      <point x="70" y="0" type="line"/>
      <point x="70" y="742" type="line"/>
    </contour>
  </outline>
</glyph>
<glyph name="m" format="2">
  <advance width="600"/>
  <unicode hex="006D"/>
  <outline>
    <contour>
      <point x="463" y="549" type="curve" smooth="yes"/>
      <point x="538" y="549"/>
      <point x="573" y="502"/>
      <point x="573" y="393" type="curve" smooth="yes"/>
      <point x="573" y="0" type="line"/>
      <point x="438" y="0" type="line"/>
      <point x="438" y="375" type="line" smooth="yes"/>
      <point x="438" y="412"/>
      <point x="433" y="426"/>
      <point x="412" y="426" type="curve" smooth="yes"/>
      <point x="395" y="426"/>
      <point x="378" y="418"/>
      <point x="357" y="391" type="curve"/>
      <point x="357" y="0" type="line"/>
      <point x="245" y="0" type="line"/>
      <point x="245" y="375" type="line" smooth="yes"/>
      <point x="245" y="412"/>
      <point x="240" y="426"/>
      <point x="219" y="426" type="curve" smooth="yes"/>
      <point x="203" y="426"/>
      <point x="185" y="418"/>
      <point x="164" y="391" type="curve"/>
      <point x="164" y="0" type="line"/>
      <point x="27" y="0" type="line"/>
      <point x="27" y="531" type="line"/>
      <point x="142" y="531" type="line"/>
      <point x="153" y="480" type="line"/>
      <point x="186" y="525"/>
      <point x="217" y="549"/>
      <point x="264" y="549" type="curve" smooth="yes"/>
      <point x="304" y="549"/>
      <point x="334" y="529"/>
      <point x="346" y="486" type="curve"/>
      <point x="378" y="523"/>
      <point x="415" y="549"/>
    </contour>
  </outline>
</glyph>
<glyph name="v" format="2">
  <advance width="600"/>
  <unicode hex="0076"/>
  <outline>
    <contour>
      <point x="571" y="531" type="line"/>
      <point x="394" y="0" type="line"/>
      <point x="208" y="0" type="line"/>
      <point x="29" y="531" type="line"/>
      <point x="200" y="531" type="line"/>
      <point x="303" y="121" type="line"/>
      <point x="411" y="531" type="line"/>
    </contour>
  </outline>
</glyph>
<glyph name="w" format="2">
  <advance width="600"/>
  <unicode hex="0077"/>
  <outline>
    <contour>
      <point x="521" y="0" type="line"/>
      <point x="347" y="0" type="line"/>
      <point x="301" y="357" type="line"/>
      <point x="253" y="0" type="line"/>
      <point x="82" y="0" type="line"/>
      <point x="3" y="531" type="line"/>
      <point x="148" y="531" type="line"/>
      <point x="183" y="99" type="line"/>
      <point x="238" y="464" type="line"/>
      <point x="372" y="464" type="line"/>
      <point x="421" y="99" type="line"/>
      <point x="457" y="531" type="line"/>
      <point x="597" y="531" type="line"/>
    </contour>
  </outline>
</glyph>
<glyph name="braceleft" format="2">
  <advance width="600"/>
  <unicode hex="007B"/>
  <outline>
    <contour>
      <point x="467" y="840" type="curve"/>
      <point x="467" y="730" type="line"/>
      <point x="409" y="730"/>
      <point x="374" y="719"/>
      <point x="374" y="676" type="curve" smooth="yes"/>
      <point x="374" y="673"/>
      <point x="374" y="670"/>
      <point x="374" y="667" type="curve" smooth="yes"/>
      <point x="389" y="519" type="line" smooth="yes"/>
      <point x="390" y="510"/>
      <point x="390" y="502"/>
      <point x="390" y="494" type="curve" smooth="yes"/>
      <point x="390" y="401"/>
      <point x="327" y="364"/>
      <point x="234" y="350" type="curve"/>
      <point x="332" y="335"/>
      <point x="391" y="301"/>
      <point x="391" y="208" type="curve" smooth="yes"/>
      <point x="391" y="200"/>
      <point x="390" y="191"/>
      <point x="389" y="181" type="curve" smooth="yes"/>
      <point x="374" y="33" type="line" smooth="yes"/>
      <point x="374" y="30"/>
      <point x="374" y="27"/>
      <point x="374" y="24" type="curve" smooth="yes"/>
      <point x="374" y="-19"/>
      <point x="410" y="-30"/>
      <point x="467" y="-30" type="curve"/>
      <point x="467" y="-140" type="line"/>
      <point x="298" y="-140"/>
      <point x="226" y="-98"/>
      <point x="226" y="12" type="curve" smooth="yes"/>
      <point x="226" y="22"/>
      <point x="227" y="33"/>
      <point x="228" y="44" type="curve" smooth="yes"/>
      <point x="243" y="188" type="line" smooth="yes"/>
      <point x="243" y="192"/>
      <point x="244" y="197"/>
      <point x="244" y="201" type="curve" smooth="yes"/>
      <point x="244" y="266"/>
      <point x="186" y="286"/>
      <point x="105" y="286" type="curve"/>
      <point x="105" y="414" type="line"/>
      <point x="185" y="414"/>
      <point x="244" y="434"/>
      <point x="244" y="499" type="curve" smooth="yes"/>
      <point x="244" y="503"/>
      <point x="243" y="508"/>
      <point x="243" y="512" type="curve" smooth="yes"/>
      <point x="228" y="655" type="line" smooth="yes"/>
      <point x="227" y="667"/>
      <point x="226" y="678"/>
      <point x="226" y="689" type="curve" smooth="yes"/>
      <point x="226" y="799"/>
      <point x="299" y="840"/>
    </contour>
  </outline>
</glyph>
<glyph name="braceright" format="2">
  <advance width="600"/>
  <unicode hex="007D"/>
  <outline>
    <contour>
      <point x="133" y="840" type="line"/>
      <point x="302" y="840"/>
      <point x="374" y="798"/>
      <point x="374" y="688" type="curve" smooth="yes"/>
      <point x="374" y="678"/>
      <point x="373" y="667"/>
      <point x="372" y="656" type="curve" smooth="yes"/>
      <point x="357" y="512" type="line" smooth="yes"/>
      <point x="357" y="508"/>
      <point x="356" y="503"/>
      <point x="356" y="499" type="curve" smooth="yes"/>
      <point x="356" y="434"/>
      <point x="415" y="414"/>
      <point x="495" y="414" type="curve"/>
      <point x="495" y="286" type="line"/>
      <point x="416" y="286"/>
      <point x="356" y="266"/>
      <point x="356" y="201" type="curve" smooth="yes"/>
      <point x="356" y="197"/>
      <point x="357" y="192"/>
      <point x="357" y="188" type="curve" smooth="yes"/>
      <point x="372" y="45" type="line" smooth="yes"/>
      <point x="373" y="33"/>
      <point x="374" y="22"/>
      <point x="374" y="11" type="curve" smooth="yes"/>
      <point x="374" y="-99"/>
      <point x="301" y="-140"/>
      <point x="133" y="-140" type="curve"/>
      <point x="133" y="-30" type="line"/>
      <point x="191" y="-30"/>
      <point x="226" y="-19"/>
      <point x="226" y="24" type="curve" smooth="yes"/>
      <point x="226" y="27"/>
      <point x="226" y="30"/>
      <point x="226" y="33" type="curve" smooth="yes"/>
      <point x="211" y="181" type="line" smooth="yes"/>
      <point x="210" y="190"/>
      <point x="210" y="198"/>
      <point x="210" y="206" type="curve" smooth="yes"/>
      <point x="210" y="299"/>
      <point x="273" y="336"/>
      <point x="367" y="350" type="curve"/>
      <point x="269" y="365"/>
      <point x="210" y="399"/>
      <point x="210" y="492" type="curve" smooth="yes"/>
      <point x="210" y="501"/>
      <point x="210" y="510"/>
      <point x="211" y="519" type="curve" smooth="yes"/>
      <point x="226" y="667" type="line" smooth="yes"/>
      <point x="226" y="670"/>
      <point x="226" y="673"/>
      <point x="226" y="676" type="curve" smooth="yes"/>
      <point x="226" y="719"/>
      <point x="190" y="730"/>
      <point x="133" y="730" type="curve"/>
    </contour>
  </outline>
</glyph>
<glyph name="asciitilde" format="2">
  <advance width="600"/>
  <unicode hex="007E"/>
  <outline>
    <contour>
      <point x="203" y="430" type="curve" smooth="yes"/>
      <point x="301" y="430"/>
      <point x="341" y="330"/>
      <point x="401" y="330" type="curve" smooth="yes"/>
      <point x="439" y="330"/>
      <point x="463" y="357"/>
      <point x="490" y="408" type="curve"/>
      <point x="578" y="369" type="line"/>
      <point x="536" y="276"/>
      <point x="486" y="210"/>
      <point x="397" y="210" type="curve" smooth="yes"/>
      <point x="301" y="210"/>
      <point x="259" y="310"/>
      <point x="199" y="310" type="curve" smooth="yes"/>
      <point x="160" y="310"/>
      <point x="136" y="280"/>
      <point x="110" y="232" type="curve"/>
      <point x="22" y="272" type="line"/>
      <point x="62" y="355"/>
      <point x="113" y="430"/>
    </contour>
  </outline>
</glyph>
<glyph name="exclamdown" format="2">
  <advance width="600"/>
  <unicode hex="00A1"/>
  <outline>
    <contour>
      <point x="300" y="512" type="curve" smooth="yes"/>
      <point x="351" y="512"/>
      <point x="390" y="470"/>
      <point x="390" y="420" type="curve" smooth="yes"/>
      <point x="390" y="372"/>
      <point x="351" y="331"/>
      <point x="300" y="331" type="curve" smooth="yes"/>
      <point x="250" y="331"/>
      <point x="210" y="372"/>
      <point x="210" y="420" type="curve" smooth="yes"/>
      <point x="210" y="470"/>
      <point x="250" y="512"/>
    </contour>
    <contour>
      <point x="363" y="240" type="line"/>
      <point x="385" y="-205" type="line"/>
      <point x="216" y="-205" type="line"/>
      <point x="237" y="240" type="line"/>
    </contour>
  </outline>
</glyph>
<glyph name="cent" format="2">
  <advance width="600"/>
  <unicode hex="00A2"/>
  <outline>
    <contour>
      <point x="392" y="692" type="line"/>
      <point x="392" y="543" type="line"/>
      <point x="440" y="535"/>
      <point x="483" y="515"/>
      <point x="521" y="483" type="curve"/>
      <point x="453" y="388" type="line"/>
      <point x="417" y="417"/>
      <point x="386" y="427"/>
      <point x="352" y="427" type="curve" smooth="yes"/>
      <point x="283" y="427"/>
      <point x="244" y="382"/>
      <point x="244" y="262" type="curve" smooth="yes"/>
      <point x="244" y="143"/>
      <point x="286" y="108"/>
      <point x="351" y="108" type="curve" smooth="yes"/>
      <point x="386" y="108"/>
      <point x="412" y="119"/>
      <point x="450" y="147" type="curve"/>
      <point x="521" y="46" type="line"/>
      <point x="482" y="15"/>
      <point x="440" y="-4"/>
      <point x="392" y="-12" type="curve"/>
      <point x="392" y="-161" type="line"/>
      <point x="279" y="-161" type="line"/>
      <point x="279" y="-9" type="line"/>
      <point x="151" y="16"/>
      <point x="79" y="119"/>
      <point x="79" y="262" type="curve" smooth="yes"/>
      <point x="79" y="406"/>
      <point x="153" y="515"/>
      <point x="280" y="541" type="curve"/>
      <point x="280" y="692" type="line"/>
    </contour>
  </outline>
</glyph>
<glyph name="sterling" format="2">
  <advance width="600"/>
  <unicode hex="00A3"/>
  <outline>
    <contour>
      <point x="353" y="711" type="curve" smooth="yes"/>
      <point x="443" y="711"/>
      <point x="509" y="678"/>
      <point x="558" y="609" type="curve"/>
      <point x="461" y="539" type="line"/>
      <point x="434" y="578"/>
      <point x="406" y="592"/>
      <point x="366" y="592" type="curve" smooth="yes"/>
      <point x="312" y="592"/>
      <point x="281" y="564"/>
      <point x="281" y="498" type="curve" smooth="yes"/>
      <point x="281" y="402" type="line"/>
      <point x="464" y="402" type="line"/>
      <point x="464" y="319" type="line"/>
      <point x="281" y="319" type="line"/>
      <point x="281" y="243" type="line" smooth="yes"/>
      <point x="281" y="192"/>
      <point x="269" y="149"/>
      <point x="217" y="120" type="curve"/>
      <point x="542" y="120" type="line"/>
      <point x="524" y="0" type="line"/>
      <point x="42" y="0" type="line"/>
      <point x="42" y="114" type="line"/>
      <point x="118" y="138"/>
      <point x="125" y="173"/>
      <point x="125" y="248" type="curve" smooth="yes"/>
      <point x="125" y="319" type="line"/>
      <point x="52" y="319" type="line"/>
      <point x="52" y="402" type="line"/>
      <point x="125" y="402" type="line"/>
      <point x="125" y="502" type="line" smooth="yes"/>
      <point x="125" y="622"/>
      <point x="205" y="711"/>
    </contour>
  </outline>
</glyph>
<glyph name="currency" format="2">
  <advance width="600"/>
  <unicode hex="00A4"/>
  <outline>
    <contour>
      <point x="102" y="612" type="line"/>
      <point x="183" y="531" type="line"/>
      <point x="216" y="551"/>
      <point x="256" y="560"/>
      <point x="301" y="560" type="curve" smooth="yes"/>
      <point x="344" y="560"/>
      <point x="384" y="551"/>
      <point x="418" y="531" type="curve"/>
      <point x="498" y="611" type="line"/>
      <point x="569" y="540" type="line"/>
      <point x="491" y="461" type="line"/>
      <point x="511" y="428"/>
      <point x="523" y="388"/>
      <point x="523" y="342" type="curve" smooth="yes"/>
      <point x="523" y="295"/>
      <point x="510" y="254"/>
      <point x="490" y="222" type="curve"/>
      <point x="569" y="143" type="line"/>
      <point x="498" y="73" type="line"/>
      <point x="418" y="151" type="line"/>
      <point x="385" y="132"/>
      <point x="344" y="123"/>
      <point x="301" y="123" type="curve" smooth="yes"/>
      <point x="257" y="123"/>
      <point x="216" y="132"/>
      <point x="182" y="151" type="curve"/>
      <point x="102" y="71" type="line"/>
      <point x="31" y="142" type="line"/>
      <point x="111" y="223" type="line"/>
      <point x="91" y="255"/>
      <point x="80" y="295"/>
      <point x="80" y="342" type="curve" smooth="yes"/>
      <point x="80" y="387"/>
      <point x="90" y="428"/>
      <point x="110" y="461" type="curve"/>
      <point x="31" y="541" type="line"/>
    </contour>
    <contour>
      <point x="301" y="453" type="curve" smooth="yes"/>
      <point x="236" y="453"/>
      <point x="202" y="412"/>
      <point x="202" y="342" type="curve" smooth="yes"/>
      <point x="202" y="271"/>
      <point x="236" y="230"/>
      <point x="301" y="230" type="curve" smooth="yes"/>
      <point x="366" y="230"/>
      <point x="398" y="271"/>
      <point x="398" y="342" type="curve" smooth="yes"/>
      <point x="398" y="412"/>
      <point x="366" y="453"/>
    </contour>
  </outline>
</glyph>
<glyph name="yen" format="2">
  <advance width="600"/>
  <unicode hex="00A5"/>
  <outline>
    <contour>
      <point x="592" y="693" type="line"/>
      <point x="415" y="352" type="line"/>
      <point x="514" y="352" type="line"/>
      <point x="514" y="270" type="line"/>
      <point x="380" y="270" type="line"/>
      <point x="380" y="202" type="line"/>
      <point x="514" y="202" type="line"/>
      <point x="514" y="120" type="line"/>
      <point x="380" y="120" type="line"/>
      <point x="380" y="0" type="line"/>
      <point x="222" y="0" type="line"/>
      <point x="222" y="120" type="line"/>
      <point x="90" y="120" type="line"/>
      <point x="90" y="202" type="line"/>
      <point x="222" y="202" type="line"/>
      <point x="222" y="270" type="line"/>
      <point x="90" y="270" type="line"/>
      <point x="90" y="352" type="line"/>
      <point x="186" y="352" type="line"/>
      <point x="8" y="693" type="line"/>
      <point x="176" y="693" type="line"/>
      <point x="302" y="408" type="line"/>
      <point x="306" y="408" type="line"/>
      <point x="429" y="693" type="line"/>
    </contour>
  </outline>
</glyph>
<glyph name="brokenbar" format="2">
  <advance width="600"/>
  <unicode hex="00A6"/>
  <outline>
    <contour>
      <point x="373" y="810" type="line"/>
      <point x="373" y="446" type="line"/>
      <point x="226" y="446" type="line"/>
      <point x="226" y="810" type="line"/>
    </contour>
    <contour>
      <point x="373" y="259" type="line"/>
      <point x="373" y="-105" type="line"/>
      <point x="226" y="-105" type="line"/>
      <point x="226" y="259" type="line"/>
    </contour>
  </outline>
</glyph>
<glyph name="section" format="2">
  <advance width="600"/>
  <unicode hex="00A7"/>
  <outline>
    <contour>
      <point x="319" y="711" type="curve" smooth="yes"/>
      <point x="392" y="711"/>
      <point x="459" y="689"/>
      <point x="511" y="655" type="curve"/>
      <point x="456" y="563" type="line"/>
      <point x="414" y="589"/>
      <point x="371" y="601"/>
      <point x="326" y="601" type="curve" smooth="yes"/>
      <point x="278" y="601"/>
      <point x="254" y="582"/>
      <point x="254" y="554" type="curve" smooth="yes"/>
      <point x="254" y="522"/>
      <point x="269" y="508"/>
      <point x="370" y="477" type="curve" smooth="yes"/>
      <point x="466" y="447"/>
      <point x="522" y="407"/>
      <point x="522" y="321" type="curve" smooth="yes"/>
      <point x="522" y="263"/>
      <point x="487" y="220"/>
      <point x="443" y="192" type="curve"/>
      <point x="479" y="164"/>
      <point x="499" y="127"/>
      <point x="499" y="78" type="curve" smooth="yes"/>
      <point x="499" y="-17"/>
      <point x="412" y="-84"/>
      <point x="277" y="-84" type="curve" smooth="yes"/>
      <point x="197" y="-84"/>
      <point x="133" y="-62"/>
      <point x="84" y="-28" type="curve"/>
      <point x="137" y="69" type="line"/>
      <point x="180" y="42"/>
      <point x="222" y="26"/>
      <point x="269" y="26" type="curve" smooth="yes"/>
      <point x="319" y="26"/>
      <point x="348" y="45"/>
      <point x="348" y="73" type="curve" smooth="yes"/>
      <point x="348" y="104"/>
      <point x="335" y="119"/>
      <point x="229" y="152" type="curve" smooth="yes"/>
      <point x="134" y="182"/>
      <point x="78" y="222"/>
      <point x="78" y="307" type="curve" smooth="yes"/>
      <point x="78" y="364"/>
      <point x="115" y="406"/>
      <point x="160" y="434" type="curve"/>
      <point x="122" y="464"/>
      <point x="102" y="502"/>
      <point x="102" y="548" type="curve" smooth="yes"/>
      <point x="102" y="642"/>
      <point x="187" y="711"/>
    </contour>
    <contour>
      <point x="242" y="394" type="curve"/>
      <point x="224" y="373"/>
      <point x="216" y="349"/>
      <point x="216" y="330" type="curve" smooth="yes"/>
      <point x="216" y="287"/>
      <point x="242" y="274"/>
      <point x="357" y="234" type="curve"/>
      <point x="374" y="257"/>
      <point x="384" y="281"/>
      <point x="384" y="300" type="curve" smooth="yes"/>
      <point x="384" y="340"/>
      <point x="359" y="354"/>
    </contour>
  </outline>
</glyph>
<glyph name="dieresis" format="2">
  <advance width="600"/>
  <unicode hex="00A8"/>
  <outline>
    <contour>
      <point x="184" y="637" type="curve" smooth="yes"/>
      <point x="139" y="637"/>
      <point x="102" y="672"/>
      <point x="102" y="718" type="curve" smooth="yes"/>
      <point x="102" y="762"/>
      <point x="139" y="797"/>
      <point x="184" y="797" type="curve" smooth="yes"/>
      <point x="231" y="797"/>
      <point x="267" y="762"/>
      <point x="267" y="718" type="curve" smooth="yes"/>
      <point x="267" y="672"/>
      <point x="231" y="637"/>
    </contour>
    <contour>
      <point x="416" y="637" type="curve" smooth="yes"/>
      <point x="371" y="637"/>
      <point x="333" y="672"/>
      <point x="333" y="718" type="curve" smooth="yes"/>
      <point x="333" y="762"/>
      <point x="371" y="797"/>
      <point x="416" y="797" type="curve" smooth="yes"/>
      <point x="462" y="797"/>
      <point x="498" y="762"/>
      <point x="498" y="718" type="curve" smooth="yes"/>
      <point x="498" y="672"/>
      <point x="462" y="637"/>
    </contour>
  </outline>
</glyph>
<glyph name="copyright" format="2">
  <advance width="600"/>
  <unicode hex="00A9"/>
  <outline>
    <contour>
      <point x="301" y="759" type="curve" smooth="yes"/>
      <point x="486" y="759"/>
      <point x="591" y="611"/>
      <point x="591" y="424" type="curve" smooth="yes"/>
      <point x="591" y="239"/>
      <point x="486" y="92"/>
      <point x="301" y="92" type="curve" smooth="yes"/>
      <point x="111" y="92"/>
      <point x="9" y="239"/>
      <point x="9" y="424" type="curve" smooth="yes"/>
      <point x="9" y="611"/>
      <point x="116" y="759"/>
    </contour>
    <contour>
      <point x="301" y="689" type="curve" smooth="yes"/>
      <point x="156" y="689"/>
      <point x="92" y="570"/>
      <point x="92" y="424" type="curve" smooth="yes"/>
      <point x="92" y="279"/>
      <point x="156" y="161"/>
      <point x="301" y="161" type="curve" smooth="yes"/>
      <point x="445" y="161"/>
      <point x="509" y="279"/>
      <point x="509" y="424" type="curve" smooth="yes"/>
      <point x="509" y="570"/>
      <point x="446" y="689"/>
    </contour>
    <contour>
      <point x="310" y="622" type="curve" smooth="yes"/>
      <point x="359" y="622"/>
      <point x="394" y="607"/>
      <point x="426" y="574" type="curve"/>
      <point x="377" y="514" type="line"/>
      <point x="359" y="528"/>
      <point x="343" y="536"/>
      <point x="321" y="536" type="curve" smooth="yes"/>
      <point x="282" y="536"/>
      <point x="254" y="506"/>
      <point x="254" y="425" type="curve" smooth="yes"/>
      <point x="254" y="346"/>
      <point x="280" y="316"/>
      <point x="321" y="316" type="curve" smooth="yes"/>
      <point x="348" y="316"/>
      <point x="369" y="328"/>
      <point x="386" y="343" type="curve"/>
      <point x="431" y="277" type="line"/>
      <point x="400" y="249"/>
      <point x="361" y="228"/>
      <point x="311" y="228" type="curve" smooth="yes"/>
      <point x="206" y="228"/>
      <point x="141" y="298"/>
      <point x="141" y="425" type="curve" smooth="yes"/>
      <point x="141" y="548"/>
      <point x="211" y="622"/>
    </contour>
  </outline>
</glyph>
<glyph name="ordfeminine" format="2">
  <advance width="600"/>
  <unicode hex="00AA"/>
  <outline>
    <contour>
      <point x="291" y="759" type="curve" smooth="yes"/>
      <point x="429" y="759"/>
      <point x="482" y="705"/>
      <point x="482" y="606" type="curve" smooth="yes"/>
      <point x="482" y="442" type="line" smooth="yes"/>
      <point x="482" y="413"/>
      <point x="491" y="401"/>
      <point x="512" y="394" type="curve"/>
      <point x="482" y="306" type="line"/>
      <point x="424" y="312"/>
      <point x="390" y="328"/>
      <point x="370" y="364" type="curve"/>
      <point x="337" y="325"/>
      <point x="289" y="304"/>
      <point x="236" y="304" type="curve" smooth="yes"/>
      <point x="145" y="304"/>
      <point x="84" y="361"/>
      <point x="84" y="443" type="curve" smooth="yes"/>
      <point x="84" y="534"/>
      <point x="162" y="590"/>
      <point x="301" y="590" type="curve" smooth="yes"/>
      <point x="354" y="590" type="line"/>
      <point x="354" y="602" type="line" smooth="yes"/>
      <point x="354" y="649"/>
      <point x="330" y="661"/>
      <point x="271" y="661" type="curve" smooth="yes"/>
      <point x="246" y="661"/>
      <point x="201" y="654"/>
      <point x="154" y="638" type="curve"/>
      <point x="121" y="728" type="line"/>
      <point x="182" y="749"/>
      <point x="245" y="759"/>
    </contour>
    <contour>
      <point x="354" y="507" type="line"/>
      <point x="322" y="507" type="line" smooth="yes"/>
      <point x="252" y="507"/>
      <point x="226" y="488"/>
      <point x="226" y="448" type="curve" smooth="yes"/>
      <point x="226" y="414"/>
      <point x="243" y="397"/>
      <point x="276" y="397" type="curve" smooth="yes"/>
      <point x="305" y="397"/>
      <point x="334" y="415"/>
      <point x="354" y="444" type="curve"/>
    </contour>
    <contour>
      <point x="514" y="108" type="line"/>
      <point x="514" y="0" type="line"/>
      <point x="100" y="0" type="line"/>
      <point x="100" y="108" type="line"/>
    </contour>
  </outline>
</glyph>
<glyph name="guillemotleft" format="2">
  <advance width="600"/>
  <unicode hex="00AB"/>
  <outline>
    <contour>
      <point x="313" y="74" type="line"/>
      <point x="222" y="17" type="line"/>
      <point x="52" y="237" type="line"/>
      <point x="52" y="337" type="line"/>
      <point x="222" y="556" type="line"/>
      <point x="313" y="499" type="line"/>
      <point x="197" y="287" type="line"/>
    </contour>
    <contour>
      <point x="548" y="74" type="line"/>
      <point x="457" y="17" type="line"/>
      <point x="286" y="237" type="line"/>
      <point x="286" y="337" type="line"/>
      <point x="457" y="556" type="line"/>
      <point x="548" y="499" type="line"/>
      <point x="433" y="287" type="line"/>
    </contour>
  </outline>
</glyph>
<glyph name="logicalnot" format="2">
  <advance width="600"/>
  <unicode hex="00AC"/>
  <outline>
    <contour>
      <point x="517" y="379" type="line"/>
      <point x="517" y="104" type="line"/>
      <point x="387" y="104" type="line"/>
      <point x="387" y="258" type="line"/>
      <point x="83" y="258" type="line"/>
      <point x="83" y="379" type="line"/>
    </contour>
  </outline>
</glyph>
<glyph name="registered" format="2">
  <advance width="600"/>
  <unicode hex="00AE"/>
  <outline>
    <contour>
      <point x="301" y="759" type="curve" smooth="yes"/>
      <point x="457" y="759"/>
      <point x="574" y="640"/>
      <point x="574" y="484" type="curve" smooth="yes"/>
      <point x="574" y="330"/>
      <point x="457" y="212"/>
      <point x="301" y="212" type="curve" smooth="yes"/>
      <point x="143" y="212"/>
      <point x="25" y="330"/>
      <point x="25" y="484" type="curve" smooth="yes"/>
      <point x="25" y="640"/>
      <point x="143" y="759"/>
    </contour>
    <contour>
      <point x="301" y="692" type="curve" smooth="yes"/>
      <point x="186" y="692"/>
      <point x="102" y="602"/>
      <point x="102" y="484" type="curve" smooth="yes"/>
      <point x="102" y="367"/>
      <point x="186" y="279"/>
      <point x="301" y="279" type="curve" smooth="yes"/>
      <point x="415" y="279"/>
      <point x="497" y="367"/>
      <point x="497" y="484" type="curve" smooth="yes"/>
      <point x="497" y="602"/>
      <point x="415" y="692"/>
    </contour>
    <contour>
      <point x="280" y="635" type="line" smooth="yes"/>
      <point x="369" y="635"/>
      <point x="414" y="607"/>
      <point x="414" y="547" type="curve" smooth="yes"/>
      <point x="414" y="509"/>
      <point x="390" y="482"/>
      <point x="356" y="469" type="curve"/>
      <point x="433" y="351" type="line"/>
      <point x="350" y="351" type="line"/>
      <point x="288" y="454" type="line"/>
      <point x="265" y="454" type="line"/>
      <point x="265" y="351" type="line"/>
      <point x="193" y="351" type="line"/>
      <point x="193" y="635" type="line"/>
    </contour>
    <contour>
      <point x="287" y="581" type="curve" smooth="yes"/>
      <point x="265" y="581" type="line"/>
      <point x="265" y="512" type="line"/>
      <point x="288" y="512" type="line" smooth="yes"/>
      <point x="321" y="512"/>
      <point x="340" y="523"/>
      <point x="340" y="549" type="curve" smooth="yes"/>
      <point x="340" y="570"/>
      <point x="324" y="581"/>
    </contour>
  </outline>
</glyph>
<glyph name="macron" format="2">
  <advance width="600"/>
  <unicode hex="00AF"/>
  <outline>
    <contour>
      <point x="453" y="658" type="line"/>
      <point x="147" y="658" type="line"/>
      <point x="147" y="767" type="line"/>
      <point x="453" y="767" type="line"/>
    </contour>
  </outline>
</glyph>
<glyph name="degree" format="2">
  <advance width="600"/>
  <unicode hex="00B0"/>
  <outline>
    <contour>
      <point x="249" y="759" type="curve" smooth="yes"/>
      <point x="337" y="759"/>
      <point x="428" y="697"/>
      <point x="428" y="590" type="curve" smooth="yes"/>
      <point x="428" y="483"/>
      <point x="337" y="419"/>
      <point x="249" y="419" type="curve" smooth="yes"/>
      <point x="162" y="419"/>
      <point x="71" y="483"/>
      <point x="71" y="590" type="curve" smooth="yes"/>
      <point x="71" y="697"/>
      <point x="162" y="759"/>
    </contour>
    <contour>
      <point x="249" y="668" type="curve" smooth="yes"/>
      <point x="207" y="668"/>
      <point x="180" y="638"/>
      <point x="180" y="590" type="curve" smooth="yes"/>
      <point x="180" y="543"/>
      <point x="207" y="512"/>
      <point x="249" y="512" type="curve" smooth="yes"/>
      <point x="292" y="512"/>
      <point x="319" y="543"/>
      <point x="319" y="590" type="curve" smooth="yes"/>
      <point x="319" y="638"/>
      <point x="292" y="668"/>
    </contour>
  </outline>
</glyph>
<glyph name="plusminus" format="2">
  <advance width="600"/>
  <unicode hex="00B1"/>
  <outline>
    <contour>
      <point x="366" y="558" type="line"/>
      <point x="366" y="402" type="line"/>
      <point x="517" y="402" type="line"/>
      <point x="517" y="282" type="line"/>
      <point x="366" y="282" type="line"/>
      <point x="366" y="175" type="line"/>
      <point x="234" y="175" type="line"/>
      <point x="234" y="282" type="line"/>
      <point x="83" y="282" type="line"/>
      <point x="83" y="402" type="line"/>
      <point x="234" y="402" type="line"/>
      <point x="234" y="558" type="line"/>
    </contour>
    <contour>
      <point x="517" y="120" type="line"/>
      <point x="517" y="0" type="line"/>
      <point x="83" y="0" type="line"/>
      <point x="83" y="120" type="line"/>
    </contour>
  </outline>
</glyph>
<glyph name="uni00B2" format="2">
  <advance width="600"/>
  <unicode hex="00B2"/>
  <outline>
    <contour>
      <point x="443" y="538" type="curve" smooth="yes"/>
      <point x="443" y="481"/>
      <point x="411" y="446"/>
      <point x="300" y="397" type="curve"/>
      <point x="455" y="397" type="line"/>
      <point x="442" y="315" type="line"/>
      <point x="157" y="315" type="line"/>
      <point x="157" y="388" type="line"/>
      <point x="302" y="468"/>
      <point x="324" y="491"/>
      <point x="324" y="524" type="curve" smooth="yes"/>
      <point x="324" y="545"/>
      <point x="309" y="560"/>
      <point x="283" y="560" type="curve" smooth="yes"/>
      <point x="258" y="560"/>
      <point x="239" y="551"/>
      <point x="216" y="524" type="curve"/>
      <point x="145" y="576" type="line"/>
      <point x="185" y="620"/>
      <point x="237" y="642"/>
      <point x="301" y="642" type="curve" smooth="yes"/>
      <point x="394" y="642"/>
      <point x="443" y="594"/>
    </contour>
  </outline>
</glyph>
<glyph name="uni00B3" format="2">
  <advance width="600"/>
  <unicode hex="00B3"/>
  <outline>
    <contour>
      <point x="306" y="642" type="curve" smooth="yes"/>
      <point x="396" y="642"/>
      <point x="446" y="605"/>
      <point x="446" y="553" type="curve" smooth="yes"/>
      <point x="446" y="514"/>
      <point x="423" y="493"/>
      <point x="377" y="483" type="curve"/>
      <point x="434" y="474"/>
      <point x="461" y="454"/>
      <point x="461" y="408" type="curve" smooth="yes"/>
      <point x="461" y="347"/>
      <point x="397" y="309"/>
      <point x="296" y="309" type="curve" smooth="yes"/>
      <point x="236" y="309"/>
      <point x="175" y="324"/>
      <point x="135" y="364" type="curve"/>
      <point x="200" y="419" type="line"/>
      <point x="230" y="397"/>
      <point x="256" y="388"/>
      <point x="292" y="388" type="curve" smooth="yes"/>
      <point x="326" y="388"/>
      <point x="343" y="400"/>
      <point x="343" y="420" type="curve" smooth="yes"/>
      <point x="343" y="437"/>
      <point x="331" y="448"/>
      <point x="293" y="448" type="curve" smooth="yes"/>
      <point x="241" y="448" type="line"/>
      <point x="253" y="513" type="line"/>
      <point x="293" y="513" type="line" smooth="yes"/>
      <point x="318" y="513"/>
      <point x="331" y="523"/>
      <point x="331" y="536" type="curve" smooth="yes"/>
      <point x="331" y="554"/>
      <point x="319" y="563"/>
      <point x="292" y="563" type="curve" smooth="yes"/>
      <point x="259" y="563"/>
      <point x="236" y="556"/>
      <point x="203" y="534" type="curve"/>
      <point x="146" y="591" type="line"/>
      <point x="190" y="626"/>
      <point x="242" y="642"/>
    </contour>
  </outline>
</glyph>
<glyph name="paragraph" format="2">
  <advance width="600"/>
  <unicode hex="00B6"/>
  <outline>
    <contour>
      <point x="581" y="693" type="line"/>
      <point x="581" y="-210" type="line"/>
      <point x="449" y="-221" type="line"/>
      <point x="449" y="586" type="line"/>
      <point x="366" y="586" type="line"/>
      <point x="366" y="-210" type="line"/>
      <point x="234" y="-221" type="line"/>
      <point x="234" y="265" type="line"/>
      <point x="91" y="277"/>
      <point x="19" y="356"/>
      <point x="19" y="478" type="curve" smooth="yes"/>
      <point x="19" y="603"/>
      <point x="104" y="693"/>
      <point x="271" y="693" type="curve" smooth="yes"/>
    </contour>
  </outline>
</glyph>
<glyph name="cedilla" format="2">
  <advance width="600"/>
  <unicode hex="00B8"/>
  <outline>
    <contour>
      <point x="320" y="-145" type="curve" smooth="yes"/>
      <point x="320" y="-119"/>
      <point x="289" y="-112"/>
      <point x="228" y="-112" type="curve"/>
      <point x="242" y="16" type="line"/>
      <point x="330" y="16" type="line"/>
      <point x="330" y="-48" type="line"/>
      <point x="400" y="-56"/>
      <point x="433" y="-93"/>
      <point x="433" y="-147" type="curve" smooth="yes"/>
      <point x="433" y="-215"/>
      <point x="374" y="-262"/>
      <point x="284" y="-262" type="curve" smooth="yes"/>
      <point x="236" y="-262"/>
      <point x="194" y="-248"/>
      <point x="167" y="-232" type="curve"/>
      <point x="203" y="-159" type="line"/>
      <point x="223" y="-169"/>
      <point x="245" y="-176"/>
      <point x="267" y="-176" type="curve" smooth="yes"/>
      <point x="299" y="-176"/>
      <point x="320" y="-168"/>
    </contour>
  </outline>
</glyph>
<glyph name="uni00B9" format="2">
  <advance width="600"/>
  <unicode hex="00B9"/>
  <outline>
    <contour>
      <point x="310" y="315" type="line"/>
      <point x="310" y="526" type="line"/>
      <point x="231" y="485" type="line"/>
      <point x="179" y="557" type="line"/>
      <point x="327" y="636" type="line"/>
      <point x="422" y="636" type="line"/>
      <point x="422" y="315" type="line"/>
    </contour>
  </outline>
</glyph>
<glyph name="ordmasculine" format="2">
  <advance width="600"/>
  <unicode hex="00BA"/>
  <outline>
    <contour>
      <point x="300" y="759" type="curve" smooth="yes"/>
      <point x="438" y="759"/>
      <point x="522" y="662"/>
      <point x="522" y="532" type="curve" smooth="yes"/>
      <point x="522" y="397"/>
      <point x="438" y="304"/>
      <point x="300" y="304" type="curve" smooth="yes"/>
      <point x="161" y="304"/>
      <point x="78" y="396"/>
      <point x="78" y="532" type="curve" smooth="yes"/>
      <point x="78" y="661"/>
      <point x="162" y="759"/>
    </contour>
    <contour>
      <point x="300" y="661" type="curve" smooth="yes"/>
      <point x="248" y="661"/>
      <point x="217" y="624"/>
      <point x="217" y="532" type="curve" smooth="yes"/>
      <point x="217" y="439"/>
      <point x="248" y="403"/>
      <point x="300" y="403" type="curve" smooth="yes"/>
      <point x="352" y="403"/>
      <point x="383" y="439"/>
      <point x="383" y="532" type="curve" smooth="yes"/>
      <point x="383" y="624"/>
      <point x="352" y="661"/>
    </contour>
    <contour>
      <point x="507" y="108" type="line"/>
      <point x="507" y="0" type="line"/>
      <point x="93" y="0" type="line"/>
      <point x="93" y="108" type="line"/>
    </contour>
  </outline>
</glyph>
<glyph name="guillemotright" format="2">
  <advance width="600"/>
  <unicode hex="00BB"/>
  <outline>
    <contour>
      <point x="167" y="287" type="line"/>
      <point x="52" y="499" type="line"/>
      <point x="143" y="556" type="line"/>
      <point x="313" y="337" type="line"/>
      <point x="313" y="237" type="line"/>
      <point x="143" y="17" type="line"/>
      <point x="52" y="74" type="line"/>
    </contour>
    <contour>
      <point x="402" y="287" type="line"/>
      <point x="286" y="499" type="line"/>
      <point x="377" y="556" type="line"/>
      <point x="548" y="337" type="line"/>
      <point x="548" y="237" type="line"/>
      <point x="377" y="17" type="line"/>
      <point x="286" y="74" type="line"/>
    </contour>
  </outline>
</glyph>
<glyph name="onequarter" format="2">
  <advance width="600"/>
  <unicode hex="00BC"/>
  <outline>
    <contour>
      <point x="114" y="371" type="line"/>
      <point x="114" y="582" type="line"/>
      <point x="35" y="541" type="line"/>
      <point x="-17" y="613" type="line"/>
      <point x="131" y="692" type="line"/>
      <point x="226" y="692" type="line"/>
      <point x="226" y="371" type="line"/>
    </contour>
    <contour>
      <point x="56" y="175" type="line"/>
      <point x="14" y="251" type="line"/>
      <point x="549" y="507" type="line"/>
      <point x="590" y="431" type="line"/>
    </contour>
    <contour>
      <point x="574" y="56" type="line"/>
      <point x="574" y="0" type="line"/>
      <point x="470" y="0" type="line"/>
      <point x="470" y="56" type="line"/>
      <point x="289" y="56" type="line"/>
      <point x="289" y="122" type="line"/>
      <point x="410" y="330" type="line"/>
      <point x="505" y="298" type="line"/>
      <point x="406" y="131" type="line"/>
      <point x="472" y="131" type="line"/>
      <point x="487" y="210" type="line"/>
      <point x="574" y="210" type="line"/>
      <point x="574" y="131" type="line"/>
      <point x="618" y="131" type="line"/>
      <point x="618" y="56" type="line"/>
    </contour>
  </outline>
</glyph>
<glyph name="onehalf" format="2">
  <advance width="600"/>
  <unicode hex="00BD"/>
  <outline>
    <contour>
      <point x="111" y="371" type="line"/>
      <point x="111" y="582" type="line"/>
      <point x="32" y="541" type="line"/>
      <point x="-20" y="613" type="line"/>
      <point x="128" y="692" type="line"/>
      <point x="223" y="692" type="line"/>
      <point x="223" y="371" type="line"/>
    </contour>
    <contour>
      <point x="52" y="175" type="line"/>
      <point x="10" y="251" type="line"/>
      <point x="545" y="507" type="line"/>
      <point x="586" y="431" type="line"/>
    </contour>
    <contour>
      <point x="608" y="223" type="curve" smooth="yes"/>
      <point x="608" y="166"/>
      <point x="575" y="131"/>
      <point x="465" y="82" type="curve"/>
      <point x="620" y="82" type="line"/>
      <point x="607" y="0" type="line"/>
      <point x="322" y="0" type="line"/>
      <point x="322" y="73" type="line"/>
      <point x="467" y="153"/>
      <point x="489" y="176"/>
      <point x="489" y="209" type="curve" smooth="yes"/>
      <point x="489" y="230"/>
      <point x="474" y="245"/>
      <point x="448" y="245" type="curve" smooth="yes"/>
      <point x="423" y="245"/>
      <point x="404" y="236"/>
      <point x="381" y="209" type="curve"/>
      <point x="310" y="261" type="line"/>
      <point x="350" y="305"/>
      <point x="402" y="327"/>
      <point x="466" y="327" type="curve" smooth="yes"/>
      <point x="559" y="327"/>
      <point x="608" y="279"/>
    </contour>
  </outline>
</glyph>
<glyph name="threequarters" format="2">
  <advance width="600"/>
  <unicode hex="00BE"/>
  <outline>
    <contour>
      <point x="157" y="698" type="curve" smooth="yes"/>
      <point x="247" y="698"/>
      <point x="297" y="661"/>
      <point x="297" y="609" type="curve" smooth="yes"/>
      <point x="297" y="570"/>
      <point x="274" y="549"/>
      <point x="228" y="539" type="curve"/>
      <point x="285" y="530"/>
      <point x="312" y="510"/>
      <point x="312" y="464" type="curve" smooth="yes"/>
      <point x="312" y="403"/>
      <point x="248" y="365"/>
      <point x="147" y="365" type="curve" smooth="yes"/>
      <point x="87" y="365"/>
      <point x="26" y="380"/>
      <point x="-14" y="420" type="curve"/>
      <point x="51" y="475" type="line"/>
      <point x="81" y="453"/>
      <point x="107" y="444"/>
      <point x="143" y="444" type="curve" smooth="yes"/>
      <point x="177" y="444"/>
      <point x="194" y="456"/>
      <point x="194" y="476" type="curve" smooth="yes"/>
      <point x="194" y="493"/>
      <point x="182" y="504"/>
      <point x="144" y="504" type="curve" smooth="yes"/>
      <point x="92" y="504" type="line"/>
      <point x="104" y="569" type="line"/>
      <point x="144" y="569" type="line" smooth="yes"/>
      <point x="169" y="569"/>
      <point x="182" y="579"/>
      <point x="182" y="592" type="curve" smooth="yes"/>
      <point x="182" y="610"/>
      <point x="170" y="619"/>
      <point x="143" y="619" type="curve" smooth="yes"/>
      <point x="110" y="619"/>
      <point x="87" y="612"/>
      <point x="54" y="590" type="curve"/>
      <point x="-3" y="647" type="line"/>
      <point x="41" y="682"/>
      <point x="93" y="698"/>
    </contour>
    <contour>
      <point x="61" y="175" type="line"/>
      <point x="19" y="251" type="line"/>
      <point x="554" y="507" type="line"/>
      <point x="595" y="431" type="line"/>
    </contour>
    <contour>
      <point x="571" y="56" type="line"/>
      <point x="571" y="0" type="line"/>
      <point x="467" y="0" type="line"/>
      <point x="467" y="56" type="line"/>
      <point x="286" y="56" type="line"/>
      <point x="286" y="122" type="line"/>
      <point x="407" y="330" type="line"/>
      <point x="502" y="298" type="line"/>
      <point x="403" y="131" type="line"/>
      <point x="469" y="131" type="line"/>
      <point x="484" y="210" type="line"/>
      <point x="571" y="210" type="line"/>
      <point x="571" y="131" type="line"/>
      <point x="615" y="131" type="line"/>
      <point x="615" y="56" type="line"/>
    </contour>
  </outline>
</glyph>
<glyph name="questiondown" format="2">
  <advance width="600"/>
  <unicode hex="00BF"/>
  <outline>
    <contour>
      <point x="317" y="512" type="curve" smooth="yes"/>
      <point x="367" y="512"/>
      <point x="408" y="470"/>
      <point x="408" y="420" type="curve" smooth="yes"/>
      <point x="408" y="372"/>
      <point x="367" y="331"/>
      <point x="317" y="331" type="curve" smooth="yes"/>
      <point x="267" y="331"/>
      <point x="227" y="372"/>
      <point x="227" y="420" type="curve" smooth="yes"/>
      <point x="227" y="470"/>
      <point x="267" y="512"/>
    </contour>
    <contour>
      <point x="390" y="240" type="line"/>
      <point x="390" y="207" type="line" smooth="yes"/>
      <point x="390" y="37"/>
      <point x="226" y="43"/>
      <point x="226" y="-40" type="curve" smooth="yes"/>
      <point x="226" y="-77"/>
      <point x="259" y="-97"/>
      <point x="306" y="-97" type="curve" smooth="yes"/>
      <point x="351" y="-97"/>
      <point x="394" y="-77"/>
      <point x="431" y="-37" type="curve"/>
      <point x="531" y="-114" type="line"/>
      <point x="474" y="-181"/>
      <point x="396" y="-222"/>
      <point x="290" y="-222" type="curve" smooth="yes"/>
      <point x="139" y="-222"/>
      <point x="61" y="-143"/>
      <point x="61" y="-54" type="curve" smooth="yes"/>
      <point x="61" y="108"/>
      <point x="247" y="96"/>
      <point x="247" y="219" type="curve" smooth="yes"/>
      <point x="247" y="240" type="line"/>
    </contour>
  </outline>
</glyph>
<glyph name="Agrave" format="2">
  <advance width="600"/>
  <unicode hex="00C0"/>
  <outline>
    <contour>
      <point x="222" y="953" type="line"/>
      <point x="437" y="831" type="line"/>
      <point x="400" y="751" type="line"/>
      <point x="162" y="835" type="line"/>
    </contour>
    <contour>
      <point x="400" y="150" type="line"/>
      <point x="197" y="150" type="line"/>
      <point x="161" y="0" type="line"/>
      <point x="-11" y="0" type="line"/>
      <point x="201" y="693" type="line"/>
      <point x="400" y="693" type="line"/>
      <point x="612" y="0" type="line"/>
      <point x="436" y="0" type="line"/>
    </contour>
    <contour>
      <point x="223" y="268" type="line"/>
      <point x="373" y="268" type="line"/>
      <point x="298" y="575" type="line"/>
    </contour>
  </outline>
</glyph>
<glyph name="Atilde" format="2">
  <advance width="600"/>
  <unicode hex="00C3"/>
  <outline>
    <contour>
      <point x="356" y="760" type="curve" smooth="yes"/>
      <point x="298" y="760"/>
      <point x="275" y="805"/>
      <point x="242" y="805" type="curve" smooth="yes"/>
      <point x="217" y="805"/>
      <point x="205" y="790"/>
      <point x="189" y="761" type="curve"/>
      <point x="110" y="799" type="line"/>
      <point x="135" y="863"/>
      <point x="178" y="917"/>
      <point x="239" y="917" type="curve" smooth="yes"/>
      <point x="300" y="917"/>
      <point x="321" y="872"/>
      <point x="355" y="872" type="curve" smooth="yes"/>
      <point x="377" y="872"/>
      <point x="390" y="886"/>
      <point x="407" y="915" type="curve"/>
      <point x="486" y="877" type="line"/>
      <point x="460" y="810"/>
      <point x="416" y="760"/>
    </contour>
    <contour>
      <point x="400" y="150" type="line"/>
      <point x="197" y="150" type="line"/>
      <point x="161" y="0" type="line"/>
      <point x="-11" y="0" type="line"/>
      <point x="201" y="693" type="line"/>
      <point x="400" y="693" type="line"/>
      <point x="612" y="0" type="line"/>
      <point x="436" y="0" type="line"/>
    </contour>
    <contour>
      <point x="223" y="268" type="line"/>
      <point x="373" y="268" type="line"/>
      <point x="298" y="575" type="line"/>
    </contour>
  </outline>
</glyph>
<glyph name="Aring" format="2">
  <advance width="600"/>
  <unicode hex="00C5"/>
  <outline>
    <contour>
      <point x="299" y="990" type="curve" smooth="yes"/>
      <point x="385" y="990"/>
      <point x="438" y="929"/>
      <point x="438" y="859" type="curve" smooth="yes"/>
      <point x="438" y="788"/>
      <point x="385" y="726"/>
      <point x="299" y="726" type="curve" smooth="yes"/>
      <point x="214" y="726"/>
      <point x="161" y="788"/>
      <point x="161" y="859" type="curve" smooth="yes"/>
      <point x="161" y="929"/>
      <point x="214" y="990"/>
    </contour>
    <contour>
      <point x="299" y="908" type="curve" smooth="yes"/>
      <point x="273" y="908"/>
      <point x="255" y="892"/>
      <point x="255" y="859" type="curve" smooth="yes"/>
      <point x="255" y="825"/>
      <point x="273" y="808"/>
      <point x="299" y="808" type="curve" smooth="yes"/>
      <point x="326" y="808"/>
      <point x="344" y="825"/>
      <point x="344" y="859" type="curve" smooth="yes"/>
      <point x="344" y="892"/>
      <point x="326" y="908"/>
    </contour>
    <contour>
      <point x="400" y="150" type="line"/>
      <point x="197" y="150" type="line"/>
      <point x="161" y="0" type="line"/>
      <point x="-11" y="0" type="line"/>
      <point x="201" y="693" type="line"/>
      <point x="400" y="693" type="line"/>
      <point x="612" y="0" type="line"/>
      <point x="436" y="0" type="line"/>
    </contour>
    <contour>
      <point x="223" y="268" type="line"/>
      <point x="373" y="268" type="line"/>
      <point x="298" y="575" type="line"/>
    </contour>
  </outline>
</glyph>
<glyph name="Ccedilla" format="2">
  <advance width="600"/>
  <unicode hex="00C7"/>
  <outline>
    <contour>
      <point x="382" y="-48" type="line"/>
      <point x="452" y="-56"/>
      <point x="485" y="-93"/>
      <point x="485" y="-147" type="curve" smooth="yes"/>
      <point x="485" y="-215"/>
      <point x="426" y="-262"/>
      <point x="336" y="-262" type="curve" smooth="yes"/>
      <point x="288" y="-262"/>
      <point x="246" y="-248"/>
      <point x="219" y="-232" type="curve"/>
      <point x="255" y="-159" type="line"/>
      <point x="275" y="-169"/>
      <point x="297" y="-176"/>
      <point x="319" y="-176" type="curve" smooth="yes"/>
      <point x="351" y="-176"/>
      <point x="372" y="-168"/>
      <point x="372" y="-145" type="curve" smooth="yes"/>
      <point x="372" y="-119"/>
      <point x="341" y="-112"/>
      <point x="280" y="-112" type="curve"/>
      <point x="291" y="-11" type="line"/>
      <point x="138" y="15"/>
      <point x="34" y="139"/>
      <point x="34" y="348" type="curve" smooth="yes"/>
      <point x="34" y="580"/>
      <point x="175" y="711"/>
      <point x="358" y="711" type="curve" smooth="yes"/>
      <point x="458" y="711"/>
      <point x="522" y="683"/>
      <point x="580" y="635" type="curve"/>
      <point x="500" y="538" type="line"/>
      <point x="462" y="569"/>
      <point x="416" y="589"/>
      <point x="362" y="589" type="curve" smooth="yes"/>
      <point x="274" y="589"/>
      <point x="204" y="518"/>
      <point x="204" y="348" type="curve" smooth="yes"/>
      <point x="204" y="181"/>
      <point x="270" y="110"/>
      <point x="365" y="110" type="curve" smooth="yes"/>
      <point x="434" y="110"/>
      <point x="476" y="141"/>
      <point x="515" y="172" type="curve"/>
      <point x="589" y="77" type="line"/>
      <point x="542" y="29"/>
      <point x="475" y="-10"/>
      <point x="382" y="-16" type="curve"/>
    </contour>
  </outline>
</glyph>
<glyph name="Ecircumflex" format="2">
  <advance width="600"/>
  <unicode hex="00CA"/>
  <outline>
    <contour>
      <point x="368" y="943" type="line"/>
      <point x="509" y="813" type="line"/>
      <point x="453" y="748" type="line"/>
      <point x="320" y="833" type="line"/>
      <point x="187" y="748" type="line"/>
      <point x="130" y="813" type="line"/>
      <point x="272" y="943" type="line"/>
    </contour>
    <contour>
      <point x="257" y="576" type="line"/>
      <point x="257" y="409" type="line"/>
      <point x="497" y="409" type="line"/>
      <point x="497" y="295" type="line"/>
      <point x="257" y="295" type="line"/>
      <point x="257" y="118" type="line"/>
      <point x="546" y="118" type="line"/>
      <point x="546" y="0" type="line"/>
      <point x="93" y="0" type="line"/>
      <point x="93" y="693" type="line"/>
      <point x="546" y="693" type="line"/>
      <point x="529" y="576" type="line"/>
    </contour>
  </outline>
</glyph>
<glyph name="Edieresis" format="2">
  <advance width="600"/>
  <unicode hex="00CB"/>
  <outline>
    <contour>
      <point x="204" y="762" type="curve" smooth="yes"/>
      <point x="159" y="762"/>
      <point x="122" y="797"/>
      <point x="122" y="843" type="curve" smooth="yes"/>
      <point x="122" y="887"/>
      <point x="159" y="922"/>
      <point x="204" y="922" type="curve" smooth="yes"/>
      <point x="251" y="922"/>
      <point x="287" y="887"/>
      <point x="287" y="843" type="curve" smooth="yes"/>
      <point x="287" y="797"/>
      <point x="251" y="762"/>
    </contour>
    <contour>
      <point x="436" y="762" type="curve" smooth="yes"/>
      <point x="391" y="762"/>
      <point x="353" y="797"/>
      <point x="353" y="843" type="curve" smooth="yes"/>
      <point x="353" y="887"/>
      <point x="391" y="922"/>
      <point x="436" y="922" type="curve" smooth="yes"/>
      <point x="482" y="922"/>
      <point x="518" y="887"/>
      <point x="518" y="843" type="curve" smooth="yes"/>
      <point x="518" y="797"/>
      <point x="482" y="762"/>
    </contour>
    <contour>
      <point x="257" y="576" type="line"/>
      <point x="257" y="409" type="line"/>
      <point x="497" y="409" type="line"/>
      <point x="497" y="295" type="line"/>
      <point x="257" y="295" type="line"/>
      <point x="257" y="118" type="line"/>
      <point x="546" y="118" type="line"/>
      <point x="546" y="0" type="line"/>
      <point x="93" y="0" type="line"/>
      <point x="93" y="693" type="line"/>
      <point x="546" y="693" type="line"/>
      <point x="529" y="576" type="line"/>
    </contour>
  </outline>
</glyph>
<glyph name="Igrave" format="2">
  <advance width="600"/>
  <unicode hex="00CC"/>
  <outline>
    <contour>
      <point x="222" y="953" type="line"/>
      <point x="437" y="831" type="line"/>
      <point x="400" y="751" type="line"/>
      <point x="162" y="835" type="line"/>
    </contour>
    <contour>
      <point x="525" y="693" type="line"/>
      <point x="525" y="573" type="line"/>
      <point x="382" y="573" type="line"/>
      <point x="382" y="121" type="line"/>
      <point x="525" y="121" type="line"/>
      <point x="525" y="0" type="line"/>
      <point x="75" y="0" type="line"/>
      <point x="75" y="121" type="line"/>
      <point x="218" y="121" type="line"/>
      <point x="218" y="573" type="line"/>
      <point x="75" y="573" type="line"/>
      <point x="75" y="693" type="line"/>
    </contour>
  </outline>
</glyph>
<glyph name="Eth" format="2">
  <advance width="600"/>
  <unicode hex="00D0"/>
  <outline>
    <contour>
      <point x="240" y="693" type="line" smooth="yes"/>
      <point x="418" y="693"/>
      <point x="587" y="636"/>
      <point x="587" y="350" type="curve" smooth="yes"/>
      <point x="587" y="68"/>
      <point x="424" y="0"/>
      <point x="252" y="0" type="curve" smooth="yes"/>
      <point x="65" y="0" type="line"/>
      <point x="65" y="303" type="line"/>
      <point x="9" y="303" type="line"/>
      <point x="9" y="403" type="line"/>
      <point x="65" y="403" type="line"/>
      <point x="65" y="693" type="line"/>
    </contour>
    <contour>
      <point x="264" y="119" type="line" smooth="yes"/>
      <point x="355" y="119"/>
      <point x="417" y="168"/>
      <point x="417" y="350" type="curve" smooth="yes"/>
      <point x="417" y="536"/>
      <point x="351" y="574"/>
      <point x="264" y="574" type="curve" smooth="yes"/>
      <point x="229" y="574" type="line"/>
      <point x="229" y="403" type="line"/>
      <point x="349" y="403" type="line"/>
      <point x="349" y="303" type="line"/>
      <point x="229" y="303" type="line"/>
      <point x="229" y="119" type="line"/>
    </contour>
  </outline>
</glyph>
<glyph name="Ntilde" format="2">
  <advance width="600"/>
  <unicode hex="00D1"/>
  <outline>
    <contour>
      <point x="366" y="760" type="curve" smooth="yes"/>
      <point x="308" y="760"/>
      <point x="285" y="805"/>
      <point x="252" y="805" type="curve" smooth="yes"/>
      <point x="227" y="805"/>
      <point x="215" y="790"/>
      <point x="199" y="761" type="curve"/>
      <point x="120" y="799" type="line"/>
      <point x="145" y="863"/>
      <point x="188" y="917"/>
      <point x="249" y="917" type="curve" smooth="yes"/>
      <point x="310" y="917"/>
      <point x="331" y="872"/>
      <point x="365" y="872" type="curve" smooth="yes"/>
      <point x="387" y="872"/>
      <point x="400" y="886"/>
      <point x="417" y="915" type="curve"/>
      <point x="496" y="877" type="line"/>
      <point x="470" y="810"/>
      <point x="426" y="760"/>
    </contour>
    <contour>
      <point x="349" y="0" type="line"/>
      <point x="167" y="557" type="line"/>
      <point x="175" y="498"/>
      <point x="191" y="383"/>
      <point x="191" y="261" type="curve" smooth="yes"/>
      <point x="191" y="0" type="line"/>
      <point x="52" y="0" type="line"/>
      <point x="52" y="693" type="line"/>
      <point x="257" y="693" type="line"/>
      <point x="433" y="138" type="line"/>
      <point x="423" y="202"/>
      <point x="409" y="303"/>
      <point x="409" y="428" type="curve" smooth="yes"/>
      <point x="409" y="693" type="line"/>
      <point x="548" y="693" type="line"/>
      <point x="548" y="0" type="line"/>
    </contour>
  </outline>
</glyph>
<glyph name="Ograve" format="2">
  <advance width="600"/>
  <unicode hex="00D2"/>
  <outline>
    <contour>
      <point x="222" y="953" type="line"/>
      <point x="437" y="831" type="line"/>
      <point x="400" y="751" type="line"/>
      <point x="162" y="835" type="line"/>
    </contour>
    <contour>
      <point x="577" y="347" type="curve" smooth="yes"/>
      <point x="577" y="127"/>
      <point x="482" y="-17"/>
      <point x="300" y="-17" type="curve" smooth="yes"/>
      <point x="118" y="-17"/>
      <point x="23" y="122"/>
      <point x="23" y="347" type="curve" smooth="yes"/>
      <point x="23" y="567"/>
      <point x="118" y="711"/>
      <point x="300" y="711" type="curve" smooth="yes"/>
      <point x="482" y="711"/>
      <point x="577" y="572"/>
    </contour>
    <contour>
      <point x="409" y="347" type="curve" smooth="yes"/>
      <point x="409" y="517"/>
      <point x="378" y="591"/>
      <point x="300" y="591" type="curve" smooth="yes"/>
      <point x="222" y="591"/>
      <point x="191" y="517"/>
      <point x="191" y="347" type="curve" smooth="yes"/>
      <point x="191" y="177"/>
      <point x="223" y="103"/>
      <point x="300" y="103" type="curve" smooth="yes"/>
      <point x="380" y="103"/>
      <point x="409" y="179"/>
    </contour>
  </outline>
</glyph>
<glyph name="Ocircumflex" format="2">
  <advance width="600"/>
  <unicode hex="00D4"/>
  <outline>
    <contour>
      <point x="348" y="943" type="line"/>
      <point x="489" y="813" type="line"/>
      <point x="433" y="748" type="line"/>
      <point x="300" y="833" type="line"/>
      <point x="167" y="748" type="line"/>
      <point x="110" y="813" type="line"/>
      <point x="252" y="943" type="line"/>
    </contour>
    <contour>
      <point x="577" y="347" type="curve" smooth="yes"/>
      <point x="577" y="127"/>
      <point x="482" y="-17"/>
      <point x="300" y="-17" type="curve" smooth="yes"/>
      <point x="118" y="-17"/>
      <point x="23" y="122"/>
      <point x="23" y="347" type="curve" smooth="yes"/>
      <point x="23" y="567"/>
      <point x="118" y="711"/>
      <point x="300" y="711" type="curve" smooth="yes"/>
      <point x="482" y="711"/>
      <point x="577" y="572"/>
    </contour>
    <contour>
      <point x="409" y="347" type="curve" smooth="yes"/>
      <point x="409" y="517"/>
      <point x="378" y="591"/>
      <point x="300" y="591" type="curve" smooth="yes"/>
      <point x="222" y="591"/>
      <point x="191" y="517"/>
      <point x="191" y="347" type="curve" smooth="yes"/>
      <point x="191" y="177"/>
      <point x="223" y="103"/>
      <point x="300" y="103" type="curve" smooth="yes"/>
      <point x="380" y="103"/>
      <point x="409" y="179"/>
    </contour>
  </outline>
</glyph>
<glyph name="Otilde" format="2">
  <advance width="600"/>
  <unicode hex="00D5"/>
  <outline>
    <contour>
      <point x="356" y="760" type="curve" smooth="yes"/>
      <point x="298" y="760"/>
      <point x="275" y="805"/>
      <point x="242" y="805" type="curve" smooth="yes"/>
      <point x="217" y="805"/>
      <point x="205" y="790"/>
      <point x="189" y="761" type="curve"/>
      <point x="110" y="799" type="line"/>
      <point x="135" y="863"/>
      <point x="178" y="917"/>
      <point x="239" y="917" type="curve" smooth="yes"/>
      <point x="300" y="917"/>
      <point x="321" y="872"/>
      <point x="355" y="872" type="curve" smooth="yes"/>
      <point x="377" y="872"/>
      <point x="390" y="886"/>
      <point x="407" y="915" type="curve"/>
      <point x="486" y="877" type="line"/>
      <point x="460" y="810"/>
      <point x="416" y="760"/>
    </contour>
    <contour>
      <point x="577" y="347" type="curve" smooth="yes"/>
      <point x="577" y="127"/>
      <point x="482" y="-17"/>
      <point x="300" y="-17" type="curve" smooth="yes"/>
      <point x="118" y="-17"/>
      <point x="23" y="122"/>
      <point x="23" y="347" type="curve" smooth="yes"/>
      <point x="23" y="567"/>
      <point x="118" y="711"/>
      <point x="300" y="711" type="curve" smooth="yes"/>
      <point x="482" y="711"/>
      <point x="577" y="572"/>
    </contour>
    <contour>
      <point x="409" y="347" type="curve" smooth="yes"/>
      <point x="409" y="517"/>
      <point x="378" y="591"/>
      <point x="300" y="591" type="curve" smooth="yes"/>
      <point x="222" y="591"/>
      <point x="191" y="517"/>
      <point x="191" y="347" type="curve" smooth="yes"/>
      <point x="191" y="177"/>
      <point x="223" y="103"/>
      <point x="300" y="103" type="curve" smooth="yes"/>
      <point x="380" y="103"/>
      <point x="409" y="179"/>
    </contour>
  </outline>
</glyph>
<glyph name="Odieresis" format="2">
  <advance width="600"/>
  <unicode hex="00D6"/>
  <outline>
    <contour>
      <point x="184" y="762" type="curve" smooth="yes"/>
      <point x="139" y="762"/>
      <point x="102" y="797"/>
      <point x="102" y="843" type="curve" smooth="yes"/>
      <point x="102" y="887"/>
      <point x="139" y="922"/>
      <point x="184" y="922" type="curve" smooth="yes"/>
      <point x="231" y="922"/>
      <point x="267" y="887"/>
      <point x="267" y="843" type="curve" smooth="yes"/>
      <point x="267" y="797"/>
      <point x="231" y="762"/>
    </contour>
    <contour>
      <point x="416" y="762" type="curve" smooth="yes"/>
      <point x="371" y="762"/>
      <point x="333" y="797"/>
      <point x="333" y="843" type="curve" smooth="yes"/>
      <point x="333" y="887"/>
      <point x="371" y="922"/>
      <point x="416" y="922" type="curve" smooth="yes"/>
      <point x="462" y="922"/>
      <point x="498" y="887"/>
      <point x="498" y="843" type="curve" smooth="yes"/>
      <point x="498" y="797"/>
      <point x="462" y="762"/>
    </contour>
    <contour>
      <point x="577" y="347" type="curve" smooth="yes"/>
      <point x="577" y="127"/>
      <point x="482" y="-17"/>
      <point x="300" y="-17" type="curve" smooth="yes"/>
      <point x="118" y="-17"/>
      <point x="23" y="122"/>
      <point x="23" y="347" type="curve" smooth="yes"/>
      <point x="23" y="567"/>
      <point x="118" y="711"/>
      <point x="300" y="711" type="curve" smooth="yes"/>
      <point x="482" y="711"/>
      <point x="577" y="572"/>
    </contour>
    <contour>
      <point x="409" y="347" type="curve" smooth="yes"/>
      <point x="409" y="517"/>
      <point x="378" y="591"/>
      <point x="300" y="591" type="curve" smooth="yes"/>
      <point x="222" y="591"/>
      <point x="191" y="517"/>
      <point x="191" y="347" type="curve" smooth="yes"/>
      <point x="191" y="177"/>
      <point x="223" y="103"/>
      <point x="300" y="103" type="curve" smooth="yes"/>
      <point x="380" y="103"/>
      <point x="409" y="179"/>
    </contour>
  </outline>
</glyph>
<glyph name="multiply" format="2">
  <advance width="600"/>
  <unicode hex="00D7"/>
  <outline>
    <contour>
      <point x="415" y="509" type="line"/>
      <point x="502" y="422" type="line"/>
      <point x="385" y="307" type="line"/>
      <point x="502" y="192" type="line"/>
      <point x="415" y="105" type="line"/>
      <point x="300" y="222" type="line"/>
      <point x="185" y="105" type="line"/>
      <point x="98" y="192" type="line"/>
      <point x="215" y="307" type="line"/>
      <point x="98" y="422" type="line"/>
      <point x="185" y="509" type="line"/>
      <point x="300" y="392" type="line"/>
    </contour>
  </outline>
</glyph>
<glyph name="Ugrave" format="2">
  <advance width="600"/>
  <unicode hex="00D9"/>
  <outline>
    <contour>
      <point x="222" y="953" type="line"/>
      <point x="437" y="831" type="line"/>
      <point x="400" y="751" type="line"/>
      <point x="162" y="835" type="line"/>
    </contour>
    <contour>
      <point x="558" y="693" type="line"/>
      <point x="558" y="232" type="line" smooth="yes"/>
      <point x="558" y="90"/>
      <point x="472" y="-17"/>
      <point x="300" y="-17" type="curve" smooth="yes"/>
      <point x="127" y="-17"/>
      <point x="42" y="84"/>
      <point x="42" y="232" type="curve" smooth="yes"/>
      <point x="42" y="693" type="line"/>
      <point x="207" y="693" type="line"/>
      <point x="207" y="293" type="line" smooth="yes"/>
      <point x="207" y="169"/>
      <point x="221" y="105"/>
      <point x="300" y="105" type="curve" smooth="yes"/>
      <point x="379" y="105"/>
      <point x="393" y="169"/>
      <point x="393" y="293" type="curve" smooth="yes"/>
      <point x="393" y="693" type="line"/>
    </contour>
  </outline>
</glyph>
<glyph name="Ucircumflex" format="2">
  <advance width="600"/>
  <unicode hex="00DB"/>
  <outline>
    <contour>
      <point x="348" y="943" type="line"/>
      <point x="489" y="813" type="line"/>
      <point x="433" y="748" type="line"/>
      <point x="300" y="833" type="line"/>
      <point x="167" y="748" type="line"/>
      <point x="110" y="813" type="line"/>
      <point x="252" y="943" type="line"/>
    </contour>
    <contour>
      <point x="558" y="693" type="line"/>
      <point x="558" y="232" type="line" smooth="yes"/>
      <point x="558" y="90"/>
      <point x="472" y="-17"/>
      <point x="300" y="-17" type="curve" smooth="yes"/>
      <point x="127" y="-17"/>
      <point x="42" y="84"/>
      <point x="42" y="232" type="curve" smooth="yes"/>
      <point x="42" y="693" type="line"/>
      <point x="207" y="693" type="line"/>
      <point x="207" y="293" type="line" smooth="yes"/>
      <point x="207" y="169"/>
      <point x="221" y="105"/>
      <point x="300" y="105" type="curve" smooth="yes"/>
      <point x="379" y="105"/>
      <point x="393" y="169"/>
      <point x="393" y="293" type="curve" smooth="yes"/>
      <point x="393" y="693" type="line"/>
    </contour>
  </outline>
</glyph>
<glyph name="Udieresis" format="2">
  <advance width="600"/>
  <unicode hex="00DC"/>
  <outline>
    <contour>
      <point x="184" y="762" type="curve" smooth="yes"/>
      <point x="139" y="762"/>
      <point x="102" y="797"/>
      <point x="102" y="843" type="curve" smooth="yes"/>
      <point x="102" y="887"/>
      <point x="139" y="922"/>
      <point x="184" y="922" type="curve" smooth="yes"/>
      <point x="231" y="922"/>
      <point x="267" y="887"/>
      <point x="267" y="843" type="curve" smooth="yes"/>
      <point x="267" y="797"/>
      <point x="231" y="762"/>
    </contour>
    <contour>
      <point x="416" y="762" type="curve" smooth="yes"/>
      <point x="371" y="762"/>
      <point x="333" y="797"/>
      <point x="333" y="843" type="curve" smooth="yes"/>
      <point x="333" y="887"/>
      <point x="371" y="922"/>
      <point x="416" y="922" type="curve" smooth="yes"/>
      <point x="462" y="922"/>
      <point x="498" y="887"/>
      <point x="498" y="843" type="curve" smooth="yes"/>
      <point x="498" y="797"/>
      <point x="462" y="762"/>
    </contour>
    <contour>
      <point x="558" y="693" type="line"/>
      <point x="558" y="232" type="line" smooth="yes"/>
      <point x="558" y="90"/>
      <point x="472" y="-17"/>
      <point x="300" y="-17" type="curve" smooth="yes"/>
      <point x="127" y="-17"/>
      <point x="42" y="84"/>
      <point x="42" y="232" type="curve" smooth="yes"/>
      <point x="42" y="693" type="line"/>
      <point x="207" y="693" type="line"/>
      <point x="207" y="293" type="line" smooth="yes"/>
      <point x="207" y="169"/>
      <point x="221" y="105"/>
      <point x="300" y="105" type="curve" smooth="yes"/>
      <point x="379" y="105"/>
      <point x="393" y="169"/>
      <point x="393" y="293" type="curve" smooth="yes"/>
      <point x="393" y="693" type="line"/>
    </contour>
  </outline>
</glyph>
<glyph name="germandbls" format="2">
  <advance width="600"/>
  <unicode hex="00DF"/>
  <outline>
    <contour>
      <point x="291" y="759" type="curve" smooth="yes"/>
      <point x="420" y="759"/>
      <point x="493" y="690"/>
      <point x="493" y="603" type="curve" smooth="yes"/>
      <point x="493" y="512"/>
      <point x="403" y="493"/>
      <point x="403" y="432" type="curve" smooth="yes"/>
      <point x="403" y="356"/>
      <point x="577" y="342"/>
      <point x="577" y="168" type="curve" smooth="yes"/>
      <point x="577" y="50"/>
      <point x="491" y="-17"/>
      <point x="376" y="-17" type="curve" smooth="yes"/>
      <point x="325" y="-17"/>
      <point x="284" y="-5"/>
      <point x="249" y="14" type="curve"/>
      <point x="299" y="120" type="line"/>
      <point x="320" y="110"/>
      <point x="338" y="105"/>
      <point x="356" y="105" type="curve" smooth="yes"/>
      <point x="395" y="105"/>
      <point x="415" y="127"/>
      <point x="415" y="167" type="curve" smooth="yes"/>
      <point x="415" y="276"/>
      <point x="265" y="273"/>
      <point x="265" y="404" type="curve" smooth="yes"/>
      <point x="265" y="495"/>
      <point x="340" y="524"/>
      <point x="340" y="596" type="curve" smooth="yes"/>
      <point x="340" y="629"/>
      <point x="320" y="648"/>
      <point x="287" y="648" type="curve" smooth="yes"/>
      <point x="238" y="648"/>
      <point x="218" y="612"/>
      <point x="218" y="538" type="curve" smooth="yes"/>
      <point x="218" y="0" type="line"/>
      <point x="60" y="0" type="line"/>
      <point x="60" y="531" type="line" smooth="yes"/>
      <point x="60" y="674"/>
      <point x="139" y="759"/>
    </contour>
  </outline>
</glyph>
<glyph name="ccedilla" format="2">
  <advance width="600"/>
  <unicode hex="00E7"/>
  <outline>
    <contour>
      <point x="368" y="-48" type="line"/>
      <point x="438" y="-56"/>
      <point x="472" y="-93"/>
      <point x="472" y="-147" type="curve" smooth="yes"/>
      <point x="472" y="-215"/>
      <point x="413" y="-262"/>
      <point x="323" y="-262" type="curve" smooth="yes"/>
      <point x="275" y="-262"/>
      <point x="233" y="-248"/>
      <point x="206" y="-232" type="curve"/>
      <point x="242" y="-159" type="line"/>
      <point x="262" y="-169"/>
      <point x="284" y="-176"/>
      <point x="306" y="-176" type="curve" smooth="yes"/>
      <point x="338" y="-176"/>
      <point x="359" y="-168"/>
      <point x="359" y="-145" type="curve" smooth="yes"/>
      <point x="359" y="-119"/>
      <point x="328" y="-112"/>
      <point x="267" y="-112" type="curve"/>
      <point x="278" y="-11" type="line"/>
      <point x="146" y="14"/>
      <point x="69" y="118"/>
      <point x="69" y="262" type="curve" smooth="yes"/>
      <point x="69" y="428"/>
      <point x="175" y="549"/>
      <point x="346" y="549" type="curve" smooth="yes"/>
      <point x="426" y="549"/>
      <point x="487" y="526"/>
      <point x="540" y="482" type="curve"/>
      <point x="472" y="387" type="line"/>
      <point x="436" y="412"/>
      <point x="396" y="427"/>
      <point x="353" y="427" type="curve" smooth="yes"/>
      <point x="281" y="427"/>
      <point x="234" y="382"/>
      <point x="234" y="262" type="curve" smooth="yes"/>
      <point x="234" y="144"/>
      <point x="284" y="108"/>
      <point x="352" y="108" type="curve" smooth="yes"/>
      <point x="395" y="108"/>
      <point x="432" y="127"/>
      <point x="470" y="153" type="curve"/>
      <point x="540" y="53" type="line"/>
      <point x="498" y="17"/>
      <point x="439" y="-10"/>
      <point x="368" y="-16" type="curve"/>
    </contour>
  </outline>
</glyph>
<glyph name="ecircumflex" format="2">
  <advance width="600"/>
  <unicode hex="00EA"/>
  <outline>
    <contour>
      <point x="174" y="611" type="line"/>
      <point x="117" y="676" type="line"/>
      <point x="259" y="815" type="line"/>
      <point x="355" y="815" type="line"/>
      <point x="496" y="676" type="line"/>
      <point x="440" y="611" type="line"/>
      <point x="307" y="705" type="line"/>
    </contour>
    <contour>
      <point x="207" y="219" type="line"/>
      <point x="218" y="132"/>
      <point x="267" y="98"/>
      <point x="335" y="98" type="curve" smooth="yes"/>
      <point x="383" y="98"/>
      <point x="429" y="115"/>
      <point x="471" y="142" type="curve"/>
      <point x="534" y="56" type="line"/>
      <point x="484" y="13"/>
      <point x="412" y="-17"/>
      <point x="322" y="-17" type="curve" smooth="yes"/>
      <point x="140" y="-17"/>
      <point x="46" y="100"/>
      <point x="46" y="265" type="curve" smooth="yes"/>
      <point x="46" y="422"/>
      <point x="138" y="549"/>
      <point x="305" y="549" type="curve" smooth="yes"/>
      <point x="457" y="549"/>
      <point x="554" y="447"/>
      <point x="554" y="276" type="curve" smooth="yes"/>
      <point x="554" y="258"/>
      <point x="553" y="235"/>
      <point x="551" y="219" type="curve"/>
    </contour>
    <contour>
      <point x="305" y="443" type="curve" smooth="yes"/>
      <point x="249" y="443"/>
      <point x="212" y="403"/>
      <point x="205" y="315" type="curve"/>
      <point x="400" y="315" type="line"/>
      <point x="399" y="392"/>
      <point x="372" y="443"/>
    </contour>
  </outline>
</glyph>
<glyph name="igrave" format="2">
  <advance width="600"/>
  <unicode hex="00EC"/>
  <outline>
    <contour>
      <point x="398" y="622" type="line"/>
      <point x="162" y="716" type="line"/>
      <point x="223" y="835" type="line"/>
      <point x="441" y="702" type="line"/>
    </contour>
    <contour>
      <point x="394" y="531" type="line"/>
      <point x="394" y="108" type="line"/>
      <point x="530" y="108" type="line"/>
      <point x="530" y="0" type="line"/>
      <point x="86" y="0" type="line"/>
      <point x="86" y="108" type="line"/>
      <point x="236" y="108" type="line"/>
      <point x="236" y="423" type="line"/>
      <point x="91" y="423" type="line"/>
      <point x="91" y="531" type="line"/>
    </contour>
  </outline>
</glyph>
<glyph name="eth" format="2">
  <advance width="600"/>
  <unicode hex="00F0"/>
  <outline>
    <contour>
      <point x="126" y="571" type="line"/>
      <point x="184" y="631" type="line"/>
      <point x="157" y="641"/>
      <point x="126" y="649"/>
      <point x="93" y="655" type="curve"/>
      <point x="124" y="758" type="line"/>
      <point x="179" y="750"/>
      <point x="228" y="738"/>
      <point x="270" y="721" type="curve"/>
      <point x="343" y="797" type="line"/>
      <point x="424" y="727" type="line"/>
      <point x="371" y="673" type="line"/>
      <point x="500" y="590"/>
      <point x="556" y="456"/>
      <point x="556" y="277" type="curve" smooth="yes"/>
      <point x="556" y="113"/>
      <point x="463" y="-17"/>
      <point x="294" y="-17" type="curve" smooth="yes"/>
      <point x="151" y="-17"/>
      <point x="40" y="75"/>
      <point x="40" y="234" type="curve" smooth="yes"/>
      <point x="40" y="382"/>
      <point x="140" y="482"/>
      <point x="255" y="482" type="curve" smooth="yes"/>
      <point x="314" y="482"/>
      <point x="352" y="465"/>
      <point x="388" y="431" type="curve"/>
      <point x="365" y="500"/>
      <point x="329" y="548"/>
      <point x="282" y="582" type="curve"/>
      <point x="226" y="525" type="line"/>
    </contour>
    <contour>
      <point x="396" y="256" type="curve" smooth="yes"/>
      <point x="396" y="281"/>
      <point x="396" y="305"/>
      <point x="395" y="328" type="curve"/>
      <point x="370" y="356"/>
      <point x="336" y="371"/>
      <point x="296" y="371" type="curve" smooth="yes"/>
      <point x="238" y="371"/>
      <point x="201" y="328"/>
      <point x="201" y="236" type="curve" smooth="yes"/>
      <point x="201" y="139"/>
      <point x="238" y="98"/>
      <point x="297" y="98" type="curve" smooth="yes"/>
      <point x="366" y="98"/>
      <point x="396" y="149"/>
    </contour>
  </outline>
</glyph>
<glyph name="ntilde" format="2">
  <advance width="600"/>
  <unicode hex="00F1"/>
  <outline>
    <contour>
      <point x="357" y="635" type="curve" smooth="yes"/>
      <point x="299" y="635"/>
      <point x="276" y="680"/>
      <point x="243" y="680" type="curve" smooth="yes"/>
      <point x="218" y="680"/>
      <point x="206" y="665"/>
      <point x="190" y="636" type="curve"/>
      <point x="111" y="674" type="line"/>
      <point x="136" y="738"/>
      <point x="179" y="792"/>
      <point x="240" y="792" type="curve" smooth="yes"/>
      <point x="301" y="792"/>
      <point x="322" y="747"/>
      <point x="356" y="747" type="curve" smooth="yes"/>
      <point x="378" y="747"/>
      <point x="391" y="761"/>
      <point x="408" y="790" type="curve"/>
      <point x="487" y="752" type="line"/>
      <point x="461" y="685"/>
      <point x="417" y="635"/>
    </contour>
    <contour>
      <point x="70" y="0" type="line"/>
      <point x="70" y="531" type="line"/>
      <point x="208" y="531" type="line"/>
      <point x="219" y="470" type="line"/>
      <point x="266" y="523"/>
      <point x="316" y="549"/>
      <point x="384" y="549" type="curve" smooth="yes"/>
      <point x="475" y="549"/>
      <point x="530" y="491"/>
      <point x="530" y="390" type="curve" smooth="yes"/>
      <point x="530" y="0" type="line"/>
      <point x="372" y="0" type="line"/>
      <point x="372" y="344" type="line" smooth="yes"/>
      <point x="372" y="410"/>
      <point x="360" y="432"/>
      <point x="321" y="432" type="curve" smooth="yes"/>
      <point x="287" y="432"/>
      <point x="258" y="409"/>
      <point x="228" y="371" type="curve"/>
      <point x="228" y="0" type="line"/>
    </contour>
  </outline>
</glyph>
<glyph name="otilde" format="2">
  <advance width="600"/>
  <unicode hex="00F5"/>
  <outline>
    <contour>
      <point x="356" y="635" type="curve" smooth="yes"/>
      <point x="298" y="635"/>
      <point x="275" y="680"/>
      <point x="242" y="680" type="curve" smooth="yes"/>
      <point x="217" y="680"/>
      <point x="205" y="665"/>
      <point x="189" y="636" type="curve"/>
      <point x="110" y="674" type="line"/>
      <point x="135" y="738"/>
      <point x="178" y="792"/>
      <point x="239" y="792" type="curve" smooth="yes"/>
      <point x="300" y="792"/>
      <point x="321" y="747"/>
      <point x="355" y="747" type="curve" smooth="yes"/>
      <point x="377" y="747"/>
      <point x="390" y="761"/>
      <point x="407" y="790" type="curve"/>
      <point x="486" y="752" type="line"/>
      <point x="460" y="685"/>
      <point x="416" y="635"/>
    </contour>
    <contour>
      <point x="300" y="549" type="curve" smooth="yes"/>
      <point x="464" y="549"/>
      <point x="558" y="437"/>
      <point x="558" y="267" type="curve" smooth="yes"/>
      <point x="558" y="89"/>
      <point x="463" y="-17"/>
      <point x="300" y="-17" type="curve" smooth="yes"/>
      <point x="137" y="-17"/>
      <point x="42" y="87"/>
      <point x="42" y="266" type="curve" smooth="yes"/>
      <point x="42" y="435"/>
      <point x="137" y="549"/>
    </contour>
    <contour>
      <point x="300" y="432" type="curve" smooth="yes"/>
      <point x="235" y="432"/>
      <point x="205" y="382"/>
      <point x="205" y="266" type="curve" smooth="yes"/>
      <point x="205" y="148"/>
      <point x="235" y="99"/>
      <point x="300" y="99" type="curve" smooth="yes"/>
      <point x="365" y="99"/>
      <point x="395" y="148"/>
      <point x="395" y="267" type="curve" smooth="yes"/>
      <point x="395" y="382"/>
      <point x="365" y="432"/>
    </contour>
  </outline>
</glyph>
<glyph name="odieresis" format="2">
  <advance width="600"/>
  <unicode hex="00F6"/>
  <outline>
    <contour>
      <point x="184" y="637" type="curve" smooth="yes"/>
      <point x="139" y="637"/>
      <point x="102" y="672"/>
      <point x="102" y="718" type="curve" smooth="yes"/>
      <point x="102" y="762"/>
      <point x="139" y="797"/>
      <point x="184" y="797" type="curve" smooth="yes"/>
      <point x="231" y="797"/>
      <point x="267" y="762"/>
      <point x="267" y="718" type="curve" smooth="yes"/>
      <point x="267" y="672"/>
      <point x="231" y="637"/>
    </contour>
    <contour>
      <point x="416" y="637" type="curve" smooth="yes"/>
      <point x="371" y="637"/>
      <point x="333" y="672"/>
      <point x="333" y="718" type="curve" smooth="yes"/>
      <point x="333" y="762"/>
      <point x="371" y="797"/>
      <point x="416" y="797" type="curve" smooth="yes"/>
      <point x="462" y="797"/>
      <point x="498" y="762"/>
      <point x="498" y="718" type="curve" smooth="yes"/>
      <point x="498" y="672"/>
      <point x="462" y="637"/>
    </contour>
    <contour>
      <point x="300" y="549" type="curve" smooth="yes"/>
      <point x="464" y="549"/>
      <point x="558" y="437"/>
      <point x="558" y="267" type="curve" smooth="yes"/>
      <point x="558" y="89"/>
      <point x="463" y="-17"/>
      <point x="300" y="-17" type="curve" smooth="yes"/>
      <point x="137" y="-17"/>
      <point x="42" y="87"/>
      <point x="42" y="266" type="curve" smooth="yes"/>
      <point x="42" y="435"/>
      <point x="137" y="549"/>
    </contour>
    <contour>
      <point x="300" y="432" type="curve" smooth="yes"/>
      <point x="235" y="432"/>
      <point x="205" y="382"/>
      <point x="205" y="266" type="curve" smooth="yes"/>
      <point x="205" y="148"/>
      <point x="235" y="99"/>
      <point x="300" y="99" type="curve" smooth="yes"/>
      <point x="365" y="99"/>
      <point x="395" y="148"/>
      <point x="395" y="267" type="curve" smooth="yes"/>
      <point x="395" y="382"/>
      <point x="365" y="432"/>
    </contour>
  </outline>
</glyph>
<glyph name="divide" format="2">
  <advance width="600"/>
  <unicode hex="00F7"/>
  <outline>
    <contour>
      <point x="300" y="623" type="curve" smooth="yes"/>
      <point x="351" y="623"/>
      <point x="390" y="582"/>
      <point x="390" y="532" type="curve" smooth="yes"/>
      <point x="390" y="484"/>
      <point x="351" y="443"/>
      <point x="300" y="443" type="curve" smooth="yes"/>
      <point x="249" y="443"/>
      <point x="210" y="484"/>
      <point x="210" y="532" type="curve" smooth="yes"/>
      <point x="210" y="582"/>
      <point x="249" y="623"/>
    </contour>
    <contour>
      <point x="517" y="379" type="line"/>
      <point x="517" y="258" type="line"/>
      <point x="83" y="258" type="line"/>
      <point x="83" y="379" type="line"/>
    </contour>
    <contour>
      <point x="300" y="195" type="curve" smooth="yes"/>
      <point x="351" y="195"/>
      <point x="390" y="154"/>
      <point x="390" y="104" type="curve" smooth="yes"/>
      <point x="390" y="55"/>
      <point x="351" y="14"/>
      <point x="300" y="14" type="curve" smooth="yes"/>
      <point x="249" y="14"/>
      <point x="210" y="55"/>
      <point x="210" y="104" type="curve" smooth="yes"/>
      <point x="210" y="154"/>
      <point x="249" y="195"/>
    </contour>
  </outline>
</glyph>
<glyph name="ucircumflex" format="2">
  <advance width="600"/>
  <unicode hex="00FB"/>
  <outline>
    <contour>
      <point x="167" y="611" type="line"/>
      <point x="110" y="676" type="line"/>
      <point x="252" y="815" type="line"/>
      <point x="348" y="815" type="line"/>
      <point x="489" y="676" type="line"/>
      <point x="433" y="611" type="line"/>
      <point x="300" y="705" type="line"/>
    </contour>
    <contour>
      <point x="228" y="531" type="line"/>
      <point x="228" y="168" type="line" smooth="yes"/>
      <point x="228" y="116"/>
      <point x="248" y="100"/>
      <point x="282" y="100" type="curve" smooth="yes"/>
      <point x="314" y="100"/>
      <point x="350" y="122"/>
      <point x="372" y="158" type="curve"/>
      <point x="372" y="531" type="line"/>
      <point x="530" y="531" type="line"/>
      <point x="530" y="0" type="line"/>
      <point x="392" y="0" type="line"/>
      <point x="385" y="62" type="line"/>
      <point x="349" y="10"/>
      <point x="286" y="-17"/>
      <point x="222" y="-17" type="curve" smooth="yes"/>
      <point x="119" y="-17"/>
      <point x="70" y="47"/>
      <point x="70" y="148" type="curve" smooth="yes"/>
      <point x="70" y="531" type="line"/>
    </contour>
  </outline>
</glyph>
<glyph name="udieresis" format="2">
  <advance width="600"/>
  <unicode hex="00FC"/>
  <outline>
    <contour>
      <point x="184" y="637" type="curve" smooth="yes"/>
      <point x="139" y="637"/>
      <point x="102" y="672"/>
      <point x="102" y="718" type="curve" smooth="yes"/>
      <point x="102" y="762"/>
      <point x="139" y="797"/>
      <point x="184" y="797" type="curve" smooth="yes"/>
      <point x="231" y="797"/>
      <point x="267" y="762"/>
      <point x="267" y="718" type="curve" smooth="yes"/>
      <point x="267" y="672"/>
      <point x="231" y="637"/>
    </contour>
    <contour>
      <point x="416" y="637" type="curve" smooth="yes"/>
      <point x="371" y="637"/>
      <point x="333" y="672"/>
      <point x="333" y="718" type="curve" smooth="yes"/>
      <point x="333" y="762"/>
      <point x="371" y="797"/>
      <point x="416" y="797" type="curve" smooth="yes"/>
      <point x="462" y="797"/>
      <point x="498" y="762"/>
      <point x="498" y="718" type="curve" smooth="yes"/>
      <point x="498" y="672"/>
      <point x="462" y="637"/>
    </contour>
    <contour>
      <point x="228" y="531" type="line"/>
      <point x="228" y="168" type="line" smooth="yes"/>
      <point x="228" y="116"/>
      <point x="248" y="100"/>
      <point x="282" y="100" type="curve" smooth="yes"/>
      <point x="314" y="100"/>
      <point x="350" y="122"/>
      <point x="372" y="158" type="curve"/>
      <point x="372" y="531" type="line"/>
      <point x="530" y="531" type="line"/>
      <point x="530" y="0" type="line"/>
      <point x="392" y="0" type="line"/>
      <point x="385" y="62" type="line"/>
      <point x="349" y="10"/>
      <point x="286" y="-17"/>
      <point x="222" y="-17" type="curve" smooth="yes"/>
      <point x="119" y="-17"/>
      <point x="70" y="47"/>
      <point x="70" y="148" type="curve" smooth="yes"/>
      <point x="70" y="531" type="line"/>
    </contour>
  </outline>
</glyph>
<glyph name="Aogonek" format="2">
  <advance width="600"/>
  <unicode hex="0104"/>
  <outline>
    <contour>
      <point x="533" y="0" type="line"/>
      <point x="440" y="-32"/>
      <point x="418" y="-69"/>
      <point x="418" y="-110" type="curve" smooth="yes"/>
      <point x="418" y="-143"/>
      <point x="441" y="-159"/>
      <point x="476" y="-159" type="curve" smooth="yes"/>
      <point x="497" y="-159"/>
      <point x="513" y="-156"/>
      <point x="530" y="-152" type="curve"/>
      <point x="518" y="-245" type="line"/>
      <point x="500" y="-250"/>
      <point x="482" y="-253"/>
      <point x="459" y="-253" type="curve" smooth="yes"/>
      <point x="374" y="-253"/>
      <point x="308" y="-209"/>
      <point x="308" y="-130" type="curve" smooth="yes"/>
      <point x="308" y="-52"/>
      <point x="358" y="-9"/>
      <point x="431" y="22" type="curve"/>
      <point x="400" y="150" type="line"/>
      <point x="197" y="150" type="line"/>
      <point x="161" y="0" type="line"/>
      <point x="-11" y="0" type="line"/>
      <point x="201" y="693" type="line"/>
      <point x="400" y="693" type="line"/>
      <point x="612" y="0" type="line"/>
    </contour>
    <contour>
      <point x="223" y="268" type="line"/>
      <point x="373" y="268" type="line"/>
      <point x="298" y="575" type="line"/>
    </contour>
  </outline>
</glyph>
<glyph name="cacute" format="2">
  <advance width="600"/>
  <unicode hex="0107"/>
  <outline>
    <contour>
      <point x="420" y="822" type="line"/>
      <point x="482" y="703" type="line"/>
      <point x="245" y="609" type="line"/>
      <point x="202" y="690" type="line"/>
    </contour>
    <contour>
      <point x="352" y="108" type="curve" smooth="yes"/>
      <point x="395" y="108"/>
      <point x="432" y="127"/>
      <point x="470" y="153" type="curve"/>
      <point x="540" y="53" type="line"/>
      <point x="493" y="13"/>
      <point x="425" y="-17"/>
      <point x="343" y="-17" type="curve" smooth="yes"/>
      <point x="171" y="-17"/>
      <point x="69" y="96"/>
      <point x="69" y="262" type="curve" smooth="yes"/>
      <point x="69" y="428"/>
      <point x="175" y="549"/>
      <point x="346" y="549" type="curve" smooth="yes"/>
      <point x="426" y="549"/>
      <point x="487" y="526"/>
      <point x="540" y="482" type="curve"/>
      <point x="472" y="387" type="line"/>
      <point x="436" y="412"/>
      <point x="396" y="427"/>
      <point x="353" y="427" type="curve" smooth="yes"/>
      <point x="281" y="427"/>
      <point x="234" y="382"/>
      <point x="234" y="262" type="curve" smooth="yes"/>
      <point x="234" y="144"/>
      <point x="284" y="108"/>
    </contour>
  </outline>
</glyph>
<glyph name="cdotaccent" format="2">
  <advance width="600"/>
  <unicode hex="010B"/>
  <outline>
    <contour>
      <point x="344" y="796" type="curve" smooth="yes"/>
      <point x="399" y="796"/>
      <point x="437" y="757"/>
      <point x="437" y="707" type="curve" smooth="yes"/>
      <point x="437" y="656"/>
      <point x="399" y="618"/>
      <point x="344" y="618" type="curve" smooth="yes"/>
      <point x="289" y="618"/>
      <point x="250" y="656"/>
      <point x="250" y="707" type="curve" smooth="yes"/>
      <point x="250" y="757"/>
      <point x="289" y="796"/>
    </contour>
    <contour>
      <point x="352" y="108" type="curve" smooth="yes"/>
      <point x="395" y="108"/>
      <point x="432" y="127"/>
      <point x="470" y="153" type="curve"/>
      <point x="540" y="53" type="line"/>
      <point x="493" y="13"/>
      <point x="425" y="-17"/>
      <point x="343" y="-17" type="curve" smooth="yes"/>
      <point x="171" y="-17"/>
      <point x="69" y="96"/>
      <point x="69" y="262" type="curve" smooth="yes"/>
      <point x="69" y="428"/>
      <point x="175" y="549"/>
      <point x="346" y="549" type="curve" smooth="yes"/>
      <point x="426" y="549"/>
      <point x="487" y="526"/>
      <point x="540" y="482" type="curve"/>
      <point x="472" y="387" type="line"/>
      <point x="436" y="412"/>
      <point x="396" y="427"/>
      <point x="353" y="427" type="curve" smooth="yes"/>
      <point x="281" y="427"/>
      <point x="234" y="382"/>
      <point x="234" y="262" type="curve" smooth="yes"/>
      <point x="234" y="144"/>
      <point x="284" y="108"/>
    </contour>
  </outline>
</glyph>
<glyph name="Ccaron" format="2">
  <advance width="600"/>
  <unicode hex="010C"/>
  <outline>
    <contour>
      <point x="494" y="946" type="line"/>
      <point x="550" y="881" type="line"/>
      <point x="409" y="751" type="line"/>
      <point x="313" y="751" type="line"/>
      <point x="171" y="881" type="line"/>
      <point x="228" y="946" type="line"/>
      <point x="361" y="861" type="line"/>
    </contour>
    <contour>
      <point x="358" y="711" type="curve" smooth="yes"/>
      <point x="458" y="711"/>
      <point x="522" y="683"/>
      <point x="580" y="635" type="curve"/>
      <point x="500" y="538" type="line"/>
      <point x="462" y="569"/>
      <point x="416" y="589"/>
      <point x="362" y="589" type="curve" smooth="yes"/>
      <point x="274" y="589"/>
      <point x="204" y="518"/>
      <point x="204" y="348" type="curve" smooth="yes"/>
      <point x="204" y="181"/>
      <point x="270" y="110"/>
      <point x="365" y="110" type="curve" smooth="yes"/>
      <point x="434" y="110"/>
      <point x="476" y="141"/>
      <point x="515" y="172" type="curve"/>
      <point x="589" y="77" type="line"/>
      <point x="538" y="25"/>
      <point x="463" y="-17"/>
      <point x="356" y="-17" type="curve" smooth="yes"/>
      <point x="168" y="-17"/>
      <point x="34" y="110"/>
      <point x="34" y="348" type="curve" smooth="yes"/>
      <point x="34" y="580"/>
      <point x="175" y="711"/>
    </contour>
  </outline>
</glyph>
<glyph name="dcaron" format="2">
  <advance width="600"/>
  <unicode hex="010F"/>
  <outline>
    <contour>
      <point x="555" y="764" type="line"/>
      <point x="693" y="747" type="line"/>
      <point x="616" y="515" type="line"/>
      <point x="517" y="531" type="line"/>
    </contour>
    <contour>
      <point x="333" y="759" type="line"/>
      <point x="491" y="742" type="line"/>
      <point x="491" y="0" type="line"/>
      <point x="351" y="0" type="line"/>
      <point x="343" y="58" type="line"/>
      <point x="314" y="17"/>
      <point x="266" y="-17"/>
      <point x="196" y="-17" type="curve" smooth="yes"/>
      <point x="64" y="-17"/>
      <point x="1" y="96"/>
      <point x="1" y="267" type="curve" smooth="yes"/>
      <point x="1" y="431"/>
      <point x="82" y="549"/>
      <point x="213" y="549" type="curve" smooth="yes"/>
      <point x="260" y="549"/>
      <point x="301" y="532"/>
      <point x="333" y="499" type="curve"/>
    </contour>
    <contour>
      <point x="255" y="433" type="curve" smooth="yes"/>
      <point x="200" y="433"/>
      <point x="164" y="385"/>
      <point x="164" y="266" type="curve" smooth="yes"/>
      <point x="164" y="135"/>
      <point x="198" y="99"/>
      <point x="246" y="99" type="curve" smooth="yes"/>
      <point x="282" y="99"/>
      <point x="310" y="122"/>
      <point x="333" y="160" type="curve"/>
      <point x="333" y="389" type="line"/>
      <point x="311" y="417"/>
      <point x="288" y="433"/>
    </contour>
  </outline>
</glyph>
<glyph name="dcroat" format="2">
  <advance width="600"/>
  <unicode hex="0111"/>
  <outline>
    <contour>
      <point x="592" y="685" type="line"/>
      <point x="592" y="593" type="line"/>
      <point x="512" y="593" type="line"/>
      <point x="512" y="0" type="line"/>
      <point x="372" y="0" type="line"/>
      <point x="364" y="58" type="line"/>
      <point x="334" y="17"/>
      <point x="286" y="-17"/>
      <point x="216" y="-17" type="curve" smooth="yes"/>
      <point x="84" y="-17"/>
      <point x="21" y="96"/>
      <point x="21" y="267" type="curve" smooth="yes"/>
      <point x="21" y="431"/>
      <point x="102" y="549"/>
      <point x="233" y="549" type="curve" smooth="yes"/>
      <point x="281" y="549"/>
      <point x="322" y="532"/>
      <point x="354" y="499" type="curve"/>
      <point x="354" y="593" type="line"/>
      <point x="231" y="593" type="line"/>
      <point x="231" y="685" type="line"/>
      <point x="354" y="685" type="line"/>
      <point x="354" y="759" type="line"/>
      <point x="512" y="742" type="line"/>
      <point x="512" y="685" type="line"/>
    </contour>
    <contour>
      <point x="354" y="160" type="curve"/>
      <point x="354" y="389" type="line"/>
      <point x="332" y="417"/>
      <point x="308" y="433"/>
      <point x="276" y="433" type="curve" smooth="yes"/>
      <point x="221" y="433"/>
      <point x="184" y="385"/>
      <point x="184" y="266" type="curve" smooth="yes"/>
      <point x="184" y="135"/>
      <point x="219" y="99"/>
      <point x="267" y="99" type="curve" smooth="yes"/>
      <point x="302" y="99"/>
      <point x="331" y="122"/>
    </contour>
  </outline>
</glyph>
<glyph name="Ebreve" format="2">
  <advance width="600"/>
  <unicode hex="0114"/>
  <outline>
    <contour>
      <point x="320" y="751" type="curve" smooth="yes"/>
      <point x="210" y="751"/>
      <point x="158" y="820"/>
      <point x="148" y="905" type="curve"/>
      <point x="235" y="921" type="line"/>
      <point x="248" y="879"/>
      <point x="274" y="861"/>
      <point x="320" y="861" type="curve" smooth="yes"/>
      <point x="366" y="861"/>
      <point x="392" y="879"/>
      <point x="405" y="921" type="curve"/>
      <point x="492" y="905" type="line"/>
      <point x="483" y="820"/>
      <point x="430" y="751"/>
    </contour>
    <contour>
      <point x="257" y="576" type="line"/>
      <point x="257" y="409" type="line"/>
      <point x="497" y="409" type="line"/>
      <point x="497" y="295" type="line"/>
      <point x="257" y="295" type="line"/>
      <point x="257" y="118" type="line"/>
      <point x="546" y="118" type="line"/>
      <point x="546" y="0" type="line"/>
      <point x="93" y="0" type="line"/>
      <point x="93" y="693" type="line"/>
      <point x="546" y="693" type="line"/>
      <point x="529" y="576" type="line"/>
    </contour>
  </outline>
</glyph>
<glyph name="ebreve" format="2">
  <advance width="600"/>
  <unicode hex="0115"/>
  <outline>
    <contour>
      <point x="307" y="612" type="curve" smooth="yes"/>
      <point x="196" y="612"/>
      <point x="143" y="698"/>
      <point x="135" y="786" type="curve"/>
      <point x="222" y="801" type="line"/>
      <point x="234" y="753"/>
      <point x="261" y="720"/>
      <point x="307" y="720" type="curve" smooth="yes"/>
      <point x="353" y="720"/>
      <point x="380" y="753"/>
      <point x="392" y="801" type="curve"/>
      <point x="479" y="786" type="line"/>
      <point x="471" y="698"/>
      <point x="416" y="612"/>
    </contour>
    <contour>
      <point x="207" y="219" type="line"/>
      <point x="218" y="132"/>
      <point x="267" y="98"/>
      <point x="335" y="98" type="curve" smooth="yes"/>
      <point x="383" y="98"/>
      <point x="429" y="115"/>
      <point x="471" y="142" type="curve"/>
      <point x="534" y="56" type="line"/>
      <point x="484" y="13"/>
      <point x="412" y="-17"/>
      <point x="322" y="-17" type="curve" smooth="yes"/>
      <point x="140" y="-17"/>
      <point x="46" y="100"/>
      <point x="46" y="265" type="curve" smooth="yes"/>
      <point x="46" y="422"/>
      <point x="138" y="549"/>
      <point x="305" y="549" type="curve" smooth="yes"/>
      <point x="457" y="549"/>
      <point x="554" y="447"/>
      <point x="554" y="276" type="curve" smooth="yes"/>
      <point x="554" y="258"/>
      <point x="553" y="235"/>
      <point x="551" y="219" type="curve"/>
    </contour>
    <contour>
      <point x="305" y="443" type="curve" smooth="yes"/>
      <point x="249" y="443"/>
      <point x="212" y="403"/>
      <point x="205" y="315" type="curve"/>
      <point x="400" y="315" type="line"/>
      <point x="399" y="392"/>
      <point x="372" y="443"/>
    </contour>
  </outline>
</glyph>
<glyph name="Edotaccent" format="2">
  <advance width="600"/>
  <unicode hex="0116"/>
  <outline>
    <contour>
      <point x="320" y="934" type="curve" smooth="yes"/>
      <point x="375" y="934"/>
      <point x="413" y="895"/>
      <point x="413" y="845" type="curve" smooth="yes"/>
      <point x="413" y="794"/>
      <point x="375" y="756"/>
      <point x="320" y="756" type="curve" smooth="yes"/>
      <point x="265" y="756"/>
      <point x="226" y="794"/>
      <point x="226" y="845" type="curve" smooth="yes"/>
      <point x="226" y="895"/>
      <point x="265" y="934"/>
    </contour>
    <contour>
      <point x="257" y="576" type="line"/>
      <point x="257" y="409" type="line"/>
      <point x="497" y="409" type="line"/>
      <point x="497" y="295" type="line"/>
      <point x="257" y="295" type="line"/>
      <point x="257" y="118" type="line"/>
      <point x="546" y="118" type="line"/>
      <point x="546" y="0" type="line"/>
      <point x="93" y="0" type="line"/>
      <point x="93" y="693" type="line"/>
      <point x="546" y="693" type="line"/>
      <point x="529" y="576" type="line"/>
    </contour>
  </outline>
</glyph>
<glyph name="Eogonek" format="2">
  <advance width="600"/>
  <unicode hex="0118"/>
  <outline>
    <contour>
      <point x="257" y="118" type="line"/>
      <point x="546" y="118" type="line"/>
      <point x="546" y="0" type="line"/>
      <point x="467" y="0" type="line"/>
      <point x="374" y="-32"/>
      <point x="352" y="-69"/>
      <point x="352" y="-110" type="curve" smooth="yes"/>
      <point x="352" y="-143"/>
      <point x="375" y="-159"/>
      <point x="410" y="-159" type="curve" smooth="yes"/>
      <point x="431" y="-159"/>
      <point x="447" y="-156"/>
      <point x="464" y="-152" type="curve"/>
      <point x="452" y="-245" type="line"/>
      <point x="434" y="-250"/>
      <point x="416" y="-253"/>
      <point x="393" y="-253" type="curve" smooth="yes"/>
      <point x="308" y="-253"/>
      <point x="242" y="-209"/>
      <point x="242" y="-130" type="curve" smooth="yes"/>
      <point x="242" y="-69"/>
      <point x="273" y="-29"/>
      <point x="322" y="0" type="curve"/>
      <point x="93" y="0" type="line"/>
      <point x="93" y="693" type="line"/>
      <point x="546" y="693" type="line"/>
      <point x="529" y="576" type="line"/>
      <point x="257" y="576" type="line"/>
      <point x="257" y="409" type="line"/>
      <point x="497" y="409" type="line"/>
      <point x="497" y="295" type="line"/>
      <point x="257" y="295" type="line"/>
    </contour>
  </outline>
</glyph>
<glyph name="eogonek" format="2">
  <advance width="600"/>
  <unicode hex="0119"/>
  <outline>
    <contour>
      <point x="554" y="276" type="curve" smooth="yes"/>
      <point x="554" y="258"/>
      <point x="553" y="235"/>
      <point x="551" y="219" type="curve"/>
      <point x="207" y="219" type="line"/>
      <point x="218" y="132"/>
      <point x="267" y="98"/>
      <point x="335" y="98" type="curve" smooth="yes"/>
      <point x="383" y="98"/>
      <point x="429" y="115"/>
      <point x="471" y="142" type="curve"/>
      <point x="534" y="56" type="line"/>
      <point x="507" y="33"/>
      <point x="474" y="13"/>
      <point x="435" y="1" type="curve"/>
      <point x="435" y="0" type="line"/>
      <point x="342" y="-32"/>
      <point x="320" y="-69"/>
      <point x="320" y="-110" type="curve" smooth="yes"/>
      <point x="320" y="-143"/>
      <point x="343" y="-159"/>
      <point x="378" y="-159" type="curve" smooth="yes"/>
      <point x="399" y="-159"/>
      <point x="415" y="-156"/>
      <point x="432" y="-152" type="curve"/>
      <point x="420" y="-245" type="line"/>
      <point x="402" y="-250"/>
      <point x="384" y="-253"/>
      <point x="361" y="-253" type="curve" smooth="yes"/>
      <point x="276" y="-253"/>
      <point x="210" y="-209"/>
      <point x="210" y="-130" type="curve" smooth="yes"/>
      <point x="210" y="-79"/>
      <point x="236" y="-43"/>
      <point x="279" y="-15" type="curve"/>
      <point x="125" y="2"/>
      <point x="46" y="113"/>
      <point x="46" y="265" type="curve" smooth="yes"/>
      <point x="46" y="422"/>
      <point x="138" y="549"/>
      <point x="305" y="549" type="curve" smooth="yes"/>
      <point x="457" y="549"/>
      <point x="554" y="447"/>
    </contour>
    <contour>
      <point x="205" y="315" type="curve"/>
      <point x="400" y="315" type="line"/>
      <point x="399" y="392"/>
      <point x="372" y="443"/>
      <point x="305" y="443" type="curve" smooth="yes"/>
      <point x="249" y="443"/>
      <point x="212" y="403"/>
    </contour>
  </outline>
</glyph>
<glyph name="Ecaron" format="2">
  <advance width="600"/>
  <unicode hex="011A"/>
  <outline>
    <contour>
      <point x="453" y="946" type="line"/>
      <point x="509" y="881" type="line"/>
      <point x="368" y="751" type="line"/>
      <point x="272" y="751" type="line"/>
      <point x="130" y="881" type="line"/>
      <point x="187" y="946" type="line"/>
      <point x="320" y="861" type="line"/>
    </contour>
    <contour>
      <point x="257" y="576" type="line"/>
      <point x="257" y="409" type="line"/>
      <point x="497" y="409" type="line"/>
      <point x="497" y="295" type="line"/>
      <point x="257" y="295" type="line"/>
      <point x="257" y="118" type="line"/>
      <point x="546" y="118" type="line"/>
      <point x="546" y="0" type="line"/>
      <point x="93" y="0" type="line"/>
      <point x="93" y="693" type="line"/>
      <point x="546" y="693" type="line"/>
      <point x="529" y="576" type="line"/>
    </contour>
  </outline>
</glyph>
<glyph name="gcommaaccent" format="2">
  <advance width="600"/>
  <unicode hex="0123"/>
  <outline>
    <contour>
      <point x="301" y="596" type="curve" smooth="yes"/>
      <point x="256" y="596"/>
      <point x="223" y="629"/>
      <point x="223" y="674" type="curve" smooth="yes"/>
      <point x="223" y="697"/>
      <point x="231" y="726"/>
      <point x="246" y="756" type="curve" smooth="yes"/>
      <point x="295" y="853" type="line"/>
      <point x="375" y="853" type="line"/>
      <point x="348" y="738" type="line"/>
      <point x="366" y="723"/>
      <point x="380" y="702"/>
      <point x="380" y="674" type="curve" smooth="yes"/>
      <point x="380" y="631"/>
      <point x="347" y="596"/>
    </contour>
    <contour>
      <point x="542" y="616" type="curve"/>
      <point x="578" y="500" type="line"/>
      <point x="541" y="485"/>
      <point x="492" y="479"/>
      <point x="425" y="479" type="curve"/>
      <point x="492" y="450"/>
      <point x="528" y="411"/>
      <point x="528" y="342" type="curve" smooth="yes"/>
      <point x="528" y="239"/>
      <point x="440" y="164"/>
      <point x="303" y="164" type="curve" smooth="yes"/>
      <point x="280" y="164"/>
      <point x="260" y="166"/>
      <point x="241" y="170" type="curve"/>
      <point x="230" y="164"/>
      <point x="224" y="152"/>
      <point x="224" y="140" type="curve" smooth="yes"/>
      <point x="224" y="124"/>
      <point x="231" y="108"/>
      <point x="282" y="108" type="curve" smooth="yes"/>
      <point x="370" y="108" type="line" smooth="yes"/>
      <point x="493" y="108"/>
      <point x="572" y="43"/>
      <point x="572" y="-46" type="curve" smooth="yes"/>
      <point x="572" y="-155"/>
      <point x="476" y="-222"/>
      <point x="288" y="-222" type="curve" smooth="yes"/>
      <point x="84" y="-222"/>
      <point x="31" y="-156"/>
      <point x="31" y="-51" type="curve"/>
      <point x="171" y="-51" type="line"/>
      <point x="171" y="-97"/>
      <point x="191" y="-118"/>
      <point x="292" y="-118" type="curve" smooth="yes"/>
      <point x="392" y="-118"/>
      <point x="415" y="-92"/>
      <point x="415" y="-57" type="curve" smooth="yes"/>
      <point x="415" y="-26"/>
      <point x="391" y="-4"/>
      <point x="338" y="-4" type="curve" smooth="yes"/>
      <point x="254" y="-4" type="line" smooth="yes"/>
      <point x="138" y="-4"/>
      <point x="90" y="45"/>
      <point x="90" y="101" type="curve" smooth="yes"/>
      <point x="90" y="140"/>
      <point x="111" y="178"/>
      <point x="149" y="202" type="curve"/>
      <point x="82" y="238"/>
      <point x="55" y="285"/>
      <point x="55" y="354" type="curve" smooth="yes"/>
      <point x="55" y="474"/>
      <point x="153" y="548"/>
      <point x="292" y="548" type="curve" smooth="yes"/>
      <point x="297" y="548"/>
      <point x="302" y="548"/>
      <point x="307" y="548" type="curve" smooth="yes"/>
      <point x="416" y="548"/>
      <point x="481" y="580"/>
    </contour>
    <contour>
      <point x="296" y="445" type="curve" smooth="yes"/>
      <point x="246" y="445"/>
      <point x="215" y="411"/>
      <point x="215" y="356" type="curve" smooth="yes"/>
      <point x="215" y="298"/>
      <point x="247" y="265"/>
      <point x="296" y="265" type="curve" smooth="yes"/>
      <point x="348" y="265"/>
      <point x="377" y="297"/>
      <point x="377" y="358" type="curve" smooth="yes"/>
      <point x="377" y="417"/>
      <point x="349" y="445"/>
    </contour>
  </outline>
</glyph>
<glyph name="Hcircumflex" format="2">
  <advance width="600"/>
  <unicode hex="0124"/>
  <outline>
    <contour>
      <point x="348" y="943" type="line"/>
      <point x="489" y="813" type="line"/>
      <point x="433" y="748" type="line"/>
      <point x="300" y="833" type="line"/>
      <point x="167" y="748" type="line"/>
      <point x="110" y="813" type="line"/>
      <point x="252" y="943" type="line"/>
    </contour>
    <contour>
      <point x="384" y="0" type="line"/>
      <point x="384" y="292" type="line"/>
      <point x="216" y="292" type="line"/>
      <point x="216" y="0" type="line"/>
      <point x="52" y="0" type="line"/>
      <point x="52" y="693" type="line"/>
      <point x="216" y="693" type="line"/>
      <point x="216" y="427" type="line"/>
      <point x="384" y="427" type="line"/>
      <point x="384" y="693" type="line"/>
      <point x="548" y="693" type="line"/>
      <point x="548" y="0" type="line"/>
    </contour>
  </outline>
</glyph>
<glyph name="Hbar" format="2">
  <advance width="600"/>
  <unicode hex="0126"/>
  <outline>
    <contour>
      <point x="598" y="592" type="line"/>
      <point x="598" y="500" type="line"/>
      <point x="543" y="500" type="line"/>
      <point x="543" y="0" type="line"/>
      <point x="379" y="0" type="line"/>
      <point x="379" y="297" type="line"/>
      <point x="221" y="297" type="line"/>
      <point x="221" y="0" type="line"/>
      <point x="57" y="0" type="line"/>
      <point x="57" y="500" type="line"/>
      <point x="2" y="500" type="line"/>
      <point x="2" y="592" type="line"/>
      <point x="57" y="592" type="line"/>
      <point x="57" y="693" type="line"/>
      <point x="221" y="693" type="line"/>
      <point x="221" y="592" type="line"/>
      <point x="379" y="592" type="line"/>
      <point x="379" y="693" type="line"/>
      <point x="543" y="693" type="line"/>
      <point x="543" y="592" type="line"/>
    </contour>
    <contour>
      <point x="379" y="424" type="line"/>
      <point x="379" y="500" type="line"/>
      <point x="221" y="500" type="line"/>
      <point x="221" y="424" type="line"/>
    </contour>
  </outline>
</glyph>
<glyph name="Itilde" format="2">
  <advance width="600"/>
  <unicode hex="0128"/>
  <outline>
    <contour>
      <point x="356" y="760" type="curve" smooth="yes"/>
      <point x="298" y="760"/>
      <point x="275" y="805"/>
      <point x="242" y="805" type="curve" smooth="yes"/>
      <point x="217" y="805"/>
      <point x="205" y="790"/>
      <point x="189" y="761" type="curve"/>
      <point x="110" y="799" type="line"/>
      <point x="135" y="863"/>
      <point x="178" y="917"/>
      <point x="239" y="917" type="curve" smooth="yes"/>
      <point x="300" y="917"/>
      <point x="321" y="872"/>
      <point x="355" y="872" type="curve" smooth="yes"/>
      <point x="377" y="872"/>
      <point x="390" y="886"/>
      <point x="407" y="915" type="curve"/>
      <point x="486" y="877" type="line"/>
      <point x="460" y="810"/>
      <point x="416" y="760"/>
    </contour>
    <contour>
      <point x="525" y="693" type="line"/>
      <point x="525" y="573" type="line"/>
      <point x="382" y="573" type="line"/>
      <point x="382" y="121" type="line"/>
      <point x="525" y="121" type="line"/>
      <point x="525" y="0" type="line"/>
      <point x="75" y="0" type="line"/>
      <point x="75" y="121" type="line"/>
      <point x="218" y="121" type="line"/>
      <point x="218" y="573" type="line"/>
      <point x="75" y="573" type="line"/>
      <point x="75" y="693" type="line"/>
    </contour>
  </outline>
</glyph>
<glyph name="itilde" format="2">
  <advance width="600"/>
  <unicode hex="0129"/>
  <outline>
    <contour>
      <point x="355" y="635" type="curve" smooth="yes"/>
      <point x="297" y="635"/>
      <point x="274" y="680"/>
      <point x="241" y="680" type="curve" smooth="yes"/>
      <point x="216" y="680"/>
      <point x="204" y="665"/>
      <point x="188" y="636" type="curve"/>
      <point x="109" y="674" type="line"/>
      <point x="134" y="738"/>
      <point x="177" y="792"/>
      <point x="238" y="792" type="curve" smooth="yes"/>
      <point x="299" y="792"/>
      <point x="320" y="747"/>
      <point x="354" y="747" type="curve" smooth="yes"/>
      <point x="376" y="747"/>
      <point x="389" y="761"/>
      <point x="406" y="790" type="curve"/>
      <point x="485" y="752" type="line"/>
      <point x="459" y="685"/>
      <point x="415" y="635"/>
    </contour>
    <contour>
      <point x="394" y="531" type="line"/>
      <point x="394" y="108" type="line"/>
      <point x="530" y="108" type="line"/>
      <point x="530" y="0" type="line"/>
      <point x="86" y="0" type="line"/>
      <point x="86" y="108" type="line"/>
      <point x="236" y="108" type="line"/>
      <point x="236" y="423" type="line"/>
      <point x="91" y="423" type="line"/>
      <point x="91" y="531" type="line"/>
    </contour>
  </outline>
</glyph>
<glyph name="imacron" format="2">
  <advance width="600"/>
  <unicode hex="012B"/>
  <outline>
    <contour>
      <point x="452" y="658" type="line"/>
      <point x="146" y="658" type="line"/>
      <point x="146" y="767" type="line"/>
      <point x="452" y="767" type="line"/>
    </contour>
    <contour>
      <point x="394" y="531" type="line"/>
      <point x="394" y="108" type="line"/>
      <point x="530" y="108" type="line"/>
      <point x="530" y="0" type="line"/>
      <point x="86" y="0" type="line"/>
      <point x="86" y="108" type="line"/>
      <point x="236" y="108" type="line"/>
      <point x="236" y="423" type="line"/>
      <point x="91" y="423" type="line"/>
      <point x="91" y="531" type="line"/>
    </contour>
  </outline>
</glyph>
<glyph name="ibreve" format="2">
  <advance width="600"/>
  <unicode hex="012D"/>
  <outline>
    <contour>
      <point x="299" y="612" type="curve" smooth="yes"/>
      <point x="188" y="612"/>
      <point x="135" y="698"/>
      <point x="127" y="786" type="curve"/>
      <point x="214" y="801" type="line"/>
      <point x="226" y="753"/>
      <point x="253" y="720"/>
      <point x="299" y="720" type="curve" smooth="yes"/>
      <point x="345" y="720"/>
      <point x="372" y="753"/>
      <point x="384" y="801" type="curve"/>
      <point x="471" y="786" type="line"/>
      <point x="463" y="698"/>
      <point x="408" y="612"/>
    </contour>
    <contour>
      <point x="394" y="531" type="line"/>
      <point x="394" y="108" type="line"/>
      <point x="530" y="108" type="line"/>
      <point x="530" y="0" type="line"/>
      <point x="86" y="0" type="line"/>
      <point x="86" y="108" type="line"/>
      <point x="236" y="108" type="line"/>
      <point x="236" y="423" type="line"/>
      <point x="91" y="423" type="line"/>
      <point x="91" y="531" type="line"/>
    </contour>
  </outline>
</glyph>
<glyph name="Iogonek" format="2">
  <advance width="600"/>
  <unicode hex="012E"/>
  <outline>
    <contour>
      <point x="525" y="573" type="line"/>
      <point x="382" y="573" type="line"/>
      <point x="382" y="121" type="line"/>
      <point x="525" y="121" type="line"/>
      <point x="525" y="0" type="line"/>
      <point x="382" y="0" type="line"/>
      <point x="289" y="-32"/>
      <point x="267" y="-69"/>
      <point x="267" y="-110" type="curve" smooth="yes"/>
      <point x="267" y="-143"/>
      <point x="290" y="-159"/>
      <point x="325" y="-159" type="curve" smooth="yes"/>
      <point x="346" y="-159"/>
      <point x="362" y="-156"/>
      <point x="379" y="-152" type="curve"/>
      <point x="367" y="-245" type="line"/>
      <point x="349" y="-250"/>
      <point x="331" y="-253"/>
      <point x="308" y="-253" type="curve" smooth="yes"/>
      <point x="223" y="-253"/>
      <point x="157" y="-209"/>
      <point x="157" y="-130" type="curve" smooth="yes"/>
      <point x="157" y="-69"/>
      <point x="188" y="-29"/>
      <point x="237" y="0" type="curve"/>
      <point x="75" y="0" type="line"/>
      <point x="75" y="121" type="line"/>
      <point x="218" y="121" type="line"/>
      <point x="218" y="573" type="line"/>
      <point x="75" y="573" type="line"/>
      <point x="75" y="693" type="line"/>
      <point x="525" y="693" type="line"/>
    </contour>
  </outline>
</glyph>
<glyph name="iogonek" format="2">
  <advance width="600"/>
  <unicode hex="012F"/>
  <outline>
    <contour>
      <point x="299" y="631" type="curve" smooth="yes"/>
      <point x="244" y="631"/>
      <point x="205" y="669"/>
      <point x="205" y="720" type="curve" smooth="yes"/>
      <point x="205" y="770"/>
      <point x="244" y="809"/>
      <point x="299" y="809" type="curve" smooth="yes"/>
      <point x="354" y="809"/>
      <point x="392" y="770"/>
      <point x="392" y="720" type="curve" smooth="yes"/>
      <point x="392" y="669"/>
      <point x="354" y="631"/>
    </contour>
    <contour>
      <point x="394" y="108" type="line"/>
      <point x="530" y="108" type="line"/>
      <point x="530" y="0" type="line"/>
      <point x="394" y="0" type="line"/>
      <point x="301" y="-32"/>
      <point x="279" y="-69"/>
      <point x="279" y="-110" type="curve" smooth="yes"/>
      <point x="279" y="-143"/>
      <point x="302" y="-159"/>
      <point x="337" y="-159" type="curve" smooth="yes"/>
      <point x="358" y="-159"/>
      <point x="374" y="-156"/>
      <point x="391" y="-152" type="curve"/>
      <point x="379" y="-245" type="line"/>
      <point x="361" y="-250"/>
      <point x="343" y="-253"/>
      <point x="320" y="-253" type="curve" smooth="yes"/>
      <point x="235" y="-253"/>
      <point x="169" y="-209"/>
      <point x="169" y="-130" type="curve" smooth="yes"/>
      <point x="169" y="-69"/>
      <point x="200" y="-29"/>
      <point x="249" y="0" type="curve"/>
      <point x="86" y="0" type="line"/>
      <point x="86" y="108" type="line"/>
      <point x="236" y="108" type="line"/>
      <point x="236" y="423" type="line"/>
      <point x="91" y="423" type="line"/>
      <point x="91" y="531" type="line"/>
      <point x="394" y="531" type="line"/>
    </contour>
  </outline>
</glyph>
<glyph name="IJ" format="2">
  <advance width="600"/>
  <unicode hex="0132"/>
  <outline>
    <contour>
      <point x="181" y="-72" type="line"/>
      <point x="365" y="-40"/>
      <point x="398" y="29"/>
      <point x="398" y="164" type="curve" smooth="yes"/>
      <point x="398" y="592" type="line"/>
      <point x="232" y="592" type="line"/>
      <point x="232" y="102" type="line"/>
      <point x="285" y="102" type="line"/>
      <point x="285" y="0" type="line"/>
      <point x="8" y="0" type="line"/>
      <point x="8" y="102" type="line"/>
      <point x="81" y="102" type="line"/>
      <point x="81" y="592" type="line"/>
      <point x="8" y="592" type="line"/>
      <point x="8" y="693" type="line"/>
      <point x="556" y="693" type="line"/>
      <point x="556" y="170" type="line" smooth="yes"/>
      <point x="556" y="-18"/>
      <point x="463" y="-140"/>
      <point x="200" y="-183" type="curve"/>
    </contour>
  </outline>
</glyph>
<glyph name="ij" format="2">
  <advance width="600"/>
  <unicode hex="0133"/>
  <outline>
    <contour>
      <point x="182" y="809" type="curve" smooth="yes"/>
      <point x="238" y="809"/>
      <point x="277" y="770"/>
      <point x="277" y="720" type="curve" smooth="yes"/>
      <point x="277" y="669"/>
      <point x="238" y="631"/>
      <point x="182" y="631" type="curve" smooth="yes"/>
      <point x="128" y="631"/>
      <point x="89" y="669"/>
      <point x="89" y="720" type="curve" smooth="yes"/>
      <point x="89" y="770"/>
      <point x="128" y="809"/>
    </contour>
    <contour>
      <point x="456" y="809" type="curve" smooth="yes"/>
      <point x="510" y="809"/>
      <point x="550" y="770"/>
      <point x="550" y="720" type="curve" smooth="yes"/>
      <point x="550" y="669"/>
      <point x="510" y="631"/>
      <point x="456" y="631" type="curve" smooth="yes"/>
      <point x="401" y="631"/>
      <point x="362" y="669"/>
      <point x="362" y="720" type="curve" smooth="yes"/>
      <point x="362" y="770"/>
      <point x="401" y="809"/>
    </contour>
    <contour>
      <point x="545" y="531" type="line"/>
      <point x="545" y="122" type="line" smooth="yes"/>
      <point x="545" y="-86"/>
      <point x="436" y="-164"/>
      <point x="245" y="-222" type="curve"/>
      <point x="193" y="-105" type="line"/>
      <point x="323" y="-65"/>
      <point x="388" y="-24"/>
      <point x="388" y="108" type="curve" smooth="yes"/>
      <point x="388" y="424" type="line"/>
      <point x="260" y="424" type="line"/>
      <point x="260" y="108" type="line"/>
      <point x="312" y="108" type="line"/>
      <point x="312" y="0" type="line"/>
      <point x="35" y="0" type="line"/>
      <point x="35" y="108" type="line"/>
      <point x="104" y="108" type="line"/>
      <point x="104" y="424" type="line"/>
      <point x="40" y="424" type="line"/>
      <point x="40" y="531" type="line"/>
    </contour>
  </outline>
</glyph>
<glyph name="Kcommaaccent" format="2">
  <advance width="600"/>
  <unicode hex="0136"/>
  <outline>
    <contour>
      <point x="223" y="0" type="line"/>
      <point x="59" y="0" type="line"/>
      <point x="59" y="693" type="line"/>
      <point x="223" y="693" type="line"/>
    </contour>
    <contour>
      <point x="228" y="370" type="line"/>
      <point x="417" y="693" type="line"/>
      <point x="589" y="693" type="line"/>
      <point x="393" y="382" type="line"/>
      <point x="608" y="0" type="line"/>
      <point x="419" y="0" type="line"/>
    </contour>
    <contour>
      <point x="302" y="-65" type="curve" smooth="yes"/>
      <point x="347" y="-65"/>
      <point x="380" y="-98"/>
      <point x="380" y="-143" type="curve" smooth="yes"/>
      <point x="380" y="-166"/>
      <point x="372" y="-195"/>
      <point x="357" y="-225" type="curve" smooth="yes"/>
      <point x="308" y="-322" type="line"/>
      <point x="228" y="-322" type="line"/>
      <point x="255" y="-207" type="line"/>
      <point x="237" y="-192"/>
      <point x="223" y="-171"/>
      <point x="223" y="-143" type="curve" smooth="yes"/>
      <point x="223" y="-100"/>
      <point x="256" y="-65"/>
    </contour>
  </outline>
</glyph>
<glyph name="kcommaaccent" format="2">
  <advance width="600"/>
  <unicode hex="0137"/>
  <outline>
    <contour>
      <point x="228" y="759" type="line"/>
      <point x="228" y="0" type="line"/>
      <point x="70" y="0" type="line"/>
      <point x="70" y="742" type="line"/>
    </contour>
    <contour>
      <point x="574" y="531" type="line"/>
      <point x="399" y="296" type="line"/>
      <point x="588" y="0" type="line"/>
      <point x="408" y="0" type="line"/>
      <point x="234" y="291" type="line"/>
      <point x="409" y="531" type="line"/>
    </contour>
    <contour>
      <point x="300" y="-65" type="curve" smooth="yes"/>
      <point x="345" y="-65"/>
      <point x="378" y="-98"/>
      <point x="378" y="-143" type="curve" smooth="yes"/>
      <point x="378" y="-166"/>
      <point x="370" y="-195"/>
      <point x="355" y="-225" type="curve" smooth="yes"/>
      <point x="306" y="-322" type="line"/>
      <point x="226" y="-322" type="line"/>
      <point x="253" y="-207" type="line"/>
      <point x="235" y="-192"/>
      <point x="221" y="-171"/>
      <point x="221" y="-143" type="curve" smooth="yes"/>
      <point x="221" y="-100"/>
      <point x="254" y="-65"/>
    </contour>
  </outline>
</glyph>
<glyph name="kgreenlandic" format="2">
  <advance width="600"/>
  <unicode hex="0138"/>
  <outline>
    <contour>
      <point x="228" y="531" type="line"/>
      <point x="228" y="0" type="line"/>
      <point x="70" y="0" type="line"/>
      <point x="70" y="531" type="line"/>
    </contour>
    <contour>
      <point x="574" y="531" type="line"/>
      <point x="398" y="287" type="line"/>
      <point x="588" y="0" type="line"/>
      <point x="408" y="0" type="line"/>
      <point x="234" y="276" type="line"/>
      <point x="409" y="531" type="line"/>
    </contour>
  </outline>
</glyph>
<glyph name="Lacute" format="2">
  <advance width="600"/>
  <unicode hex="0139"/>
  <outline>
    <contour>
      <point x="253" y="953" type="line"/>
      <point x="312" y="835" type="line"/>
      <point x="75" y="751" type="line"/>
      <point x="37" y="831" type="line"/>
    </contour>
    <contour>
      <point x="93" y="0" type="line"/>
      <point x="93" y="693" type="line"/>
      <point x="257" y="693" type="line"/>
      <point x="257" y="130" type="line"/>
      <point x="557" y="130" type="line"/>
      <point x="541" y="0" type="line"/>
    </contour>
  </outline>
</glyph>
<glyph name="lacute" format="2">
  <advance width="600"/>
  <unicode hex="013A"/>
  <outline>
    <contour>
      <point x="332" y="1046" type="line"/>
      <point x="394" y="927" type="line"/>
      <point x="157" y="833" type="line"/>
      <point x="114" y="914" type="line"/>
    </contour>
    <contour>
      <point x="347" y="742" type="line"/>
      <point x="347" y="167" type="line" smooth="yes"/>
      <point x="347" y="124"/>
      <point x="373" y="108"/>
      <point x="415" y="108" type="curve" smooth="yes"/>
      <point x="443" y="108"/>
      <point x="469" y="115"/>
      <point x="491" y="124" type="curve"/>
      <point x="528" y="18" type="line"/>
      <point x="493" y="-1"/>
      <point x="443" y="-17"/>
      <point x="375" y="-17" type="curve" smooth="yes"/>
      <point x="247" y="-17"/>
      <point x="189" y="62"/>
      <point x="189" y="187" type="curve" smooth="yes"/>
      <point x="189" y="634" type="line"/>
      <point x="33" y="634" type="line"/>
      <point x="33" y="742" type="line"/>
    </contour>
  </outline>
</glyph>
<glyph name="Lcommaaccent" format="2">
  <advance width="600"/>
  <unicode hex="013B"/>
  <outline>
    <contour>
      <point x="93" y="0" type="line"/>
      <point x="93" y="693" type="line"/>
      <point x="257" y="693" type="line"/>
      <point x="257" y="130" type="line"/>
      <point x="557" y="130" type="line"/>
      <point x="541" y="0" type="line"/>
    </contour>
    <contour>
      <point x="318" y="-65" type="curve" smooth="yes"/>
      <point x="363" y="-65"/>
      <point x="396" y="-98"/>
      <point x="396" y="-143" type="curve" smooth="yes"/>
      <point x="396" y="-166"/>
      <point x="388" y="-195"/>
      <point x="373" y="-225" type="curve" smooth="yes"/>
      <point x="324" y="-322" type="line"/>
      <point x="244" y="-322" type="line"/>
      <point x="271" y="-207" type="line"/>
      <point x="253" y="-192"/>
      <point x="239" y="-171"/>
      <point x="239" y="-143" type="curve" smooth="yes"/>
      <point x="239" y="-100"/>
      <point x="272" y="-65"/>
    </contour>
  </outline>
</glyph>
<glyph name="lcommaaccent" format="2">
  <advance width="600"/>
  <unicode hex="013C"/>
  <outline>
    <contour>
      <point x="347" y="742" type="line"/>
      <point x="347" y="167" type="line" smooth="yes"/>
      <point x="347" y="124"/>
      <point x="373" y="108"/>
      <point x="415" y="108" type="curve" smooth="yes"/>
      <point x="443" y="108"/>
      <point x="469" y="115"/>
      <point x="491" y="124" type="curve"/>
      <point x="528" y="18" type="line"/>
      <point x="493" y="-1"/>
      <point x="443" y="-17"/>
      <point x="375" y="-17" type="curve" smooth="yes"/>
      <point x="247" y="-17"/>
      <point x="189" y="62"/>
      <point x="189" y="187" type="curve" smooth="yes"/>
      <point x="189" y="634" type="line"/>
      <point x="33" y="634" type="line"/>
      <point x="33" y="742" type="line"/>
    </contour>
    <contour>
      <point x="355" y="-65" type="curve" smooth="yes"/>
      <point x="400" y="-65"/>
      <point x="433" y="-98"/>
      <point x="433" y="-143" type="curve" smooth="yes"/>
      <point x="433" y="-166"/>
      <point x="425" y="-195"/>
      <point x="410" y="-225" type="curve" smooth="yes"/>
      <point x="361" y="-322" type="line"/>
      <point x="281" y="-322" type="line"/>
      <point x="308" y="-207" type="line"/>
      <point x="290" y="-192"/>
      <point x="276" y="-171"/>
      <point x="276" y="-143" type="curve" smooth="yes"/>
      <point x="276" y="-100"/>
      <point x="309" y="-65"/>
    </contour>
  </outline>
</glyph>
<glyph name="Lcaron" format="2">
  <advance width="600"/>
  <unicode hex="013D"/>
  <outline>
    <contour>
      <point x="349" y="715" type="line"/>
      <point x="488" y="698" type="line"/>
      <point x="410" y="466" type="line"/>
      <point x="312" y="482" type="line"/>
    </contour>
    <contour>
      <point x="93" y="0" type="line"/>
      <point x="93" y="693" type="line"/>
      <point x="257" y="693" type="line"/>
      <point x="257" y="130" type="line"/>
      <point x="557" y="130" type="line"/>
      <point x="541" y="0" type="line"/>
    </contour>
  </outline>
</glyph>
<glyph name="Ldot" format="2">
  <advance width="600"/>
  <unicode hex="013F"/>
  <outline>
    <contour>
      <point x="93" y="0" type="line"/>
      <point x="93" y="693" type="line"/>
      <point x="257" y="693" type="line"/>
      <point x="257" y="130" type="line"/>
      <point x="557" y="130" type="line"/>
      <point x="541" y="0" type="line"/>
    </contour>
    <contour>
      <point x="466" y="474" type="curve" smooth="yes"/>
      <point x="521" y="474"/>
      <point x="559" y="435"/>
      <point x="559" y="385" type="curve" smooth="yes"/>
      <point x="559" y="334"/>
      <point x="521" y="296"/>
      <point x="466" y="296" type="curve" smooth="yes"/>
      <point x="411" y="296"/>
      <point x="372" y="334"/>
      <point x="372" y="385" type="curve" smooth="yes"/>
      <point x="372" y="435"/>
      <point x="411" y="474"/>
    </contour>
  </outline>
</glyph>
<glyph name="ldot" format="2">
  <advance width="600"/>
  <unicode hex="0140"/>
  <outline>
    <contour>
      <point x="347" y="742" type="line"/>
      <point x="347" y="167" type="line" smooth="yes"/>
      <point x="347" y="124"/>
      <point x="373" y="108"/>
      <point x="415" y="108" type="curve" smooth="yes"/>
      <point x="443" y="108"/>
      <point x="469" y="115"/>
      <point x="491" y="124" type="curve"/>
      <point x="528" y="18" type="line"/>
      <point x="493" y="-1"/>
      <point x="443" y="-17"/>
      <point x="375" y="-17" type="curve" smooth="yes"/>
      <point x="247" y="-17"/>
      <point x="189" y="62"/>
      <point x="189" y="187" type="curve" smooth="yes"/>
      <point x="189" y="634" type="line"/>
      <point x="33" y="634" type="line"/>
      <point x="33" y="742" type="line"/>
    </contour>
    <contour>
      <point x="568" y="472" type="curve" smooth="yes"/>
      <point x="623" y="472"/>
      <point x="661" y="433"/>
      <point x="661" y="383" type="curve" smooth="yes"/>
      <point x="661" y="332"/>
      <point x="623" y="294"/>
      <point x="568" y="294" type="curve" smooth="yes"/>
      <point x="513" y="294"/>
      <point x="474" y="332"/>
      <point x="474" y="383" type="curve" smooth="yes"/>
      <point x="474" y="433"/>
      <point x="513" y="472"/>
    </contour>
  </outline>
</glyph>
<glyph name="Lslash" format="2">
  <advance width="600"/>
  <unicode hex="0141"/>
  <outline>
    <contour>
      <point x="272" y="130" type="line"/>
      <point x="572" y="130" type="line"/>
      <point x="555" y="0" type="line"/>
      <point x="108" y="0" type="line"/>
      <point x="108" y="229" type="line"/>
      <point x="62" y="201" type="line"/>
      <point x="9" y="288" type="line"/>
      <point x="108" y="349" type="line"/>
      <point x="108" y="693" type="line"/>
      <point x="272" y="693" type="line"/>
      <point x="272" y="451" type="line"/>
      <point x="396" y="527" type="line"/>
      <point x="450" y="442" type="line"/>
      <point x="272" y="331" type="line"/>
    </contour>
  </outline>
</glyph>
<glyph name="lslash" format="2">
  <advance width="600"/>
  <unicode hex="0142"/>
  <outline>
    <contour>
      <point x="491" y="124" type="curve"/>
      <point x="528" y="18" type="line"/>
      <point x="493" y="-1"/>
      <point x="443" y="-17"/>
      <point x="375" y="-17" type="curve" smooth="yes"/>
      <point x="247" y="-17"/>
      <point x="189" y="62"/>
      <point x="189" y="187" type="curve" smooth="yes"/>
      <point x="189" y="258" type="line"/>
      <point x="144" y="231" type="line"/>
      <point x="89" y="319" type="line"/>
      <point x="189" y="380" type="line"/>
      <point x="189" y="634" type="line"/>
      <point x="33" y="634" type="line"/>
      <point x="33" y="742" type="line"/>
      <point x="347" y="742" type="line"/>
      <point x="347" y="477" type="line"/>
      <point x="412" y="517" type="line"/>
      <point x="468" y="428" type="line"/>
      <point x="347" y="354" type="line"/>
      <point x="347" y="167" type="line" smooth="yes"/>
      <point x="347" y="124"/>
      <point x="373" y="108"/>
      <point x="415" y="108" type="curve" smooth="yes"/>
      <point x="443" y="108"/>
      <point x="469" y="115"/>
    </contour>
  </outline>
</glyph>
<glyph name="Ncommaaccent" format="2">
  <advance width="600"/>
  <unicode hex="0145"/>
  <outline>
    <contour>
      <point x="349" y="0" type="line"/>
      <point x="167" y="557" type="line"/>
      <point x="175" y="498"/>
      <point x="191" y="383"/>
      <point x="191" y="261" type="curve" smooth="yes"/>
      <point x="191" y="0" type="line"/>
      <point x="52" y="0" type="line"/>
      <point x="52" y="693" type="line"/>
      <point x="257" y="693" type="line"/>
      <point x="433" y="138" type="line"/>
      <point x="423" y="202"/>
      <point x="409" y="303"/>
      <point x="409" y="428" type="curve" smooth="yes"/>
      <point x="409" y="693" type="line"/>
      <point x="548" y="693" type="line"/>
      <point x="548" y="0" type="line"/>
    </contour>
    <contour>
      <point x="301" y="-65" type="curve" smooth="yes"/>
      <point x="346" y="-65"/>
      <point x="379" y="-98"/>
      <point x="379" y="-143" type="curve" smooth="yes"/>
      <point x="379" y="-166"/>
      <point x="371" y="-195"/>
      <point x="356" y="-225" type="curve" smooth="yes"/>
      <point x="307" y="-322" type="line"/>
      <point x="227" y="-322" type="line"/>
      <point x="254" y="-207" type="line"/>
      <point x="236" y="-192"/>
      <point x="222" y="-171"/>
      <point x="222" y="-143" type="curve" smooth="yes"/>
      <point x="222" y="-100"/>
      <point x="255" y="-65"/>
    </contour>
  </outline>
</glyph>
<glyph name="ncommaaccent" format="2">
  <advance width="600"/>
  <unicode hex="0146"/>
  <outline>
    <contour>
      <point x="70" y="0" type="line"/>
      <point x="70" y="531" type="line"/>
      <point x="208" y="531" type="line"/>
      <point x="219" y="470" type="line"/>
      <point x="266" y="523"/>
      <point x="316" y="549"/>
      <point x="384" y="549" type="curve" smooth="yes"/>
      <point x="475" y="549"/>
      <point x="530" y="491"/>
      <point x="530" y="390" type="curve" smooth="yes"/>
      <point x="530" y="0" type="line"/>
      <point x="372" y="0" type="line"/>
      <point x="372" y="344" type="line" smooth="yes"/>
      <point x="372" y="410"/>
      <point x="360" y="432"/>
      <point x="321" y="432" type="curve" smooth="yes"/>
      <point x="287" y="432"/>
      <point x="258" y="409"/>
      <point x="228" y="371" type="curve"/>
      <point x="228" y="0" type="line"/>
    </contour>
    <contour>
      <point x="301" y="-65" type="curve" smooth="yes"/>
      <point x="346" y="-65"/>
      <point x="379" y="-98"/>
      <point x="379" y="-143" type="curve" smooth="yes"/>
      <point x="379" y="-166"/>
      <point x="371" y="-195"/>
      <point x="356" y="-225" type="curve" smooth="yes"/>
      <point x="307" y="-322" type="line"/>
      <point x="227" y="-322" type="line"/>
      <point x="254" y="-207" type="line"/>
      <point x="236" y="-192"/>
      <point x="222" y="-171"/>
      <point x="222" y="-143" type="curve" smooth="yes"/>
      <point x="222" y="-100"/>
      <point x="255" y="-65"/>
    </contour>
  </outline>
</glyph>
<glyph name="Ncaron" format="2">
  <advance width="600"/>
  <unicode hex="0147"/>
  <outline>
    <contour>
      <point x="443" y="946" type="line"/>
      <point x="499" y="881" type="line"/>
      <point x="358" y="751" type="line"/>
      <point x="262" y="751" type="line"/>
      <point x="120" y="881" type="line"/>
      <point x="177" y="946" type="line"/>
      <point x="310" y="861" type="line"/>
    </contour>
    <contour>
      <point x="349" y="0" type="line"/>
      <point x="167" y="557" type="line"/>
      <point x="175" y="498"/>
      <point x="191" y="383"/>
      <point x="191" y="261" type="curve" smooth="yes"/>
      <point x="191" y="0" type="line"/>
      <point x="52" y="0" type="line"/>
      <point x="52" y="693" type="line"/>
      <point x="257" y="693" type="line"/>
      <point x="433" y="138" type="line"/>
      <point x="423" y="202"/>
      <point x="409" y="303"/>
      <point x="409" y="428" type="curve" smooth="yes"/>
      <point x="409" y="693" type="line"/>
      <point x="548" y="693" type="line"/>
      <point x="548" y="0" type="line"/>
    </contour>
  </outline>
</glyph>
<glyph name="ncaron" format="2">
  <advance width="600"/>
  <unicode hex="0148"/>
  <outline>
    <contour>
      <point x="434" y="815" type="line"/>
      <point x="490" y="751" type="line"/>
      <point x="349" y="611" type="line"/>
      <point x="253" y="611" type="line"/>
      <point x="111" y="751" type="line"/>
      <point x="168" y="815" type="line"/>
      <point x="301" y="721" type="line"/>
    </contour>
    <contour>
      <point x="70" y="0" type="line"/>
      <point x="70" y="531" type="line"/>
      <point x="208" y="531" type="line"/>
      <point x="219" y="470" type="line"/>
      <point x="266" y="523"/>
      <point x="316" y="549"/>
      <point x="384" y="549" type="curve" smooth="yes"/>
      <point x="475" y="549"/>
      <point x="530" y="491"/>
      <point x="530" y="390" type="curve" smooth="yes"/>
      <point x="530" y="0" type="line"/>
      <point x="372" y="0" type="line"/>
      <point x="372" y="344" type="line" smooth="yes"/>
      <point x="372" y="410"/>
      <point x="360" y="432"/>
      <point x="321" y="432" type="curve" smooth="yes"/>
      <point x="287" y="432"/>
      <point x="258" y="409"/>
      <point x="228" y="371" type="curve"/>
      <point x="228" y="0" type="line"/>
    </contour>
  </outline>
</glyph>
<glyph name="napostrophe" format="2">
  <advance width="600"/>
  <unicode hex="0149"/>
  <outline>
    <contour>
      <point x="59" y="764" type="curve" smooth="yes"/>
      <point x="103" y="764"/>
      <point x="136" y="732"/>
      <point x="136" y="689" type="curve" smooth="yes"/>
      <point x="136" y="664"/>
      <point x="128" y="645"/>
      <point x="112" y="615" type="curve" smooth="yes"/>
      <point x="71" y="535" type="line"/>
      <point x="-7" y="535" type="line"/>
      <point x="14" y="627" type="line"/>
      <point x="-3" y="641"/>
      <point x="-17" y="661"/>
      <point x="-17" y="689" type="curve" smooth="yes"/>
      <point x="-17" y="729"/>
      <point x="15" y="764"/>
    </contour>
    <contour>
      <point x="90" y="0" type="line"/>
      <point x="90" y="531" type="line"/>
      <point x="228" y="531" type="line"/>
      <point x="239" y="470" type="line"/>
      <point x="285" y="523"/>
      <point x="336" y="549"/>
      <point x="404" y="549" type="curve" smooth="yes"/>
      <point x="494" y="549"/>
      <point x="550" y="491"/>
      <point x="550" y="390" type="curve" smooth="yes"/>
      <point x="550" y="0" type="line"/>
      <point x="392" y="0" type="line"/>
      <point x="392" y="344" type="line" smooth="yes"/>
      <point x="392" y="409"/>
      <point x="380" y="432"/>
      <point x="341" y="432" type="curve" smooth="yes"/>
      <point x="307" y="432"/>
      <point x="277" y="409"/>
      <point x="248" y="371" type="curve"/>
      <point x="248" y="0" type="line"/>
    </contour>
  </outline>
</glyph>
<glyph name="Eng" format="2">
  <advance width="600"/>
  <unicode hex="014A"/>
  <outline>
    <contour>
      <point x="409" y="693" type="line"/>
      <point x="548" y="693" type="line"/>
      <point x="548" y="-27" type="line" smooth="yes"/>
      <point x="548" y="-158"/>
      <point x="474" y="-228"/>
      <point x="348" y="-228" type="curve" smooth="yes"/>
      <point x="286" y="-228"/>
      <point x="247" y="-209"/>
      <point x="212" y="-183" type="curve"/>
      <point x="272" y="-91" type="line"/>
      <point x="291" y="-100"/>
      <point x="306" y="-108"/>
      <point x="332" y="-108" type="curve" smooth="yes"/>
      <point x="365" y="-108"/>
      <point x="384" y="-90"/>
      <point x="384" y="-41" type="curve" smooth="yes"/>
      <point x="384" y="0" type="line"/>
      <point x="349" y="0" type="line"/>
      <point x="167" y="557" type="line"/>
      <point x="175" y="498"/>
      <point x="191" y="383"/>
      <point x="191" y="261" type="curve" smooth="yes"/>
      <point x="191" y="0" type="line"/>
      <point x="52" y="0" type="line"/>
      <point x="52" y="693" type="line"/>
      <point x="257" y="693" type="line"/>
      <point x="433" y="138" type="line"/>
      <point x="423" y="202"/>
      <point x="409" y="303"/>
      <point x="409" y="428" type="curve" smooth="yes"/>
    </contour>
  </outline>
</glyph>
<glyph name="Obreve" format="2">
  <advance width="600"/>
  <unicode hex="014E"/>
  <outline>
    <contour>
      <point x="300" y="751" type="curve" smooth="yes"/>
      <point x="190" y="751"/>
      <point x="138" y="820"/>
      <point x="128" y="905" type="curve"/>
      <point x="215" y="921" type="line"/>
      <point x="228" y="879"/>
      <point x="254" y="861"/>
      <point x="300" y="861" type="curve" smooth="yes"/>
      <point x="346" y="861"/>
      <point x="372" y="879"/>
      <point x="385" y="921" type="curve"/>
      <point x="472" y="905" type="line"/>
      <point x="463" y="820"/>
      <point x="410" y="751"/>
    </contour>
    <contour>
      <point x="577" y="347" type="curve" smooth="yes"/>
      <point x="577" y="127"/>
      <point x="482" y="-17"/>
      <point x="300" y="-17" type="curve" smooth="yes"/>
      <point x="118" y="-17"/>
      <point x="23" y="122"/>
      <point x="23" y="347" type="curve" smooth="yes"/>
      <point x="23" y="567"/>
      <point x="118" y="711"/>
      <point x="300" y="711" type="curve" smooth="yes"/>
      <point x="482" y="711"/>
      <point x="577" y="572"/>
    </contour>
    <contour>
      <point x="409" y="347" type="curve" smooth="yes"/>
      <point x="409" y="517"/>
      <point x="378" y="591"/>
      <point x="300" y="591" type="curve" smooth="yes"/>
      <point x="222" y="591"/>
      <point x="191" y="517"/>
      <point x="191" y="347" type="curve" smooth="yes"/>
      <point x="191" y="177"/>
      <point x="223" y="103"/>
      <point x="300" y="103" type="curve" smooth="yes"/>
      <point x="380" y="103"/>
      <point x="409" y="179"/>
    </contour>
  </outline>
</glyph>
<glyph name="obreve" format="2">
  <advance width="600"/>
  <unicode hex="014F"/>
  <outline>
    <contour>
      <point x="300" y="612" type="curve" smooth="yes"/>
      <point x="189" y="612"/>
      <point x="136" y="698"/>
      <point x="128" y="786" type="curve"/>
      <point x="215" y="801" type="line"/>
      <point x="227" y="753"/>
      <point x="254" y="720"/>
      <point x="300" y="720" type="curve" smooth="yes"/>
      <point x="346" y="720"/>
      <point x="373" y="753"/>
      <point x="385" y="801" type="curve"/>
      <point x="472" y="786" type="line"/>
      <point x="464" y="698"/>
      <point x="409" y="612"/>
    </contour>
    <contour>
      <point x="300" y="549" type="curve" smooth="yes"/>
      <point x="464" y="549"/>
      <point x="558" y="437"/>
      <point x="558" y="267" type="curve" smooth="yes"/>
      <point x="558" y="89"/>
      <point x="463" y="-17"/>
      <point x="300" y="-17" type="curve" smooth="yes"/>
      <point x="137" y="-17"/>
      <point x="42" y="87"/>
      <point x="42" y="266" type="curve" smooth="yes"/>
      <point x="42" y="435"/>
      <point x="137" y="549"/>
    </contour>
    <contour>
      <point x="300" y="432" type="curve" smooth="yes"/>
      <point x="235" y="432"/>
      <point x="205" y="382"/>
      <point x="205" y="266" type="curve" smooth="yes"/>
      <point x="205" y="148"/>
      <point x="235" y="99"/>
      <point x="300" y="99" type="curve" smooth="yes"/>
      <point x="365" y="99"/>
      <point x="395" y="148"/>
      <point x="395" y="267" type="curve" smooth="yes"/>
      <point x="395" y="382"/>
      <point x="365" y="432"/>
    </contour>
  </outline>
</glyph>
<glyph name="OE" format="2">
  <advance width="600"/>
  <unicode hex="0152"/>
  <outline>
    <contour>
      <point x="225" y="711" type="curve" smooth="yes"/>
      <point x="261" y="711"/>
      <point x="287" y="704"/>
      <point x="320" y="693" type="curve"/>
      <point x="596" y="693" type="line"/>
      <point x="580" y="582" type="line"/>
      <point x="398" y="582" type="line"/>
      <point x="419" y="540"/>
      <point x="433" y="481"/>
      <point x="437" y="406" type="curve"/>
      <point x="558" y="406" type="line"/>
      <point x="558" y="296" type="line"/>
      <point x="438" y="296" type="line"/>
      <point x="434" y="217"/>
      <point x="417" y="156"/>
      <point x="393" y="111" type="curve"/>
      <point x="597" y="111" type="line"/>
      <point x="597" y="0" type="line"/>
      <point x="316" y="0" type="line"/>
      <point x="287" y="-9"/>
      <point x="261" y="-17"/>
      <point x="225" y="-17" type="curve" smooth="yes"/>
      <point x="72" y="-17"/>
      <point x="10" y="115"/>
      <point x="10" y="347" type="curve" smooth="yes"/>
      <point x="10" y="574"/>
      <point x="72" y="711"/>
    </contour>
    <contour>
      <point x="226" y="599" type="curve" smooth="yes"/>
      <point x="166" y="599"/>
      <point x="149" y="529"/>
      <point x="149" y="347" type="curve" smooth="yes"/>
      <point x="149" y="164"/>
      <point x="170" y="94"/>
      <point x="226" y="94" type="curve" smooth="yes"/>
      <point x="283" y="94"/>
      <point x="304" y="164"/>
      <point x="304" y="347" type="curve" smooth="yes"/>
      <point x="304" y="534"/>
      <point x="286" y="599"/>
    </contour>
  </outline>
</glyph>
<glyph name="oe" format="2">
  <advance width="600"/>
  <unicode hex="0153"/>
  <outline>
    <contour>
      <point x="438" y="549" type="curve" smooth="yes"/>
      <point x="561" y="549"/>
      <point x="606" y="452"/>
      <point x="606" y="276" type="curve" smooth="yes"/>
      <point x="606" y="258"/>
      <point x="605" y="242"/>
      <point x="603" y="226" type="curve"/>
      <point x="369" y="226" type="line"/>
      <point x="377" y="130"/>
      <point x="407" y="87"/>
      <point x="462" y="87" type="curve" smooth="yes"/>
      <point x="493" y="87"/>
      <point x="517" y="98"/>
      <point x="546" y="119" type="curve"/>
      <point x="606" y="40" type="line"/>
      <point x="567" y="7"/>
      <point x="519" y="-17"/>
      <point x="454" y="-17" type="curve" smooth="yes"/>
      <point x="384" y="-17"/>
      <point x="334" y="12"/>
      <point x="302" y="63" type="curve"/>
      <point x="278" y="13"/>
      <point x="241" y="-17"/>
      <point x="176" y="-17" type="curve" smooth="yes"/>
      <point x="49" y="-17"/>
      <point x="-8" y="87"/>
      <point x="-8" y="266" type="curve" smooth="yes"/>
      <point x="-8" y="435"/>
      <point x="48" y="549"/>
      <point x="176" y="549" type="curve" smooth="yes"/>
      <point x="244" y="549"/>
      <point x="281" y="517"/>
      <point x="305" y="465" type="curve"/>
      <point x="331" y="514"/>
      <point x="372" y="549"/>
    </contour>
    <contour>
      <point x="432" y="450" type="curve" smooth="yes"/>
      <point x="393" y="450"/>
      <point x="373" y="416"/>
      <point x="368" y="312" type="curve"/>
      <point x="487" y="312" type="line"/>
      <point x="486" y="406"/>
      <point x="476" y="450"/>
    </contour>
    <contour>
      <point x="182" y="432" type="curve" smooth="yes"/>
      <point x="138" y="432"/>
      <point x="123" y="387"/>
      <point x="123" y="266" type="curve" smooth="yes"/>
      <point x="123" y="140"/>
      <point x="138" y="99"/>
      <point x="182" y="99" type="curve" smooth="yes"/>
      <point x="225" y="99"/>
      <point x="241" y="138"/>
      <point x="241" y="267" type="curve" smooth="yes"/>
      <point x="241" y="387"/>
      <point x="224" y="432"/>
    </contour>
  </outline>
</glyph>
<glyph name="Racute" format="2">
  <advance width="600"/>
  <unicode hex="0154"/>
  <outline>
    <contour>
      <point x="378" y="953" type="line"/>
      <point x="437" y="835" type="line"/>
      <point x="200" y="751" type="line"/>
      <point x="162" y="831" type="line"/>
    </contour>
    <contour>
      <point x="561" y="482" type="curve" smooth="yes"/>
      <point x="561" y="383"/>
      <point x="500" y="323"/>
      <point x="423" y="292" type="curve"/>
      <point x="604" y="0" type="line"/>
      <point x="418" y="0" type="line"/>
      <point x="268" y="265" type="line"/>
      <point x="222" y="265" type="line"/>
      <point x="222" y="0" type="line"/>
      <point x="58" y="0" type="line"/>
      <point x="58" y="693" type="line"/>
      <point x="276" y="693" type="line" smooth="yes"/>
      <point x="465" y="693"/>
      <point x="561" y="626"/>
    </contour>
    <contour>
      <point x="392" y="482" type="curve" smooth="yes"/>
      <point x="392" y="549"/>
      <point x="353" y="578"/>
      <point x="276" y="578" type="curve" smooth="yes"/>
      <point x="222" y="578" type="line"/>
      <point x="222" y="378" type="line"/>
      <point x="283" y="378" type="line" smooth="yes"/>
      <point x="354" y="378"/>
      <point x="392" y="409"/>
    </contour>
  </outline>
</glyph>
<glyph name="racute" format="2">
  <advance width="600"/>
  <unicode hex="0155"/>
  <outline>
    <contour>
      <point x="463" y="716" type="line"/>
      <point x="226" y="622" type="line"/>
      <point x="183" y="703" type="line"/>
      <point x="401" y="835" type="line"/>
    </contour>
    <contour>
      <point x="475" y="547" type="curve" smooth="yes"/>
      <point x="511" y="547"/>
      <point x="538" y="541"/>
      <point x="563" y="531" type="curve"/>
      <point x="534" y="309" type="line"/>
      <point x="434" y="309" type="line"/>
      <point x="434" y="407" type="line"/>
      <point x="374" y="396"/>
      <point x="328" y="337"/>
      <point x="303" y="258" type="curve"/>
      <point x="303" y="106" type="line"/>
      <point x="408" y="106" type="line"/>
      <point x="408" y="0" type="line"/>
      <point x="75" y="0" type="line"/>
      <point x="75" y="106" type="line"/>
      <point x="145" y="106" type="line"/>
      <point x="145" y="426" type="line"/>
      <point x="75" y="426" type="line"/>
      <point x="75" y="531" type="line"/>
      <point x="266" y="531" type="line"/>
      <point x="294" y="412" type="line"/>
      <point x="332" y="503"/>
      <point x="390" y="547"/>
    </contour>
  </outline>
</glyph>
<glyph name="Rcommaaccent" format="2">
  <advance width="600"/>
  <unicode hex="0156"/>
  <outline>
    <contour>
      <point x="561" y="482" type="curve" smooth="yes"/>
      <point x="561" y="383"/>
      <point x="500" y="323"/>
      <point x="423" y="292" type="curve"/>
      <point x="604" y="0" type="line"/>
      <point x="418" y="0" type="line"/>
      <point x="268" y="265" type="line"/>
      <point x="222" y="265" type="line"/>
      <point x="222" y="0" type="line"/>
      <point x="58" y="0" type="line"/>
      <point x="58" y="693" type="line"/>
      <point x="276" y="693" type="line" smooth="yes"/>
      <point x="465" y="693"/>
      <point x="561" y="626"/>
    </contour>
    <contour>
      <point x="392" y="482" type="curve" smooth="yes"/>
      <point x="392" y="549"/>
      <point x="353" y="578"/>
      <point x="276" y="578" type="curve" smooth="yes"/>
      <point x="222" y="578" type="line"/>
      <point x="222" y="378" type="line"/>
      <point x="283" y="378" type="line" smooth="yes"/>
      <point x="354" y="378"/>
      <point x="392" y="409"/>
    </contour>
    <contour>
      <point x="311" y="-65" type="curve" smooth="yes"/>
      <point x="356" y="-65"/>
      <point x="389" y="-98"/>
      <point x="389" y="-143" type="curve" smooth="yes"/>
      <point x="389" y="-166"/>
      <point x="381" y="-195"/>
      <point x="366" y="-225" type="curve" smooth="yes"/>
      <point x="317" y="-322" type="line"/>
      <point x="237" y="-322" type="line"/>
      <point x="264" y="-207" type="line"/>
      <point x="246" y="-192"/>
      <point x="232" y="-171"/>
      <point x="232" y="-143" type="curve" smooth="yes"/>
      <point x="232" y="-100"/>
      <point x="265" y="-65"/>
    </contour>
  </outline>
</glyph>
<glyph name="Scircumflex" format="2">
  <advance width="600"/>
  <unicode hex="015C"/>
  <outline>
    <contour>
      <point x="358" y="943" type="line"/>
      <point x="499" y="813" type="line"/>
      <point x="443" y="748" type="line"/>
      <point x="310" y="833" type="line"/>
      <point x="177" y="748" type="line"/>
      <point x="120" y="813" type="line"/>
      <point x="262" y="943" type="line"/>
    </contour>
    <contour>
      <point x="568" y="203" type="curve" smooth="yes"/>
      <point x="568" y="73"/>
      <point x="463" y="-17"/>
      <point x="286" y="-17" type="curve" smooth="yes"/>
      <point x="155" y="-17"/>
      <point x="70" y="26"/>
      <point x="12" y="83" type="curve"/>
      <point x="95" y="175" type="line"/>
      <point x="146" y="130"/>
      <point x="208" y="105"/>
      <point x="282" y="105" type="curve" smooth="yes"/>
      <point x="351" y="105"/>
      <point x="397" y="136"/>
      <point x="397" y="190" type="curve" smooth="yes"/>
      <point x="397" y="240"/>
      <point x="368" y="264"/>
      <point x="272" y="293" type="curve" smooth="yes"/>
      <point x="109" y="343"/>
      <point x="48" y="404"/>
      <point x="48" y="509" type="curve" smooth="yes"/>
      <point x="48" y="637"/>
      <point x="165" y="711"/>
      <point x="309" y="711" type="curve" smooth="yes"/>
      <point x="415" y="711"/>
      <point x="497" y="678"/>
      <point x="557" y="621" type="curve"/>
      <point x="480" y="532" type="line"/>
      <point x="433" y="571"/>
      <point x="377" y="590"/>
      <point x="321" y="590" type="curve" smooth="yes"/>
      <point x="259" y="590"/>
      <point x="218" y="567"/>
      <point x="218" y="522" type="curve" smooth="yes"/>
      <point x="218" y="478"/>
      <point x="249" y="460"/>
      <point x="359" y="426" type="curve" smooth="yes"/>
      <point x="491" y="386"/>
      <point x="568" y="330"/>
    </contour>
  </outline>
</glyph>
